SplineFontDB: 3.0
FontName: Jost-ThinItalic
FullName: Jost* 200 Thin Italic
FamilyName: Jost* Thin
Weight: Thin
Copyright: This typeface is licensed under the SIL open font license.
UComments: "2018-6-8: Created with FontForge (http://fontforge.org)"
Version: 003.400
ItalicAngle: -10
UnderlinePosition: -100
UnderlineWidth: 50
Ascent: 800
Descent: 200
InvalidEm: 0
LayerCount: 2
Layer: 0 0 "Back" 1
Layer: 1 0 "Fore" 0
XUID: [1021 69 1495626776 760146]
FSType: 0
OS2Version: 0
OS2_WeightWidthSlopeOnly: 0
OS2_UseTypoMetrics: 0
CreationTime: 1528480336
ModificationTime: 1577666992
PfmFamily: 17
TTFWeight: 200
TTFWidth: 5
LineGap: 100
VLineGap: 0
OS2TypoAscent: 825
OS2TypoAOffset: 0
OS2TypoDescent: -225
OS2TypoDOffset: 0
OS2TypoLinegap: 100
OS2WinAscent: 900
OS2WinAOffset: 0
OS2WinDescent: 300
OS2WinDOffset: 0
HheadAscent: 1030
HheadAOffset: 0
HheadDescent: -350
HheadDOffset: 0
OS2CapHeight: 700
OS2XHeight: 460
OS2Vendor: 'PfEd'
Lookup: 1 0 0 "alt a" { "alt a"  } ['ss01' ('DFLT' <'dflt' > 'latn' <'dflt' > ) ]
Lookup: 1 0 0 "Tabular Numbers lookup" { "Tabular Numbers lookup"  } ['tnum' ('DFLT' <'dflt' > 'grek' <'dflt' > 'latn' <'dflt' > ) ]
Lookup: 258 0 0 "Lets get our kern on" { "kernin like nobodys business" [150,0,4] } ['kern' ('DFLT' <'dflt' > 'latn' <'dflt' > ) ]
MarkAttachClasses: 1
DEI: 91125
KernClass2: 16 14 "kernin like nobodys business"
 43 slash seven V W Wcircumflex uni040E uni0423
 175 quotedbl quotesingle asterisk grave dieresis ordfeminine macron degree acute ordmasculine circumflex breve dotaccent ring tilde quoteleft quoteright quotedblleft quotedblright
 25 nine question F P uni0420
 131 A L backslash Agrave Aacute Acircumflex Atilde Adieresis Aring Amacron Abreve Aogonek Lacute uni013B Lslash uni0410 uni0414 uni041C
 58 three eight B C germandbls uni0411 uni0412 uni0417 uni0421
 29 K X Z uni0416 uni041A uni0425

StartChar: H
Encoding: 72 72 0
Width: 647
VWidth: 0
Flags: HMW
LayerCount: 2
Fore
SplineSet
136 366 m 1
 140 397 l 1
 594 397 l 1
 588 366 l 1
 136 366 l 1
623 700 m 1
 656 700 l 1
 536 0 l 1
 504 0 l 1
 623 700 l 1
176 700 m 1
 210 700 l 1
 89 0 l 1
 57 0 l 1
 176 700 l 1
EndSplineSet
EndChar

StartChar: O
Encoding: 79 79 1
Width: 755
VWidth: 0
Flags: HMW
LayerCount: 2
Fore
SplineSet
112 350 m 0
 87 183 174 25 354 24 c 0
 536 23 680 174 708 350 c 0
 733 517 648 675 468 676 c 0
 286 677 140 526 112 350 c 0
78 350 m 0
 108 546 270 708 470 708 c 0
 668 708 771 536 744 350 c 0
 714 154 551 -8 351 -8 c 0
 153 -8 51 164 78 350 c 0
EndSplineSet
EndChar

StartChar: I
Encoding: 73 73 2
Width: 193
VWidth: 0
Flags: HMW
LayerCount: 2
Fore
SplineSet
174 700 m 1
 206 700 l 1
 85 0 l 1
 54 0 l 1
 174 700 l 1
EndSplineSet
EndChar

StartChar: C
Encoding: 67 67 3
Width: 664
VWidth: 0
Flags: HMW
LayerCount: 2
Fore
SplineSet
113 350 m 0
 88 184 173 28 348 26 c 0
 442 25 519 61 583 115 c 1
 576 70 l 1
 510 21 438 -8 344 -8 c 0
 148 -7 51 164 78 350 c 0
 108 546 266 707 464 708 c 0
 553 708 615 683 671 630 c 1
 664 586 l 1
 615 646 547 674 461 674 c 0
 283 673 141 528 113 350 c 0
EndSplineSet
EndChar

StartChar: E
Encoding: 69 69 4
Width: 506
VWidth: 0
Flags: HMW
LayerCount: 2
Fore
SplineSet
72 0 m 1
 77 31 l 1
 410 31 l 1
 406 0 l 1
 72 0 l 1
186 669 m 1
 192 700 l 1
 524 700 l 1
 520 669 l 1
 186 669 l 1
135 371 m 1
 141 402 l 1
 454 402 l 1
 450 371 l 1
 135 371 l 1
176 700 m 1
 210 700 l 1
 89 0 l 1
 57 0 l 1
 176 700 l 1
EndSplineSet
EndChar

StartChar: F
Encoding: 70 70 6
Width: 451
VWidth: 0
Flags: HMW
LayerCount: 2
Fore
SplineSet
187 668 m 1
 192 700 l 1
 486 700 l 1
 480 668 l 1
 187 668 l 1
134 364 m 1
 140 394 l 1
 424 394 l 1
 418 363 l 1
 134 364 l 1
176 700 m 1
 210 700 l 1
 89 0 l 1
 57 0 l 1
 176 700 l 1
EndSplineSet
EndChar

StartChar: G
Encoding: 71 71 7
Width: 745
VWidth: 0
Flags: HMW
LayerCount: 2
Fore
SplineSet
430 314 m 1
 435 344 l 1
 726 344 l 1
 692 164 555 -8 353 -8 c 0
 155 -8 51 164 78 350 c 0
 109 547 273 708 473 708 c 0
 589 708 673 650 722 558 c 1
 694 537 l 1
 655 621 576 676 470 676 c 0
 288 676 141 529 112 350 c 0
 87 182 176 25 356 25 c 0
 528 25 646 166 686 314 c 1
 430 314 l 1
EndSplineSet
EndChar

StartChar: T
Encoding: 84 84 8
Width: 427
VWidth: 0
Flags: HMW
LayerCount: 2
Fore
SplineSet
103 668 m 1
 108 700 l 1
 504 700 l 1
 499 668 l 1
 318 668 l 1
 202 0 l 1
 170 0 l 1
 284 668 l 1
 103 668 l 1
EndSplineSet
EndChar

StartChar: L
Encoding: 76 76 9
Width: 422
VWidth: 0
Flags: HMW
LayerCount: 2
Fore
SplineSet
176 700 m 1
 210 700 l 1
 94 31 l 1
 385 31 l 1
 380 0 l 1
 56 0 l 1
 176 700 l 1
EndSplineSet
EndChar

StartChar: D
Encoding: 68 68 10
Width: 628
VWidth: 0
Flags: HMW
LayerCount: 2
Fore
SplineSet
176 700 m 1
 210 700 l 1
 89 0 l 1
 57 0 l 1
 176 700 l 1
228 0 m 2
 74 0 l 1
 80 33 l 1
 232 33 l 2
 419 33 554 168 584 350 c 0
 611 522 526 667 342 667 c 2
 188 667 l 1
 193 700 l 1
 345 700 l 2
 546 700 645 540 617 350 c 0
 586 152 432 0 228 0 c 2
EndSplineSet
EndChar

StartChar: Q
Encoding: 81 81 11
Width: 753
VWidth: 0
Flags: HMW
LayerCount: 2
Fore
SplineSet
112 350 m 0
 87 183 174 25 354 24 c 0
 536 23 680 174 708 350 c 0
 733 517 648 675 468 676 c 0
 286 677 140 526 112 350 c 0
78 350 m 0
 108 546 270 708 470 708 c 0
 668 708 771 536 744 350 c 0
 714 154 551 -8 351 -8 c 0
 153 -8 51 164 78 350 c 0
406 300 m 1
 448 300 l 1
 702 0 l 1
 660 0 l 1
 406 300 l 1
EndSplineSet
EndChar

StartChar: A
Encoding: 65 65 12
Width: 599
VWidth: 0
Flags: HMW
LayerCount: 2
Fore
SplineSet
146 254 m 1
 160 284 l 1
 484 284 l 1
 488 254 l 1
 146 254 l 1
384 644 m 1
 174 273 l 1
 170 265 l 1
 20 0 l 1
 -17 0 l 1
 396 722 l 1
 561 0 l 1
 524 0 l 1
 468 263 l 1
 466 271 l 1
 384 644 l 1
EndSplineSet
EndChar

StartChar: R
Encoding: 82 82 13
Width: 480
VWidth: 0
Flags: HMW
LayerCount: 2
Fore
SplineSet
224 326 m 1
 259 326 l 1
 427 0 l 1
 388 0 l 1
 224 326 l 1
176 700 m 1
 210 700 l 1
 89 0 l 1
 57 0 l 1
 176 700 l 1
186 670 m 1
 191 700 l 1
 309 700 l 2
 434 700 526 626 506 502 c 0
 486 376 374 306 244 304 c 1
 123 304 l 1
 129 334 l 1
 246 334 l 1
 360 336 456 393 474 502 c 0
 492 609 414 668 306 670 c 1
 186 670 l 1
EndSplineSet
EndChar

StartChar: V
Encoding: 86 86 14
Width: 599
VWidth: 0
Flags: HMW
LayerCount: 2
Fore
SplineSet
290 58 m 1
 642 700 l 1
 680 700 l 1
 279 -22 l 1
 103 700 l 1
 139 700 l 1
 290 58 l 1
EndSplineSet
EndChar

StartChar: M
Encoding: 77 77 15
Width: 799
VWidth: 0
Flags: HMW
LayerCount: 2
Fore
SplineSet
226 614 m 1
 57 0 l 1
 24 0 l 1
 224 722 l 1
 399 161 l 1
 769 722 l 1
 720 0 l 1
 688 0 l 1
 730 612 l 1
 389 92 l 1
 226 614 l 1
EndSplineSet
EndChar

StartChar: W
Encoding: 87 87 16
Width: 933
VWidth: 0
Flags: HMW
LayerCount: 2
Fore
SplineSet
670 74 m 1
 972 700 l 1
 1009 700 l 1
 656 -22 l 1
 546 625 l 1
 236 -22 l 1
 108 700 l 1
 142 700 l 1
 251 74 l 1
 562 722 l 1
 670 74 l 1
EndSplineSet
EndChar

StartChar: N
Encoding: 78 78 17
Width: 698
VWidth: 0
Flags: HMW
LayerCount: 2
Fore
SplineSet
681 700 m 1
 714 700 l 1
 590 -20 l 1
 185 631 l 1
 76 0 l 1
 43 0 l 1
 167 720 l 1
 572 66 l 1
 681 700 l 1
EndSplineSet
EndChar

StartChar: a
Encoding: 97 97 18
Width: 533
VWidth: 0
Flags: HMW
LayerCount: 2
Fore
SplineSet
482 460 m 1
 511 460 l 1
 431 0 l 1
 402 0 l 1
 482 460 l 1
52 230 m 0
 72 363 176 471 304 470 c 0
 428 469 471 342 455 230 c 0
 437 110 348 -10 224 -10 c 0
 96 -10 35 104 52 230 c 0
84 230 m 0
 68 120 119 19 231 20 c 0
 335 21 424 125 441 230 c 0
 455 328 409 438 306 440 c 0
 194 442 102 346 84 230 c 0
EndSplineSet
Substitution2: "alt a" a.alt
EndChar

StartChar: X
Encoding: 88 88 19
Width: 500
VWidth: 0
Flags: HMW
LayerCount: 2
Fore
SplineSet
522 699 m 1
 562 699 l 1
 309 366 l 1
 468 0 l 1
 430 0 l 1
 288 336 l 1
 38 0 l 1
 -2 0 l 1
 276 368 l 1
 132 700 l 1
 170 700 l 1
 297 397 l 1
 522 699 l 1
EndSplineSet
EndChar

StartChar: K
Encoding: 75 75 20
Width: 472
VWidth: 0
Flags: HMW
LayerCount: 2
Fore
SplineSet
174 700 m 1
 206 700 l 1
 86 0 l 1
 54 0 l 1
 174 700 l 1
497 699 m 1
 540 699 l 1
 180 371 l 1
 434 0 l 1
 393 0 l 1
 141 373 l 1
 497 699 l 1
EndSplineSet
EndChar

StartChar: Y
Encoding: 89 89 21
Width: 507
VWidth: 0
Flags: HMW
LayerCount: 2
Fore
SplineSet
552 699 m 1
 590 699 l 1
 286 277 l 1
 239 0 l 1
 206 0 l 1
 255 278 l 1
 104 700 l 1
 140 700 l 1
 275 310 l 1
 552 699 l 1
EndSplineSet
EndChar

StartChar: B
Encoding: 66 66 22
Width: 498
VWidth: 0
Flags: HMW
LayerCount: 2
Fore
SplineSet
147 382 m 1
 150 400 l 1
 252 401 l 1
 340 403 423 444 438 534 c 0
 453 619 392 670 300 670 c 2
 204 670 l 1
 94 30 l 1
 198 30 l 2
 311 30 401 91 419 203 c 0
 435 303 354 372 258 372 c 2
 145 372 l 1
 148 392 l 1
 266 392 l 2
 369 392 469 320 452 202 c 0
 433 70 325 0 195 0 c 2
 56 0 l 1
 176 700 l 1
 303 700 l 2
 413 700 489 639 472 535 c 0
 455 432 364 384 258 382 c 1
 147 382 l 1
EndSplineSet
EndChar

StartChar: Z
Encoding: 90 90 23
Width: 521
VWidth: 0
Flags: HMW
LayerCount: 2
Fore
SplineSet
124 668 m 1
 129 700 l 1
 600 700 l 1
 53 32 l 1
 472 32 l 1
 466 0 l 1
 -11 0 l 1
 536 668 l 1
 124 668 l 1
EndSplineSet
EndChar

StartChar: o
Encoding: 111 111 24
Width: 536
VWidth: 0
Flags: HMW
LayerCount: 2
Fore
SplineSet
58 230 m 0
 76 362 188 470 322 470 c 0
 454 470 531 356 514 230 c 0
 496 98 384 -10 250 -10 c 0
 118 -10 41 104 58 230 c 0
90 230 m 0
 75 120 139 20 253 20 c 0
 369 20 467 115 484 230 c 0
 499 340 434 440 320 440 c 0
 204 440 107 345 90 230 c 0
EndSplineSet
EndChar

StartChar: J
Encoding: 74 74 25
Width: 203
VWidth: 0
Flags: HMW
LayerCount: 2
Fore
SplineSet
-158 -142 m 1
 -137 -166 -108 -188 -68 -188 c 0
 7 -188 40 -132 52 -50 c 2
 181 700 l 1
 212 700 l 1
 82 -60 l 2
 68 -154 22 -221 -72 -220 c 0
 -120 -220 -160 -192 -180 -166 c 1
 -158 -142 l 1
EndSplineSet
EndChar

StartChar: t
Encoding: 116 116 26
Width: 198
VWidth: 0
Flags: HMW
LayerCount: 2
Fore
SplineSet
65 460 m 1
 241 460 l 1
 236 430 l 1
 59 430 l 1
 65 460 l 1
163 620 m 1
 194 620 l 1
 87 0 l 1
 57 0 l 1
 163 620 l 1
EndSplineSet
EndChar

StartChar: d
Encoding: 100 100 27
Width: 533
VWidth: 0
Flags: HMW
LayerCount: 2
Fore
SplineSet
534 780 m 1
 565 780 l 1
 431 0 l 1
 401 0 l 1
 534 780 l 1
52 230 m 0
 72 363 176 471 304 470 c 0
 428 469 471 342 455 230 c 0
 437 110 348 -10 224 -10 c 0
 96 -10 35 104 52 230 c 0
84 230 m 0
 68 120 119 19 231 20 c 0
 335 21 424 125 441 230 c 0
 455 328 409 438 306 440 c 0
 194 442 102 346 84 230 c 0
EndSplineSet
EndChar

StartChar: l
Encoding: 108 108 28
Width: 189
VWidth: 0
Flags: HMW
LayerCount: 2
Fore
SplineSet
186 780 m 1
 216 780 l 1
 82 0 l 1
 52 0 l 1
 186 780 l 1
EndSplineSet
EndChar

StartChar: i
Encoding: 105 105 29
Width: 204
VWidth: 0
Flags: HMW
LayerCount: 2
Fore
SplineSet
168 682 m 0
 168 695 178 704 192 704 c 0
 206 704 216 695 216 682 c 0
 216 669 206 658 192 658 c 0
 178 658 168 669 168 682 c 0
139 460 m 1
 170 460 l 1
 90 0 l 1
 60 0 l 1
 139 460 l 1
EndSplineSet
EndChar

StartChar: r
Encoding: 114 114 30
Width: 296
VWidth: 0
Flags: HMW
LayerCount: 2
Fore
SplineSet
162 460 m 1
 82 0 l 1
 51 0 l 1
 131 460 l 1
 162 460 l 1
314 420 m 1
 298 432 281 440 261 440 c 0
 183 442 144 355 130 281 c 1
 115 281 l 1
 131 373 182 472 270 470 c 0
 295 470 315 458 334 444 c 1
 314 420 l 1
EndSplineSet
EndChar

StartChar: c
Encoding: 99 99 31
Width: 470
VWidth: 0
Flags: HMW
LayerCount: 2
Fore
SplineSet
84 230 m 0
 69 120 135 21 249 20 c 0
 318 20 376 54 412 87 c 1
 406 48 l 1
 368 18 311 -10 246 -10 c 0
 114 -10 37 104 54 230 c 0
 72 362 184 470 318 470 c 0
 380 470 432 445 462 412 c 1
 456 373 l 1
 430 410 380 440 316 440 c 0
 200 440 101 345 84 230 c 0
EndSplineSet
EndChar

StartChar: b
Encoding: 98 98 32
Width: 533
VWidth: 0
Flags: HMW
LayerCount: 2
Fore
SplineSet
212 780 m 1
 77 0 l 1
 46 0 l 1
 180 780 l 1
 212 780 l 1
506 230 m 0
 486 97 382 -11 254 -10 c 0
 130 -9 87 118 103 230 c 0
 121 350 209 470 333 470 c 0
 461 470 523 356 506 230 c 0
474 230 m 0
 490 340 438 441 326 440 c 0
 222 439 134 335 117 230 c 0
 103 132 149 22 252 20 c 0
 364 18 456 114 474 230 c 0
EndSplineSet
EndChar

StartChar: p
Encoding: 112 112 33
Width: 533
VWidth: 0
Flags: HMW
LayerCount: 2
Fore
SplineSet
40 -220 m 1
 8 -220 l 1
 126 460 l 1
 156 460 l 1
 40 -220 l 1
506 230 m 0
 486 97 382 -11 254 -10 c 0
 130 -9 87 118 103 230 c 0
 121 350 209 470 333 470 c 0
 461 470 523 356 506 230 c 0
474 230 m 0
 490 340 438 441 326 440 c 0
 222 439 134 335 117 230 c 0
 103 132 149 22 252 20 c 0
 364 18 456 114 474 230 c 0
EndSplineSet
EndChar

StartChar: q
Encoding: 113 113 34
Width: 533
VWidth: 0
Flags: HMW
LayerCount: 2
Fore
SplineSet
363 -220 m 1
 480 460 l 1
 511 460 l 1
 393 -220 l 1
 363 -220 l 1
52 230 m 0
 72 363 176 471 304 470 c 0
 428 469 471 342 455 230 c 0
 437 110 348 -10 224 -10 c 0
 96 -10 35 104 52 230 c 0
84 230 m 0
 68 120 119 19 231 20 c 0
 335 21 424 125 441 230 c 0
 455 328 409 438 306 440 c 0
 194 442 102 346 84 230 c 0
EndSplineSet
EndChar

StartChar: h
Encoding: 104 104 35
Width: 475
VWidth: 0
Flags: HMW
LayerCount: 2
Fore
SplineSet
216 780 m 1
 82 0 l 1
 52 0 l 1
 186 780 l 1
 216 780 l 1
392 308 m 2
 401 378 384 439 304 440 c 0
 216 441 149 361 130 281 c 1
 118 281 l 1
 138 379 210 470 312 470 c 0
 406 470 433 397 422 311 c 1
 368 0 l 1
 338 0 l 1
 392 308 l 2
EndSplineSet
EndChar

StartChar: n
Encoding: 110 110 36
Width: 475
VWidth: 0
Flags: HMW
LayerCount: 2
Fore
SplineSet
392 308 m 2
 401 378 384 439 304 440 c 0
 219 441 147 370 134 288 c 2
 82 0 l 1
 51 0 l 1
 131 460 l 1
 162 460 l 1
 144 352 l 1
 172 420 235 470 312 470 c 0
 407 470 434 395 422 311 c 2
 368 0 l 1
 338 0 l 1
 392 308 l 2
EndSplineSet
EndChar

StartChar: m
Encoding: 109 109 37
Width: 695
VWidth: 0
Flags: HMW
LayerCount: 2
Fore
SplineSet
642 311 m 2
 589 0 l 1
 558 0 l 1
 612 308 l 2
 620 373 610 439 540 440 c 0
 464 442 398 366 386 287 c 2
 336 0 l 1
 306 0 l 1
 358 308 l 2
 366 373 356 439 286 440 c 0
 212 442 146 369 134 289 c 2
 82 0 l 1
 51 0 l 1
 131 460 l 1
 162 460 l 1
 144 354 l 1
 170 418 228 471 295 470 c 0
 367 469 391 412 391 352 c 1
 424 423 479 471 548 470 c 0
 633 469 652 391 642 311 c 2
EndSplineSet
EndChar

StartChar: k
Encoding: 107 107 38
Width: 380
VWidth: 0
Flags: HMW
LayerCount: 2
Fore
SplineSet
180 780 m 1
 212 780 l 1
 77 0 l 1
 48 0 l 1
 180 780 l 1
367 459 m 1
 408 459 l 1
 151 268 l 1
 347 0 l 1
 310 0 l 1
 114 271 l 1
 367 459 l 1
EndSplineSet
EndChar

StartChar: u
Encoding: 117 117 39
Width: 475
VWidth: 0
Flags: HMW
LayerCount: 2
Fore
SplineSet
110 159 m 2
 100 86 114 20 196 20 c 0
 282 19 354 95 366 173 c 2
 418 460 l 1
 448 460 l 1
 369 0 l 1
 338 0 l 1
 355 105 l 1
 323 38 265 -11 188 -10 c 0
 91 -10 66 68 78 156 c 2
 132 460 l 1
 162 460 l 1
 110 159 l 2
EndSplineSet
EndChar

StartChar: e
Encoding: 101 101 40
Width: 500
VWidth: 0
Flags: HMW
LayerCount: 2
Fore
SplineSet
229 -10 m 0
 124 -10 52 72 52 198 c 0
 52 336 169 470 304 470 c 0
 406 470 476 387 476 276 c 0
 476 258 471 236 465 222 c 1
 76 222 l 1
 76 250 l 1
 446 250 l 1
 432 230 l 1
 437 242 444 260 444 282 c 0
 444 372 388 442 302 442 c 0
 184 442 84 322 84 200 c 0
 84 94 140 20 232 20 c 0
 308 20 370 56 418 124 c 1
 442 107 l 1
 388 32 317 -10 229 -10 c 0
EndSplineSet
EndChar

StartChar: g
Encoding: 103 103 41
Width: 533
VWidth: 0
Flags: HMW
LayerCount: 2
Fore
SplineSet
22 -30 m 1
 52 -30 l 1
 42 -122 86 -199 188 -200 c 0
 296 -201 385 -114 403 10 c 2
 480 460 l 1
 511 460 l 1
 434 10 l 2
 414 -129 316 -230 188 -230 c 0
 68 -230 10 -140 22 -30 c 1
52 230 m 0
 72 363 176 471 304 470 c 0
 428 469 471 342 455 230 c 0
 437 110 348 -10 224 -10 c 0
 96 -10 35 104 52 230 c 0
84 230 m 0
 68 120 119 20 231 20 c 0
 336 20 425 127 441 234 c 0
 455 328 408 438 306 440 c 0
 194 442 102 346 84 230 c 0
EndSplineSet
EndChar

StartChar: f
Encoding: 102 102 42
Width: 271
VWidth: 0
Flags: HMW
LayerCount: 2
Fore
SplineSet
96 460 m 1
 296 460 l 1
 291 430 l 1
 92 430 l 1
 96 460 l 1
364 718 m 1
 350 738 332 757 304 758 c 0
 240 759 212 695 202 641 c 2
 92 0 l 1
 61 0 l 1
 171 644 l 2
 183 718 226 790 308 788 c 0
 346 787 369 764 385 742 c 1
 364 718 l 1
EndSplineSet
EndChar

StartChar: s
Encoding: 115 115 43
Width: 391
VWidth: 0
Flags: HMW
LayerCount: 2
Fore
SplineSet
68 134 m 1
 78 76 108 18 188 18 c 0
 250 18 302 60 308 120 c 0
 314 178 262 206 208 226 c 0
 146 248 90 276 98 354 c 0
 105 427 172 468 240 468 c 0
 314 468 353 424 371 372 c 1
 346 358 l 1
 330 404 300 440 238 440 c 0
 183 440 136 409 129 357 c 0
 121 293 168 271 225 251 c 0
 288 227 344 195 338 122 c 0
 331 46 268 -10 186 -10 c 0
 92 -10 50 57 42 122 c 1
 68 134 l 1
EndSplineSet
EndChar

StartChar: y
Encoding: 121 121 44
Width: 416
VWidth: 0
Flags: HMW
LayerCount: 2
Fore
SplineSet
462 460 m 1
 54 -220 l 1
 20 -219 l 1
 173 35 l 1
 58 460 l 1
 92 460 l 1
 201 44 l 1
 184 46 l 1
 428 460 l 1
 462 460 l 1
EndSplineSet
EndChar

StartChar: w
Encoding: 119 119 45
Width: 618
VWidth: 0
Flags: HMW
LayerCount: 2
Fore
SplineSet
64 460 m 1
 96 460 l 1
 154 62 l 1
 360 482 l 1
 430 61 l 1
 626 460 l 1
 660 460 l 1
 418 -22 l 1
 347 398 l 1
 138 -22 l 1
 64 460 l 1
EndSplineSet
EndChar

StartChar: v
Encoding: 118 118 46
Width: 413
VWidth: 0
Flags: HMW
LayerCount: 2
Fore
SplineSet
60 460 m 1
 94 460 l 1
 196 49 l 1
 426 460 l 1
 462 460 l 1
 186 -22 l 1
 60 460 l 1
EndSplineSet
EndChar

StartChar: x
Encoding: 120 120 47
Width: 380
VWidth: 0
Flags: HMW
LayerCount: 2
Fore
SplineSet
381 459 m 1
 418 459 l 1
 228 236 l 1
 356 0 l 1
 322 0 l 1
 206 213 l 1
 26 0 l 1
 -12 0 l 1
 193 238 l 1
 70 460 l 1
 105 460 l 1
 214 262 l 1
 381 459 l 1
EndSplineSet
EndChar

StartChar: z
Encoding: 122 122 48
Width: 425
VWidth: 0
Flags: HMW
LayerCount: 2
Fore
SplineSet
390 430 m 1
 86 430 l 1
 92 460 l 1
 454 460 l 1
 53 30 l 1
 380 30 l 1
 375 0 l 1
 -11 0 l 1
 390 430 l 1
EndSplineSet
EndChar

StartChar: j
Encoding: 106 106 49
Width: 194
VWidth: 0
Flags: HMW
LayerCount: 2
Fore
SplineSet
158 682 m 0
 158 695 167 704 181 704 c 0
 195 704 205 695 205 682 c 0
 205 669 195 658 181 658 c 0
 167 658 158 669 158 682 c 0
-124 -150 m 1
 -112 -168 -92 -188 -64 -188 c 0
 0 -188 29 -124 38 -72 c 2
 129 460 l 1
 160 460 l 1
 68 -76 l 2
 56 -148 16 -220 -66 -220 c 0
 -104 -220 -128 -197 -145 -174 c 1
 -124 -150 l 1
EndSplineSet
EndChar

StartChar: P
Encoding: 80 80 50
Width: 485
VWidth: 0
Flags: HMW
LayerCount: 2
Fore
SplineSet
176 700 m 1
 210 700 l 1
 89 0 l 1
 57 0 l 1
 176 700 l 1
189 669 m 1
 195 700 l 1
 316 700 l 2
 438 700 517 614 498 494 c 0
 478 370 374 290 248 290 c 2
 125 290 l 1
 130 321 l 1
 252 321 l 1
 361 321 447 388 465 495 c 0
 482 599 419 668 313 668 c 2
 189 669 l 1
EndSplineSet
EndChar

StartChar: U
Encoding: 85 85 51
Width: 573
VWidth: 0
Flags: HMW
LayerCount: 2
Fore
SplineSet
172 700 m 1
 204 700 l 1
 122 223 l 2
 108 116 147 22 262 22 c 0
 380 22 454 111 472 223 c 2
 554 700 l 1
 588 700 l 1
 506 223 l 2
 485 93 402 -10 260 -10 c 0
 124 -10 73 99 90 223 c 2
 172 700 l 1
EndSplineSet
EndChar

StartChar: S
Encoding: 83 83 52
Width: 490
VWidth: 0
Flags: HMW
LayerCount: 2
Fore
SplineSet
75 198 m 1
 90 109 128 25 236 24 c 0
 338 23 409 94 420 180 c 0
 430 273 366 318 291 352 c 0
 212 388 129 439 140 542 c 0
 150 637 234 708 338 708 c 0
 442 708 491 635 507 563 c 1
 478 549 l 1
 464 610 427 676 334 676 c 0
 250 676 184 622 174 546 c 0
 163 460 230 412 316 376 c 0
 392 342 464 290 454 184 c 0
 443 76 352 -9 234 -8 c 0
 114 -7 63 86 47 182 c 1
 75 198 l 1
EndSplineSet
EndChar

StartChar: at
Encoding: 64 64 53
Width: 747
VWidth: 0
Flags: HMW
LayerCount: 2
Fore
SplineSet
252 320 m 0
 243 254 267 194 335 192 c 0
 417 190 491 278 504 370 c 0
 512 430 492 498 426 500 c 0
 343 503 265 418 252 320 c 0
221 320 m 0
 236 437 331 531 429 528 c 0
 510 526 532 442 522 368 c 0
 507 264 425 161 328 162 c 0
 248 163 211 237 221 320 c 0
60 320 m 0
 94 530 273 709 496 708 c 0
 688 707 780 546 754 390 c 0
 738 259 636 146 539 152 c 0
 471 156 468 220 484 284 c 1
 481 284 l 1
 559 520 l 1
 591 520 l 1
 510 289 l 2
 508 281 504 266 502 256 c 0
 498 225 498 184 544 180 c 0
 623 171 711 283 724 390 c 0
 749 533 669 680 493 682 c 0
 284 684 122 516 90 320 c 0
 65 154 143 21 322 19 c 0
 412 18 490 42 556 74 c 1
 566 50 l 1
 497 18 420 -8 320 -8 c 0
 122 -6 32 138 60 320 c 0
EndSplineSet
EndChar

StartChar: period
Encoding: 46 46 54
Width: 263
VWidth: 0
Flags: HMW
LayerCount: 2
Fore
SplineSet
83 12 m 0
 83 26 94 36 107 36 c 0
 120 36 131 26 131 12 c 0
 131 -2 120 -12 107 -12 c 0
 94 -12 83 -2 83 12 c 0
EndSplineSet
EndChar

StartChar: comma
Encoding: 44 44 55
Width: 276
VWidth: 0
Flags: HMW
LayerCount: 2
Fore
SplineSet
152 98 m 1
 181 85 l 1
 31 -163 l 1
 10 -155 l 1
 152 98 l 1
EndSplineSet
EndChar

StartChar: colon
Encoding: 58 58 56
Width: 291
VWidth: 0
Flags: HMW
LayerCount: 2
Fore
SplineSet
83 12 m 0
 83 26 94 36 107 36 c 0
 120 36 131 26 131 12 c 0
 131 -2 120 -12 107 -12 c 0
 94 -12 83 -2 83 12 c 0
144 370 m 0
 144 384 155 394 168 394 c 0
 181 394 192 384 192 370 c 0
 192 356 181 346 168 346 c 0
 155 346 144 356 144 370 c 0
EndSplineSet
EndChar

StartChar: semicolon
Encoding: 59 59 57
Width: 283
VWidth: 0
Flags: HMW
LayerCount: 2
Fore
SplineSet
173 370 m 0
 173 384 184 394 197 394 c 0
 210 394 221 384 221 370 c 0
 221 356 210 346 197 346 c 0
 184 346 173 356 173 370 c 0
152 98 m 1
 181 85 l 1
 31 -163 l 1
 10 -155 l 1
 152 98 l 1
EndSplineSet
EndChar

StartChar: quotedbl
Encoding: 34 34 58
Width: 408
VWidth: 0
Flags: HMW
LayerCount: 2
Fore
SplineSet
224 700 m 1
 261 700 l 1
 152 415 l 1
 130 414 l 1
 224 700 l 1
398 700 m 1
 436 700 l 1
 326 415 l 1
 304 414 l 1
 398 700 l 1
EndSplineSet
EndChar

StartChar: exclam
Encoding: 33 33 59
Width: 264
VWidth: 0
Flags: HMW
LayerCount: 2
Fore
SplineSet
206 700 m 1
 245 700 l 1
 151 200 l 1
 129 200 l 1
 206 700 l 1
83 12 m 0
 83 26 94 37 107 37 c 0
 120 37 132 26 132 12 c 0
 132 -2 120 -12 107 -12 c 0
 94 -12 83 -2 83 12 c 0
EndSplineSet
EndChar

StartChar: quotesingle
Encoding: 39 39 60
Width: 233
VWidth: 0
Flags: HMW
LayerCount: 2
Fore
SplineSet
224 700 m 1
 261 700 l 1
 152 415 l 1
 130 414 l 1
 224 700 l 1
EndSplineSet
EndChar

StartChar: numbersign
Encoding: 35 35 61
Width: 563
VWidth: 0
Flags: HMW
LayerCount: 2
Fore
SplineSet
122 450 m 1
 126 476 l 1
 584 476 l 1
 580 450 l 1
 462 450 l 1
 454 450 l 1
 258 450 l 1
 251 450 l 1
 122 450 l 1
46 228 m 1
 50 255 l 1
 169 255 l 1
 177 255 l 1
 373 255 l 1
 384 255 l 1
 508 255 l 1
 504 228 l 1
 46 228 l 1
544 700 m 1
 575 700 l 1
 289 0 l 1
 258 0 l 1
 356 239 l 1
 360 246 l 1
 446 459 l 1
 448 467 l 1
 544 700 l 1
340 700 m 1
 371 700 l 1
 276 468 l 1
 273 460 l 1
 184 244 l 1
 183 238 l 1
 85 0 l 1
 56 0 l 1
 340 700 l 1
EndSplineSet
EndChar

StartChar: hyphen
Encoding: 45 45 62
Width: 203
VWidth: 0
Flags: HMW
LayerCount: 2
Fore
SplineSet
20 246 m 1
 24 275 l 1
 220 275 l 1
 214 246 l 1
 20 246 l 1
EndSplineSet
EndChar

StartChar: dollar
Encoding: 36 36 63
Width: 562
VWidth: 0
Flags: HMW
LayerCount: 2
Fore
SplineSet
353 818 m 1
 382 818 l 1
 361 691 l 1
 333 691 l 1
 353 818 l 1
230 12 m 1
 259 12 l 1
 239 -112 l 1
 210 -112 l 1
 230 12 l 1
486 538 m 1
 472 605 435 675 346 676 c 0
 264 677 193 621 181 545 c 0
 167 455 249 409 325 376 c 0
 405 342 476 283 463 180 c 0
 448 74 371 -9 245 -8 c 0
 127 -7 75 91 55 190 c 1
 86 206 l 1
 104 117 143 25 249 24 c 0
 353 23 416 90 429 178 c 0
 442 270 370 320 296 352 c 0
 218 386 133 444 147 548 c 0
 161 641 251 708 348 708 c 0
 451 708 500 628 514 552 c 1
 486 538 l 1
EndSplineSet
EndChar

StartChar: bar
Encoding: 124 124 64
Width: 222
VWidth: 0
Flags: HMW
LayerCount: 2
Fore
SplineSet
201 784 m 1
 230 784 l 1
 75 -214 l 1
 46 -214 l 1
 201 784 l 1
EndSplineSet
EndChar

StartChar: zero
Encoding: 48 48 65
Width: 548
VWidth: 0
Flags: HMW
LayerCount: 2
Fore
SplineSet
114 350 m 0
 98 214 107 23 249 22 c 0
 391 21 478 197 500 350 c 0
 516 486 506 677 364 678 c 0
 222 679 136 503 114 350 c 0
81 350 m 0
 105 523 206 711 367 710 c 0
 530 709 550 506 532 350 c 0
 508 177 407 -11 246 -10 c 0
 83 -9 63 194 81 350 c 0
EndSplineSet
Substitution2: "Tabular Numbers lookup" uniFF10
EndChar

StartChar: one
Encoding: 49 49 66
Width: 409
VWidth: 0
Flags: HMW
LayerCount: 2
Fore
SplineSet
167 626 m 1
 173 661 l 1
 374 706 l 1
 252 0 l 1
 220 0 l 1
 335 665 l 1
 167 626 l 1
EndSplineSet
Substitution2: "Tabular Numbers lookup" uniFF11
EndChar

StartChar: two
Encoding: 50 50 67
Width: 514
VWidth: 0
Flags: HMW
LayerCount: 2
Fore
SplineSet
6 0 m 1
 370 340 l 2
 422 389 473 440 484 515 c 0
 497 592 455 679 351 680 c 0
 234 681 161 575 140 460 c 1
 108 460 l 1
 131 594 217 711 353 710 c 0
 477 709 532 607 518 516 c 0
 506 436 453 374 396 322 c 2
 80 32 l 1
 464 31 l 1
 459 0 l 1
 6 0 l 1
EndSplineSet
Substitution2: "Tabular Numbers lookup" uniFF12
EndChar

StartChar: four
Encoding: 52 52 68
Width: 545
VWidth: 0
Flags: HMW
LayerCount: 2
Fore
SplineSet
20 141 m 1
 488 699 l 1
 500 700 l 1
 379 0 l 1
 347 0 l 1
 373 152 l 1
 374 159 l 1
 453 617 l 1
 80 170 l 1
 388 170 l 1
 395 170 l 1
 515 170 l 1
 510 140 l 1
 20 141 l 1
EndSplineSet
Substitution2: "Tabular Numbers lookup" uniFF14
EndChar

StartChar: slash
Encoding: 47 47 69
Width: 472
VWidth: 0
Flags: HMW
LayerCount: 2
Fore
SplineSet
519 700 m 1
 552 699 l 1
 -6 -150 l 1
 -38 -149 l 1
 519 700 l 1
EndSplineSet
EndChar

StartChar: backslash
Encoding: 92 92 70
Width: 445
VWidth: 0
Flags: HMW
LayerCount: 2
Fore
SplineSet
106 700 m 1
 140 700 l 1
 404 0 l 1
 371 0 l 1
 106 700 l 1
EndSplineSet
EndChar

StartChar: eight
Encoding: 56 56 71
Width: 509
VWidth: 0
Flags: HMW
LayerCount: 2
Fore
SplineSet
146 538 m 0
 161 629 247 710 347 710 c 0
 445 710 508 626 494 538 c 0
 479 442 387 364 291 364 c 0
 197 364 132 444 146 538 c 0
176 535 m 0
 165 459 220 387 292 386 c 0
 366 385 449 455 462 535 c 0
 474 609 428 679 345 680 c 0
 261 681 189 613 176 535 c 0
64 186 m 0
 81 294 183 377 290 377 c 0
 395 377 469 292 454 186 c 0
 437 78 346 -10 227 -10 c 0
 109 -10 48 82 64 186 c 0
96 190 m 0
 81 99 130 21 229 20 c 0
 329 19 409 95 424 190 c 0
 437 277 376 355 289 356 c 0
 201 357 111 280 96 190 c 0
EndSplineSet
Substitution2: "Tabular Numbers lookup" uniFF18
EndChar

StartChar: nine
Encoding: 57 57 72
Width: 531
VWidth: 0
Flags: HMW
LayerCount: 2
Fore
SplineSet
509 477 m 0
 524 582 467 680 354 680 c 0
 240 680 152 587 136 477 c 0
 122 378 182 284 284 283 c 0
 402 282 492 375 509 477 c 0
195 0 m 1
 154 0 l 1
 433 328 l 1
 436 326 l 1
 392 284 338 257 273 258 c 0
 157 260 90 366 104 477 c 0
 121 607 223 710 357 710 c 0
 489 710 557 601 540 477 c 0
 531 419 500 362 466 322 c 2
 195 0 l 1
EndSplineSet
Substitution2: "Tabular Numbers lookup" uniFF19
EndChar

StartChar: three
Encoding: 51 51 73
Width: 532
VWidth: 0
Flags: HMW
LayerCount: 2
Fore
SplineSet
280 358 m 1
 283 380 l 1
 374 386 473 436 489 530 c 0
 501 606 455 679 364 680 c 0
 268 681 204 610 185 526 c 1
 154 527 l 1
 175 629 252 710 366 710 c 0
 476 710 535 622 521 530 c 0
 503 420 392 363 280 358 c 1
254 -10 m 0
 128 -10 63 77 73 185 c 1
 105 184 l 1
 97 92 148 22 256 22 c 0
 358 22 441 88 455 181 c 0
 471 291 369 344 278 350 c 1
 282 371 l 1
 393 366 505 305 487 178 c 0
 471 68 372 -10 254 -10 c 0
EndSplineSet
Substitution2: "Tabular Numbers lookup" uniFF13
EndChar

StartChar: five
Encoding: 53 53 74
Width: 542
VWidth: 0
Flags: HMW
LayerCount: 2
Fore
SplineSet
504 230 m 0
 486 87 376 -10 243 -10 c 0
 138 -10 80 51 50 138 c 1
 80 155 l 1
 105 77 155 22 245 22 c 0
 361 22 454 108 471 230 c 0
 485 331 429 420 327 422 c 0
 245 423 180 384 120 328 c 1
 267 700 l 1
 588 700 l 1
 583 670 l 1
 287 670 l 1
 172 384 l 1
 212 421 272 453 340 452 c 0
 457 451 519 346 504 230 c 0
EndSplineSet
Substitution2: "Tabular Numbers lookup" uniFF15
EndChar

StartChar: six
Encoding: 54 54 75
Width: 531
VWidth: 0
Flags: HMW
LayerCount: 2
Fore
SplineSet
96 223 m 0
 81 118 138 20 251 20 c 0
 365 20 454 113 470 223 c 0
 484 322 424 416 322 417 c 0
 204 418 113 325 96 223 c 0
410 699 m 1
 452 699 l 1
 172 372 l 1
 169 374 l 1
 213 416 267 443 332 442 c 0
 448 440 515 334 501 223 c 0
 484 93 382 -10 248 -10 c 0
 116 -10 48 99 65 223 c 0
 74 281 105 338 139 378 c 2
 410 699 l 1
EndSplineSet
Substitution2: "Tabular Numbers lookup" uniFF16
EndChar

StartChar: seven
Encoding: 55 55 76
Width: 502
VWidth: 0
Flags: HMW
LayerCount: 2
Fore
SplineSet
118 669 m 1
 123 700 l 1
 586 700 l 1
 128 0 l 1
 94 0 l 1
 532 668 l 1
 118 669 l 1
EndSplineSet
Substitution2: "Tabular Numbers lookup" uniFF17
EndChar

StartChar: plus
Encoding: 43 43 77
Width: 552
VWidth: 0
Flags: HMW
LayerCount: 2
Fore
SplineSet
76 240 m 1
 82 270 l 1
 503 270 l 1
 497 240 l 1
 76 240 l 1
313 486 m 1
 346 486 l 1
 266 24 l 1
 234 24 l 1
 313 486 l 1
EndSplineSet
EndChar

StartChar: equal
Encoding: 61 61 78
Width: 596
VWidth: 0
Flags: HMW
LayerCount: 2
Fore
SplineSet
66 172 m 1
 70 201 l 1
 542 201 l 1
 536 172 l 1
 66 172 l 1
88 304 m 1
 92 334 l 1
 564 334 l 1
 559 304 l 1
 88 304 l 1
EndSplineSet
EndChar

StartChar: percent
Encoding: 37 37 79
Width: 694
VWidth: 0
Flags: HMW
LayerCount: 2
Fore
SplineSet
102 558 m 0
 115 640 184 710 273 710 c 0
 362 710 408 636 396 556 c 0
 383 474 313 404 224 404 c 0
 135 404 90 478 102 558 c 0
130 557 m 0
 120 494 153 431 226 430 c 0
 299 429 356 491 367 557 c 0
 377 620 343 682 271 683 c 0
 198 684 141 623 130 557 c 0
364 144 m 0
 377 226 447 296 536 296 c 0
 625 296 670 222 658 142 c 0
 645 60 576 -10 487 -10 c 0
 398 -10 352 64 364 144 c 0
393 143 m 0
 383 80 415 17 488 16 c 0
 561 15 619 77 630 143 c 0
 640 206 606 268 534 269 c 0
 461 270 404 209 393 143 c 0
645 699 m 1
 676 699 l 1
 115 0 l 1
 84 0 l 1
 645 699 l 1
EndSplineSet
EndChar

StartChar: ampersand
Encoding: 38 38 80
Width: 655
VWidth: 0
Flags: HMW
LayerCount: 2
Fore
SplineSet
236 414 m 2
 207 458 176 505 184 570 c 0
 196 650 265 711 357 710 c 0
 445 709 491 640 480 568 c 0
 467 492 396 439 312 391 c 0
 228 343 98 300 80 178 c 0
 66 82 134 21 230 20 c 0
 397 18 510 191 616 315 c 1
 638 300 l 1
 526 170 410 -11 226 -10 c 0
 116 -9 33 64 48 176 c 0
 66 312 204 362 291 410 c 0
 367 452 436 502 448 568 c 0
 457 623 426 681 355 682 c 0
 280 683 225 632 215 570 c 0
 207 514 233 473 261 432 c 2
 562 0 l 1
 526 0 l 1
 236 414 l 2
EndSplineSet
EndChar

StartChar: question
Encoding: 63 63 81
Width: 529
VWidth: 0
Flags: HMW
LayerCount: 2
Fore
SplineSet
488 514 m 0
 504 605 451 680 348 680 c 0
 266 680 207 635 159 577 c 1
 135 594 l 1
 190 659 255 711 353 710 c 0
 471 709 537 620 520 514 c 0
 500 404 390 333 272 323 c 1
 242 170 l 1
 219 170 l 1
 240 345 l 1
 248 345 l 1
 365 350 468 415 488 514 c 0
176 12 m 0
 176 25 186 36 200 36 c 0
 214 36 224 25 224 12 c 0
 224 -2 213 -12 200 -12 c 0
 186 -12 176 -2 176 12 c 0
EndSplineSet
EndChar

StartChar: parenleft
Encoding: 40 40 82
Width: 252
VWidth: 0
Flags: HMW
LayerCount: 2
Fore
SplineSet
302 779 m 1
 328 779 l 1
 236 627 175 463 148 290 c 0
 124 126 130 -38 176 -200 c 1
 152 -200 l 1
 99 -42 90 126 114 290 c 0
 141 464 203 632 302 779 c 1
EndSplineSet
EndChar

StartChar: parenright
Encoding: 41 41 83
Width: 252
VWidth: 0
Flags: HMW
LayerCount: 2
Fore
SplineSet
6 -199 m 1
 -19 -199 l 1
 73 -47 133 117 160 290 c 0
 184 454 178 618 132 780 c 1
 157 780 l 1
 210 622 218 454 194 290 c 0
 167 116 105 -52 6 -199 c 1
EndSplineSet
EndChar

StartChar: asterisk
Encoding: 42 42 84
Width: 574
VWidth: 0
Flags: HMW
LayerCount: 2
Fore
SplineSet
524 588 m 1
 527 560 l 1
 350 510 l 1
 346 529 l 1
 524 588 l 1
440 381 m 1
 414 364 l 1
 340 512 l 1
 356 525 l 1
 440 381 l 1
231 365 m 1
 210 383 l 1
 341 524 l 1
 355 512 l 1
 231 365 l 1
184 561 m 1
 197 588 l 1
 354 528 l 1
 346 510 l 1
 184 561 l 1
366 700 m 1
 394 700 l 1
 358 520 l 1
 338 520 l 1
 366 700 l 1
EndSplineSet
EndChar

StartChar: less
Encoding: 60 60 85
Width: 621
VWidth: 0
Flags: HMW
LayerCount: 2
Fore
SplineSet
130 257 m 1
 542 66 l 1
 538 37 l 1
 78 248 l 1
 81 266 l 1
 614 479 l 1
 608 447 l 1
 130 257 l 1
EndSplineSet
EndChar

StartChar: greater
Encoding: 62 62 86
Width: 621
VWidth: 0
Flags: HMW
LayerCount: 2
Fore
SplineSet
525 257 m 1
 112 449 l 1
 118 478 l 1
 576 266 l 1
 574 249 l 1
 42 36 l 1
 46 68 l 1
 525 257 l 1
EndSplineSet
EndChar

StartChar: bracketleft
Encoding: 91 91 87
Width: 263
VWidth: 0
Flags: HMW
LayerCount: 2
Fore
SplineSet
227 750 m 1
 82 -190 l 1
 198 -190 l 1
 194 -220 l 1
 45 -220 l 1
 200 780 l 1
 348 780 l 1
 344 750 l 1
 227 750 l 1
EndSplineSet
EndChar

StartChar: bracketright
Encoding: 93 93 88
Width: 263
VWidth: 0
Flags: HMW
LayerCount: 2
Fore
SplineSet
89 -190 m 1
 234 750 l 1
 117 750 l 1
 122 780 l 1
 270 780 l 1
 116 -220 l 1
 -32 -220 l 1
 -28 -190 l 1
 89 -190 l 1
EndSplineSet
EndChar

StartChar: asciicircum
Encoding: 94 94 89
Width: 494
VWidth: 0
Flags: HMW
LayerCount: 2
Fore
SplineSet
336 670 m 1
 148 461 l 1
 113 461 l 1
 334 709 l 1
 346 709 l 1
 484 460 l 1
 451 460 l 1
 336 670 l 1
EndSplineSet
EndChar

StartChar: underscore
Encoding: 95 95 90
Width: 485
VWidth: 0
Flags: HMW
LayerCount: 2
Fore
SplineSet
-47 -116 m 1
 -43 -92 l 1
 442 -92 l 1
 438 -116 l 1
 -47 -116 l 1
EndSplineSet
EndChar

StartChar: grave
Encoding: 96 96 91
Width: 348
VWidth: 0
Flags: HMW
LayerCount: 2
Fore
SplineSet
177 682 m 1
 206 700 l 1
 342 540 l 1
 325 528 l 1
 177 682 l 1
EndSplineSet
EndChar

StartChar: braceleft
Encoding: 123 123 92
Width: 281
VWidth: 0
Flags: HMW
LayerCount: 2
Fore
SplineSet
235 646 m 2
 204 448 l 2
 192 368 164 299 100 286 c 1
 102 294 l 1
 160 277 165 206 156 132 c 2
 124 -66 l 2
 118 -126 122 -172 179 -172 c 2
 203 -172 l 1
 199 -200 l 1
 168 -200 l 2
 96 -200 88 -138 96 -60 c 2
 128 150 l 2
 135 212 126 254 94 278 c 1
 98 302 l 1
 137 322 162 365 171 430 c 2
 203 640 l 2
 214 722 248 780 318 780 c 2
 350 780 l 1
 346 752 l 1
 322 752 l 2
 265 752 243 710 235 646 c 2
EndSplineSet
EndChar

StartChar: braceright
Encoding: 125 125 93
Width: 281
VWidth: 0
Flags: HMW
LayerCount: 2
Fore
SplineSet
104 -66 m 2
 134 132 l 2
 146 212 175 281 239 294 c 1
 238 286 l 1
 180 303 175 374 184 448 c 2
 214 646 l 2
 220 706 217 752 160 752 c 2
 136 752 l 1
 140 780 l 1
 170 780 l 2
 242 780 251 718 243 640 c 2
 210 430 l 2
 203 368 214 326 246 302 c 1
 242 278 l 1
 203 258 177 215 168 150 c 2
 136 -60 l 2
 125 -142 91 -200 21 -200 c 2
 -11 -200 l 1
 -7 -172 l 1
 16 -172 l 2
 73 -172 96 -130 104 -66 c 2
EndSplineSet
EndChar

StartChar: asciitilde
Encoding: 126 126 94
Width: 558
VWidth: 0
Flags: HMW
LayerCount: 2
Fore
SplineSet
111 178 m 1
 84 182 l 1
 84 190 83 198 84 206 c 0
 89 236 101 264 121 286 c 0
 144 311 178 326 214 326 c 0
 263 326 292 291 319 258 c 0
 340 232 365 202 401 202 c 0
 450 202 481 245 488 292 c 0
 490 301 489 312 487 322 c 1
 516 318 l 1
 516 310 518 300 516 290 c 0
 512 262 500 231 482 210 c 0
 462 186 432 172 400 172 c 0
 355 172 327 205 301 236 c 0
 279 263 253 298 211 298 c 0
 155 298 119 252 111 200 c 0
 110 193 110 186 111 178 c 1
EndSplineSet
EndChar

StartChar: exclamdown
Encoding: 161 161 95
Width: 291
VWidth: 0
Flags: HMW
LayerCount: 2
Fore
SplineSet
109 -244 m 1
 70 -244 l 1
 164 254 l 1
 186 254 l 1
 109 -244 l 1
231 442 m 0
 230 430 216 418 204 418 c 0
 192 418 182 429 183 442 c 0
 184 454 199 466 211 466 c 0
 223 466 232 455 231 442 c 0
EndSplineSet
EndChar

StartChar: cent
Encoding: 162 162 96
Width: 562
VWidth: 0
Flags: HMW
LayerCount: 2
Fore
SplineSet
270 8 m 1
 292 8 l 1
 274 -112 l 1
 246 -112 l 1
 270 8 l 1
124 230 m 0
 107 122 168 21 284 20 c 0
 353 20 414 53 450 87 c 1
 444 48 l 1
 406 18 347 -10 282 -10 c 0
 149 -10 76 104 94 230 c 0
 115 362 228 470 362 470 c 0
 423 470 475 445 505 412 c 1
 499 373 l 1
 475 411 423 440 359 440 c 0
 241 440 143 344 124 230 c 0
365 578 m 1
 393 578 l 1
 368 453 l 1
 346 453 l 1
 365 578 l 1
EndSplineSet
EndChar

StartChar: sterling
Encoding: 163 163 97
Width: 562
VWidth: 0
Flags: HMW
LayerCount: 2
Fore
SplineSet
106 324 m 1
 423 324 l 1
 417 295 l 1
 102 295 l 1
 106 324 l 1
514 492 m 1
 520 568 501 677 395 678 c 0
 308 679 236 610 222 532 c 0
 206 426 302 364 288 264 c 0
 270 156 154 68 92 16 c 1
 94 32 l 1
 466 31 l 1
 462 0 l 1
 56 0 l 1
 140 89 238 159 256 260 c 0
 271 357 174 420 189 532 c 0
 205 628 291 711 398 710 c 0
 523 709 550 585 544 501 c 1
 514 492 l 1
EndSplineSet
EndChar

StartChar: currency
Encoding: 164 164 98
Width: 548
VWidth: 0
Flags: HMW
LayerCount: 2
Fore
SplineSet
110 518 m 1
 135 538 l 1
 194 466 l 1
 170 446 l 1
 110 518 l 1
54 62 m 1
 36 84 l 1
 120 154 l 1
 138 133 l 1
 54 62 l 1
485 446 m 1
 466 467 l 1
 550 538 l 1
 568 516 l 1
 485 446 l 1
410 134 m 1
 434 154 l 1
 493 82 l 1
 470 62 l 1
 410 134 l 1
74 300 m 0
 94 430 207 540 338 540 c 0
 468 540 542 424 524 300 c 0
 504 170 390 60 259 60 c 0
 129 60 56 176 74 300 c 0
105 300 m 0
 89 193 149 90 262 90 c 0
 376 90 474 187 492 300 c 0
 508 407 449 510 336 510 c 0
 222 510 123 413 105 300 c 0
EndSplineSet
EndChar

StartChar: yen
Encoding: 165 165 99
Width: 552
VWidth: 0
Flags: HMW
LayerCount: 2
Fore
SplineSet
53 276 m 1
 58 306 l 1
 524 306 l 1
 519 276 l 1
 53 276 l 1
30 144 m 1
 36 173 l 1
 502 173 l 1
 497 144 l 1
 30 144 l 1
564 699 m 1
 602 699 l 1
 300 276 l 1
 252 0 l 1
 220 0 l 1
 268 279 l 1
 118 700 l 1
 154 700 l 1
 289 310 l 1
 564 699 l 1
EndSplineSet
EndChar

StartChar: brokenbar
Encoding: 166 166 100
Width: 222
VWidth: 0
Flags: HMW
LayerCount: 2
Fore
SplineSet
189 694 m 1
 218 694 l 1
 176 456 l 1
 147 456 l 1
 189 694 l 1
140 244 m 1
 98 6 l 1
 70 6 l 1
 112 244 l 1
 140 244 l 1
EndSplineSet
EndChar

StartChar: section
Encoding: 167 167 101
Width: 388
VWidth: 0
Flags: HMW
LayerCount: 2
Fore
SplineSet
410 605 m 1
 391 652 343 680 289 680 c 0
 236 680 170 652 162 596 c 0
 153 536 235 511 281 490 c 0
 339 464 405 428 396 362 c 0
 383 274 303 244 214 241 c 1
 216 250 l 1
 286 266 354 296 364 362 c 0
 372 420 304 448 256 468 c 0
 198 494 121 522 132 596 c 0
 143 669 219 710 291 710 c 0
 359 710 417 676 435 620 c 1
 410 605 l 1
50 137 m 1
 58 72 110 21 184 20 c 0
 242 19 310 44 320 107 c 0
 332 175 264 203 210 228 c 0
 154 255 80 291 90 360 c 0
 103 436 176 475 272 479 c 1
 272 472 l 1
 198 454 132 420 122 362 c 0
 113 299 186 270 234 248 c 0
 294 220 363 184 352 108 c 0
 340 27 260 -11 180 -10 c 0
 96 -9 31 48 23 124 c 1
 50 137 l 1
EndSplineSet
EndChar

StartChar: dieresis
Encoding: 168 168 102
Width: 423
VWidth: 0
Flags: HMW
LayerCount: 2
Fore
SplineSet
373 680 m 0
 374 692 388 704 400 704 c 0
 412 704 421 693 420 680 c 0
 419 668 405 656 393 656 c 0
 381 656 372 667 373 680 c 0
179 680 m 0
 180 692 194 704 206 704 c 0
 218 704 227 693 226 680 c 0
 225 668 211 656 199 656 c 0
 187 656 178 667 179 680 c 0
EndSplineSet
EndChar

StartChar: copyright
Encoding: 169 169 103
Width: 776
VWidth: 0
Flags: HMW
LayerCount: 2
Fore
SplineSet
241 350 m 0
 227 249 280 157 386 156 c 0
 442 155 488 176 526 208 c 1
 522 182 l 1
 482 154 440 135 384 135 c 0
 267 136 205 238 220 350 c 0
 236 468 330 564 448 565 c 0
 502 565 540 548 574 518 c 1
 570 492 l 1
 539 526 500 544 448 544 c 0
 341 544 257 456 241 350 c 0
99 350 m 0
 74 172 186 12 372 12 c 0
 562 12 723 164 751 350 c 0
 776 528 664 688 478 688 c 0
 288 688 127 536 99 350 c 0
75 350 m 0
 104 550 274 710 479 710 c 0
 680 710 801 542 775 350 c 0
 746 150 576 -10 371 -10 c 0
 170 -10 49 158 75 350 c 0
EndSplineSet
EndChar

StartChar: registered
Encoding: 174 174 104
Width: 776
VWidth: 0
Flags: HMW
LayerCount: 2
Fore
SplineSet
385 346 m 1
 407 346 l 1
 512 150 l 1
 488 150 l 1
 385 346 l 1
354 570 m 1
 374 570 l 1
 309 150 l 1
 289 150 l 1
 354 570 l 1
360 552 m 1
 363 570 l 1
 433 570 l 1
 507 568 565 525 554 450 c 0
 543 374 474 334 398 332 c 1
 326 332 l 1
 329 350 l 1
 399 350 l 1
 466 352 524 385 534 451 c 0
 544 516 497 549 432 551 c 1
 360 552 l 1
99 350 m 0
 74 172 186 12 372 12 c 0
 562 12 723 164 751 350 c 0
 776 528 664 688 478 688 c 0
 288 688 127 536 99 350 c 0
75 350 m 0
 104 550 274 710 479 710 c 0
 680 710 801 542 775 350 c 0
 746 150 576 -10 371 -10 c 0
 170 -10 49 158 75 350 c 0
EndSplineSet
EndChar

StartChar: ordfeminine
Encoding: 170 170 105
Width: 230
VWidth: 0
Flags: HMW
LayerCount: 2
Fore
SplineSet
102 529 m 0
 98 493 119 471 153 470 c 0
 197 469 230 504 242 542 c 1
 246 535 l 1
 234 494 200 455 150 456 c 0
 110 457 80 486 86 530 c 0
 93 576 143 604 188 604 c 0
 220 604 240 590 254 580 c 1
 252 568 l 1
 236 580 215 592 188 592 c 0
 150 592 108 567 102 529 c 0
136 658 m 1
 129 670 l 1
 149 684 178 703 212 702 c 0
 256 700 276 668 272 628 c 1
 242 460 l 1
 227 460 l 1
 257 628 l 1
 259 660 248 685 212 687 c 0
 182 689 155 672 136 658 c 1
EndSplineSet
EndChar

StartChar: ordmasculine
Encoding: 186 186 106
Width: 269
VWidth: 0
Flags: HMW
LayerCount: 2
Fore
SplineSet
91 580 m 0
 101 646 159 700 226 700 c 0
 293 700 332 644 323 580 c 0
 313 514 254 460 187 460 c 0
 120 460 82 516 91 580 c 0
110 580 m 0
 102 527 132 480 188 479 c 0
 244 478 295 525 304 580 c 0
 312 633 282 680 226 681 c 0
 170 682 119 635 110 580 c 0
EndSplineSet
EndChar

StartChar: guillemotleft
Encoding: 171 171 107
Width: 477
VWidth: 0
Flags: HMW
LayerCount: 2
Fore
SplineSet
244 256 m 1
 390 38 l 1
 368 20 l 1
 210 256 l 1
 446 489 l 1
 464 471 l 1
 244 256 l 1
88 256 m 1
 234 38 l 1
 212 20 l 1
 55 256 l 1
 291 489 l 1
 309 471 l 1
 88 256 l 1
EndSplineSet
EndChar

StartChar: guillemotright
Encoding: 187 187 108
Width: 477
VWidth: 0
Flags: HMW
LayerCount: 2
Fore
SplineSet
267 254 m 1
 121 472 l 1
 143 490 l 1
 300 254 l 1
 64 21 l 1
 47 39 l 1
 267 254 l 1
422 254 m 1
 276 472 l 1
 298 490 l 1
 456 254 l 1
 219 21 l 1
 202 39 l 1
 422 254 l 1
EndSplineSet
EndChar

StartChar: uni00AD
Encoding: 173 173 109
Width: 203
VWidth: 0
Flags: HMW
LayerCount: 2
Fore
SplineSet
20 246 m 1
 24 275 l 1
 220 275 l 1
 214 246 l 1
 20 246 l 1
EndSplineSet
EndChar

StartChar: logicalnot
Encoding: 172 172 110
Width: 601
VWidth: 0
Flags: HMW
LayerCount: 2
Fore
SplineSet
94 346 m 1
 100 375 l 1
 576 375 l 1
 540 176 l 1
 512 176 l 1
 542 346 l 1
 94 346 l 1
EndSplineSet
EndChar

StartChar: macron
Encoding: 175 175 111
Width: 494
VWidth: 0
Flags: HMW
LayerCount: 2
Fore
SplineSet
160 646 m 1
 164 675 l 1
 504 675 l 1
 500 646 l 1
 160 646 l 1
EndSplineSet
EndChar

StartChar: degree
Encoding: 176 176 112
Width: 269
VWidth: 0
Flags: HMW
LayerCount: 2
Fore
SplineSet
94 600 m 0
 104 666 163 720 230 720 c 0
 297 720 335 664 326 600 c 0
 316 534 257 480 190 480 c 0
 123 480 85 536 94 600 c 0
112 600 m 0
 104 547 136 500 192 499 c 0
 248 498 299 545 308 600 c 0
 316 653 284 700 228 701 c 0
 172 702 121 655 112 600 c 0
EndSplineSet
EndChar

StartChar: plusminus
Encoding: 177 177 113
Width: 592
VWidth: 0
Flags: HMW
LayerCount: 2
Fore
SplineSet
46 0 m 1
 50 31 l 1
 518 31 l 1
 514 0 l 1
 46 0 l 1
103 370 m 1
 108 400 l 1
 575 400 l 1
 570 370 l 1
 103 370 l 1
360 620 m 1
 392 620 l 1
 318 150 l 1
 287 150 l 1
 360 620 l 1
EndSplineSet
EndChar

StartChar: uni00B2
Encoding: 178 178 114
Width: 325
VWidth: 0
Flags: HMW
LayerCount: 2
Fore
SplineSet
48 283 m 1
 270 486 l 2
 301 515 334 548 342 592 c 0
 350 637 326 689 264 690 c 0
 194 692 148 627 134 559 c 1
 114 559 l 1
 130 637 184 709 266 708 c 0
 341 707 369 645 360 590 c 0
 352 543 320 507 286 475 c 2
 93 301 l 1
 323 300 l 1
 320 282 l 1
 48 283 l 1
EndSplineSet
EndChar

StartChar: uni00B3
Encoding: 179 179 115
Width: 299
VWidth: 0
Flags: HMW
LayerCount: 2
Fore
SplineSet
193 495 m 1
 195 508 l 1
 249 513 311 541 321 598 c 0
 329 644 302 687 248 688 c 0
 190 689 152 646 138 597 c 1
 119 597 l 1
 134 657 181 707 250 706 c 0
 316 705 350 652 340 598 c 0
 328 532 259 499 193 495 c 1
174 274 m 0
 96 274 63 327 67 391 c 1
 86 391 l 1
 83 336 109 294 175 293 c 0
 235 292 289 333 297 388 c 0
 307 454 246 485 192 490 c 1
 194 502 l 1
 260 497 328 463 316 386 c 0
 306 320 244 274 174 274 c 0
EndSplineSet
EndChar

StartChar: acute
Encoding: 180 180 116
Width: 348
VWidth: 0
Flags: HMW
LayerCount: 2
Fore
SplineSet
348 681 m 1
 154 529 l 1
 138 541 l 1
 322 699 l 1
 348 681 l 1
EndSplineSet
EndChar

StartChar: mu
Encoding: 181 181 117
Width: 475
VWidth: 0
Flags: HMW
LayerCount: 2
Fore
SplineSet
162 460 m 1
 107 150 l 1
 99 80 118 20 196 20 c 0
 282 20 353 92 366 174 c 2
 418 460 l 1
 448 460 l 1
 369 0 l 1
 338 0 l 1
 355 104 l 1
 324 40 264 -10 188 -10 c 0
 132 -10 105 19 94 58 c 1
 28 -320 l 1
 -2 -320 l 1
 131 460 l 1
 162 460 l 1
EndSplineSet
EndChar

StartChar: paragraph
Encoding: 182 182 118
Width: 472
VWidth: 0
Flags: HMW
LayerCount: 2
Fore
SplineSet
298 270 m 1
 176 277 93 357 113 486 c 0
 134 620 243 700 371 700 c 2
 508 700 l 1
 350 -220 l 1
 322 -220 l 1
 475 674 l 1
 396 674 l 1
 242 -220 l 1
 214 -220 l 1
 298 270 l 1
EndSplineSet
EndChar

StartChar: periodcentered
Encoding: 183 183 119
Width: 251
VWidth: 0
Flags: HMW
LayerCount: 2
Fore
SplineSet
114 227 m 0
 115 239 129 250 141 250 c 0
 153 250 163 239 162 226 c 0
 161 214 146 202 134 202 c 0
 122 202 113 214 114 227 c 0
EndSplineSet
EndChar

StartChar: uni00B9
Encoding: 185 185 120
Width: 456
VWidth: 0
Flags: HMW
LayerCount: 2
Fore
SplineSet
226 650 m 1
 228 670 l 1
 350 698 l 1
 276 274 l 1
 256 274 l 1
 325 673 l 1
 226 650 l 1
EndSplineSet
EndChar

StartChar: cedilla
Encoding: 184 184 121
Width: 339
VWidth: 0
Flags: HMW
LayerCount: 2
Fore
SplineSet
152 18 m 1
 179 18 l 1
 106 -68 l 1
 124 -59 138 -51 159 -52 c 0
 195 -54 223 -84 218 -127 c 0
 211 -184 153 -220 99 -220 c 0
 65 -220 43 -207 18 -182 c 1
 34 -166 l 1
 56 -185 73 -196 101 -196 c 0
 143 -196 190 -169 196 -126 c 0
 200 -93 177 -72 148 -70 c 0
 123 -68 94 -80 71 -93 c 1
 152 18 l 1
EndSplineSet
EndChar

StartChar: questiondown
Encoding: 191 191 122
Width: 529
VWidth: 0
Flags: HMW
LayerCount: 2
Fore
SplineSet
107 186 m 0
 90 96 146 20 248 20 c 0
 330 20 389 65 437 123 c 1
 460 106 l 1
 405 41 340 -11 242 -10 c 0
 124 -9 59 80 76 186 c 0
 96 296 206 367 324 377 c 1
 353 530 l 1
 376 530 l 1
 357 355 l 1
 349 356 l 1
 207 348 121 267 107 186 c 0
418 687 m 0
 417 675 403 664 391 664 c 0
 379 664 370 675 371 688 c 0
 372 700 386 712 398 712 c 0
 410 712 419 700 418 687 c 0
EndSplineSet
EndChar

StartChar: multiply
Encoding: 215 215 123
Width: 565
VWidth: 0
Flags: HMW
LayerCount: 2
Fore
SplineSet
75 40 m 1
 56 62 l 1
 281 255 l 1
 123 450 l 1
 146 470 l 1
 302 274 l 1
 524 470 l 1
 543 448 l 1
 318 254 l 1
 476 60 l 1
 452 39 l 1
 297 234 l 1
 75 40 l 1
EndSplineSet
EndChar

StartChar: Oslash
Encoding: 216 216 124
Width: 766
VWidth: 0
Flags: HMW
LayerCount: 2
Fore
SplineSet
112 350 m 0
 87 183 174 25 354 24 c 0
 536 23 680 174 708 350 c 0
 733 517 648 675 468 676 c 0
 286 677 140 526 112 350 c 0
78 350 m 0
 108 546 270 708 470 708 c 0
 668 708 771 536 744 350 c 0
 714 154 551 -8 351 -8 c 0
 153 -8 51 164 78 350 c 0
782 738 m 1
 805 721 l 1
 46 -38 l 1
 24 -21 l 1
 782 738 l 1
EndSplineSet
EndChar

StartChar: Thorn
Encoding: 222 222 125
Width: 513
VWidth: 0
Flags: HMW
LayerCount: 2
Fore
SplineSet
170 700 m 1
 202 700 l 1
 81 0 l 1
 50 0 l 1
 170 700 l 1
156 529 m 1
 162 560 l 1
 309 560 l 1
 436 558 526 474 506 350 c 0
 486 224 372 142 240 140 c 1
 90 140 l 1
 96 171 l 1
 242 171 l 1
 354 174 455 244 473 350 c 0
 491 458 414 525 306 528 c 1
 156 529 l 1
EndSplineSet
EndChar

StartChar: divide
Encoding: 247 247 126
Width: 604
VWidth: 0
Flags: HMW
LayerCount: 2
Fore
SplineSet
327 451 m 0
 328 463 342 474 354 474 c 0
 366 474 375 463 374 450 c 0
 373 438 359 426 347 426 c 0
 335 426 326 438 327 451 c 0
257 43 m 0
 258 55 272 66 284 66 c 0
 296 66 306 55 305 42 c 0
 304 30 290 18 278 18 c 0
 266 18 256 30 257 43 c 0
71 232 m 1
 76 263 l 1
 562 263 l 1
 556 232 l 1
 71 232 l 1
EndSplineSet
EndChar

StartChar: oslash
Encoding: 248 248 127
Width: 529
VWidth: 0
Flags: HMW
LayerCount: 2
Fore
SplineSet
52 230 m 0
 72 362 186 470 320 470 c 0
 453 470 526 356 508 230 c 0
 488 98 374 -10 240 -10 c 0
 107 -10 34 104 52 230 c 0
84 230 m 0
 67 121 128 20 243 20 c 0
 359 20 460 115 478 230 c 0
 495 339 433 440 318 440 c 0
 202 440 102 345 84 230 c 0
496 494 m 1
 515 484 l 1
 46 -38 l 1
 28 -28 l 1
 496 494 l 1
EndSplineSet
EndChar

StartChar: circumflex
Encoding: 710 710 128
Width: 465
VWidth: 0
Flags: HMW
LayerCount: 2
Fore
SplineSet
326 696 m 1
 168 574 l 1
 150 591 l 1
 330 730 l 1
 462 590 l 1
 441 574 l 1
 326 696 l 1
EndSplineSet
EndChar

StartChar: ogonek
Encoding: 731 731 129
Width: 245
VWidth: 0
Flags: HMW
LayerCount: 2
Fore
SplineSet
157 -160 m 1
 169 -181 l 1
 146 -201 112 -220 72 -220 c 0
 12 -220 -30 -187 -23 -134 c 0
 -13 -62 75 -19 142 14 c 1
 158 0 l 1
 100 -28 16 -68 8 -128 c 0
 4 -168 35 -191 75 -192 c 0
 108 -193 137 -176 157 -160 c 1
EndSplineSet
EndChar

StartChar: tilde
Encoding: 732 732 130
Width: 514
VWidth: 0
Flags: HMW
LayerCount: 2
Fore
SplineSet
207 643 m 1
 219 675 245 706 288 706 c 0
 337 706 355 659 402 660 c 0
 429 661 447 683 464 708 c 1
 482 692 l 1
 462 661 435 634 398 634 c 0
 352 634 330 680 288 680 c 0
 252 680 236 653 228 630 c 1
 207 643 l 1
EndSplineSet
EndChar

StartChar: ring
Encoding: 730 730 131
Width: 269
VWidth: 0
Flags: HMW
LayerCount: 2
Fore
SplineSet
142 786 m 0
 150 841 205 884 258 884 c 0
 311 884 350 838 342 784 c 0
 334 729 279 686 226 686 c 0
 173 686 134 732 142 786 c 0
164 784 m 0
 158 742 188 707 228 706 c 0
 270 705 313 744 319 786 c 0
 325 828 296 863 256 864 c 0
 214 865 170 826 164 784 c 0
EndSplineSet
EndChar

StartChar: dotaccent
Encoding: 729 729 132
Width: 251
VWidth: 0
Flags: HMW
LayerCount: 2
Fore
SplineSet
205 763 m 0
 205 776 218 788 230 788 c 0
 242 788 253 776 253 763 c 0
 253 750 240 738 228 738 c 0
 216 738 205 750 205 763 c 0
EndSplineSet
EndChar

StartChar: uni2010
Encoding: 8208 8208 133
Width: 203
VWidth: 0
Flags: HMW
LayerCount: 2
Fore
SplineSet
20 246 m 1
 24 275 l 1
 220 275 l 1
 214 246 l 1
 20 246 l 1
EndSplineSet
EndChar

StartChar: endash
Encoding: 8211 8211 134
Width: 718
VWidth: 0
Flags: HMW
LayerCount: 2
Fore
SplineSet
83 246 m 1
 88 275 l 1
 670 275 l 1
 666 246 l 1
 83 246 l 1
EndSplineSet
EndChar

StartChar: figuredash
Encoding: 8210 8210 135
Width: 572
VWidth: 0
Flags: HMW
LayerCount: 2
Fore
SplineSet
83 246 m 1
 88 275 l 1
 525 275 l 1
 520 246 l 1
 83 246 l 1
EndSplineSet
EndChar

StartChar: emdash
Encoding: 8212 8212 136
Width: 863
VWidth: 0
Flags: HMW
LayerCount: 2
Fore
SplineSet
83 246 m 1
 88 275 l 1
 816 275 l 1
 811 246 l 1
 83 246 l 1
EndSplineSet
EndChar

StartChar: minus
Encoding: 8722 8722 137
Width: 572
VWidth: 0
Flags: HMW
LayerCount: 2
Fore
SplineSet
83 246 m 1
 88 275 l 1
 525 275 l 1
 520 246 l 1
 83 246 l 1
EndSplineSet
EndChar

StartChar: quoteright
Encoding: 8217 8217 138
Width: 246
VWidth: 0
Flags: HMW
LayerCount: 2
Fore
SplineSet
242 699 m 1
 280 699 l 1
 144 471 l 1
 121 471 l 1
 242 699 l 1
EndSplineSet
EndChar

StartChar: quoteleft
Encoding: 8216 8216 139
Width: 232
VWidth: 0
Flags: HMW
LayerCount: 2
Fore
SplineSet
150 471 m 1
 112 471 l 1
 248 699 l 1
 271 699 l 1
 150 471 l 1
EndSplineSet
EndChar

StartChar: quotesinglbase
Encoding: 8218 8218 140
Width: 246
VWidth: 0
Flags: HMW
LayerCount: 2
Fore
SplineSet
126 79 m 1
 163 79 l 1
 28 -149 l 1
 5 -149 l 1
 126 79 l 1
EndSplineSet
EndChar

StartChar: quotedblleft
Encoding: 8220 8220 141
Width: 399
VWidth: 0
Flags: HMW
LayerCount: 2
Fore
SplineSet
164 471 m 1
 126 471 l 1
 261 699 l 1
 284 699 l 1
 164 471 l 1
317 471 m 1
 280 471 l 1
 414 699 l 1
 438 699 l 1
 317 471 l 1
EndSplineSet
EndChar

StartChar: quotedblright
Encoding: 8221 8221 142
Width: 399
VWidth: 0
Flags: HMW
LayerCount: 2
Fore
SplineSet
228 699 m 1
 266 699 l 1
 131 471 l 1
 108 471 l 1
 228 699 l 1
382 699 m 1
 420 699 l 1
 284 471 l 1
 260 471 l 1
 382 699 l 1
EndSplineSet
EndChar

StartChar: perthousand
Encoding: 8240 8240 143
Width: 1056
VWidth: 0
Flags: HMW
LayerCount: 2
Fore
SplineSet
726 144 m 0
 739 226 809 296 898 296 c 0
 987 296 1033 222 1021 142 c 0
 1008 60 937 -10 848 -10 c 0
 759 -10 714 64 726 144 c 0
754 143 m 0
 744 80 777 17 850 16 c 0
 923 15 982 77 993 143 c 0
 1003 206 968 268 896 269 c 0
 823 270 765 209 754 143 c 0
102 558 m 0
 115 640 184 710 273 710 c 0
 362 710 408 636 396 556 c 0
 383 474 313 404 224 404 c 0
 135 404 90 478 102 558 c 0
130 557 m 0
 120 494 153 431 226 430 c 0
 299 429 356 491 367 557 c 0
 377 620 343 682 271 683 c 0
 198 684 141 623 130 557 c 0
364 144 m 0
 377 226 447 296 536 296 c 0
 625 296 670 222 658 142 c 0
 645 60 576 -10 487 -10 c 0
 398 -10 352 64 364 144 c 0
393 143 m 0
 383 80 415 17 488 16 c 0
 561 15 619 77 630 143 c 0
 640 206 606 268 534 269 c 0
 461 270 404 209 393 143 c 0
645 699 m 1
 676 699 l 1
 115 0 l 1
 84 0 l 1
 645 699 l 1
EndSplineSet
EndChar

StartChar: guilsinglleft
Encoding: 8249 8249 144
Width: 322
VWidth: 0
Flags: HMW
LayerCount: 2
Fore
SplineSet
88 256 m 1
 234 38 l 1
 212 20 l 1
 55 256 l 1
 291 489 l 1
 309 471 l 1
 88 256 l 1
EndSplineSet
EndChar

StartChar: guilsinglright
Encoding: 8250 8250 145
Width: 339
VWidth: 0
Flags: HMW
LayerCount: 2
Fore
SplineSet
284 254 m 1
 138 472 l 1
 160 490 l 1
 318 254 l 1
 81 21 l 1
 64 39 l 1
 284 254 l 1
EndSplineSet
EndChar

StartChar: uni2031
Encoding: 8241 8241 146
Width: 1418
VWidth: 0
Flags: HMW
LayerCount: 2
Fore
SplineSet
1088 144 m 0
 1101 226 1172 296 1261 296 c 0
 1350 296 1394 222 1382 142 c 0
 1369 60 1300 -10 1211 -10 c 0
 1122 -10 1076 64 1088 144 c 0
1117 143 m 0
 1107 80 1140 17 1213 16 c 0
 1286 15 1344 77 1355 143 c 0
 1365 206 1330 268 1258 269 c 0
 1185 270 1128 209 1117 143 c 0
726 144 m 0
 739 226 809 296 898 296 c 0
 987 296 1033 222 1021 142 c 0
 1008 60 937 -10 848 -10 c 0
 759 -10 714 64 726 144 c 0
754 143 m 0
 744 80 777 17 850 16 c 0
 923 15 982 77 993 143 c 0
 1003 206 968 268 896 269 c 0
 823 270 765 209 754 143 c 0
102 558 m 0
 115 640 184 710 273 710 c 0
 362 710 408 636 396 556 c 0
 383 474 313 404 224 404 c 0
 135 404 90 478 102 558 c 0
130 557 m 0
 120 494 153 431 226 430 c 0
 299 429 356 491 367 557 c 0
 377 620 343 682 271 683 c 0
 198 684 141 623 130 557 c 0
364 144 m 0
 377 226 447 296 536 296 c 0
 625 296 670 222 658 142 c 0
 645 60 576 -10 487 -10 c 0
 398 -10 352 64 364 144 c 0
393 143 m 0
 383 80 415 17 488 16 c 0
 561 15 619 77 630 143 c 0
 640 206 606 268 534 269 c 0
 461 270 404 209 393 143 c 0
645 699 m 1
 676 699 l 1
 115 0 l 1
 84 0 l 1
 645 699 l 1
EndSplineSet
EndChar

StartChar: uni203D
Encoding: 8253 8253 147
Width: 540
VWidth: 0
Flags: HMW
LayerCount: 2
Fore
SplineSet
488 514 m 0
 504 605 451 680 348 680 c 0
 266 680 207 635 159 577 c 1
 135 594 l 1
 190 659 255 711 353 710 c 0
 471 709 537 620 520 514 c 0
 501 406 397 331 285 324 c 1
 268 346 l 1
 376 352 469 418 488 514 c 0
287 510 m 1
 325 510 l 1
 258 170 l 1
 236 170 l 1
 287 510 l 1
198 13 m 0
 199 25 213 36 225 36 c 0
 237 36 246 25 245 12 c 0
 244 0 230 -12 218 -12 c 0
 206 -12 197 0 198 13 c 0
EndSplineSet
EndChar

StartChar: Euro
Encoding: 8364 8364 148
Width: 644
VWidth: 0
Flags: HMW
LayerCount: 2
Fore
SplineSet
102 434 m 1
 106 454 l 1
 592 454 l 1
 589 434 l 1
 102 434 l 1
82 314 m 1
 85 334 l 1
 546 334 l 1
 543 314 l 1
 82 314 l 1
186 350 m 0
 165 194 212 23 375 22 c 0
 433 22 485 41 531 71 c 1
 524 30 l 1
 478 6 426 -10 372 -10 c 0
 188 -9 131 176 154 350 c 0
 182 538 309 710 493 710 c 0
 544 710 591 695 633 670 c 1
 626 628 l 1
 588 660 543 679 490 679 c 0
 323 679 212 521 186 350 c 0
EndSplineSet
EndChar

StartChar: fraction
Encoding: 8260 8260 149
Width: 684
VWidth: 0
Flags: HMW
LayerCount: 2
Fore
SplineSet
690 699 m 1
 718 699 l 1
 58 0 l 1
 30 0 l 1
 690 699 l 1
EndSplineSet
EndChar

StartChar: onequarter
Encoding: 188 188 150
Width: 731
VWidth: 0
Flags: HMW
LayerCount: 2
Fore
SplineSet
728 699 m 1
 756 699 l 1
 96 0 l 1
 68 0 l 1
 728 699 l 1
107 650 m 1
 110 670 l 1
 231 698 l 1
 158 274 l 1
 138 274 l 1
 206 673 l 1
 107 650 l 1
376 84 m 1
 394 102 l 1
 596 102 l 1
 601 102 l 1
 673 102 l 1
 670 84 l 1
 376 84 l 1
396 85 m 1
 375 85 l 1
 656 419 l 1
 663 420 l 1
 592 0 l 1
 572 0 l 1
 588 92 l 1
 588 95 l 1
 636 369 l 1
 396 85 l 1
EndSplineSet
EndChar

StartChar: onehalf
Encoding: 189 189 151
Width: 794
VWidth: 0
Flags: HMW
LayerCount: 2
Fore
SplineSet
728 699 m 1
 756 699 l 1
 96 0 l 1
 68 0 l 1
 728 699 l 1
107 650 m 1
 110 670 l 1
 231 698 l 1
 158 274 l 1
 138 274 l 1
 206 673 l 1
 107 650 l 1
454 3 m 1
 676 206 l 2
 707 235 738 267 746 311 c 0
 754 356 731 408 669 410 c 0
 599 412 552 347 538 279 c 1
 519 279 l 1
 535 357 588 429 670 428 c 0
 745 427 775 365 766 310 c 0
 758 263 724 227 690 195 c 2
 498 21 l 1
 728 20 l 1
 725 2 l 1
 454 3 l 1
EndSplineSet
EndChar

StartChar: threequarters
Encoding: 190 190 152
Width: 795
VWidth: 0
Flags: HMW
LayerCount: 2
Fore
SplineSet
792 699 m 1
 821 699 l 1
 160 0 l 1
 132 0 l 1
 792 699 l 1
198 495 m 1
 200 508 l 1
 254 513 316 541 326 598 c 0
 334 644 307 687 253 688 c 0
 195 689 156 646 142 597 c 1
 124 597 l 1
 139 657 185 707 254 706 c 0
 320 705 355 652 345 598 c 0
 333 532 264 499 198 495 c 1
180 274 m 0
 102 274 68 327 72 391 c 1
 92 391 l 1
 89 336 114 294 180 293 c 0
 240 292 294 333 302 388 c 0
 312 454 252 485 198 490 c 1
 200 502 l 1
 266 497 333 463 321 386 c 0
 311 320 250 274 180 274 c 0
440 84 m 1
 459 102 l 1
 661 102 l 1
 666 102 l 1
 738 102 l 1
 735 84 l 1
 440 84 l 1
461 85 m 1
 440 85 l 1
 722 419 l 1
 728 420 l 1
 656 0 l 1
 637 0 l 1
 653 92 l 1
 654 95 l 1
 700 369 l 1
 461 85 l 1
EndSplineSet
EndChar

StartChar: uni2150
Encoding: 8528 8528 153
Width: 817
VWidth: 0
Flags: HMW
LayerCount: 2
Fore
SplineSet
679 699 m 1
 707 699 l 1
 47 0 l 1
 19 0 l 1
 679 699 l 1
107 650 m 1
 110 670 l 1
 231 698 l 1
 158 274 l 1
 138 274 l 1
 206 673 l 1
 107 650 l 1
548 402 m 1
 550 420 l 1
 829 420 l 1
 548 0 l 1
 526 0 l 1
 796 401 l 1
 548 402 l 1
EndSplineSet
EndChar

StartChar: uni2151
Encoding: 8529 8529 154
Width: 760
VWidth: 0
Flags: HMW
LayerCount: 2
Fore
SplineSet
679 699 m 1
 707 699 l 1
 47 0 l 1
 19 0 l 1
 679 699 l 1
107 650 m 1
 110 670 l 1
 231 698 l 1
 158 274 l 1
 138 274 l 1
 206 673 l 1
 107 650 l 1
723 288 m 0
 733 350 700 409 632 410 c 0
 564 411 508 353 498 288 c 0
 490 229 524 174 585 172 c 0
 655 170 713 227 723 288 c 0
530 3 m 1
 504 4 l 1
 676 198 l 1
 678 197 l 1
 652 173 618 155 579 156 c 0
 510 157 471 222 480 288 c 0
 491 365 554 429 633 428 c 0
 713 427 753 362 742 288 c 0
 736 254 715 220 695 196 c 1
 530 3 l 1
EndSplineSet
EndChar

StartChar: uni2152
Encoding: 8530 8530 155
Width: 1048
VWidth: 0
Flags: HMW
LayerCount: 2
Fore
SplineSet
679 699 m 1
 707 699 l 1
 47 0 l 1
 19 0 l 1
 679 699 l 1
107 650 m 1
 110 670 l 1
 231 698 l 1
 158 274 l 1
 138 274 l 1
 206 673 l 1
 107 650 l 1
474 377 m 1
 477 398 l 1
 598 425 l 1
 524 2 l 1
 505 2 l 1
 574 400 l 1
 474 377 l 1
748 210 m 0
 738 128 744 14 828 13 c 0
 912 12 966 119 979 210 c 0
 989 292 982 406 898 407 c 0
 814 408 761 301 748 210 c 0
728 210 m 0
 742 312 803 426 899 426 c 0
 996 425 1010 304 999 210 c 0
 985 108 923 -6 827 -6 c 0
 730 -5 717 116 728 210 c 0
EndSplineSet
EndChar

StartChar: onethird
Encoding: 8531 8531 156
Width: 732
VWidth: 0
Flags: HMW
LayerCount: 2
Fore
SplineSet
679 699 m 1
 707 699 l 1
 47 0 l 1
 19 0 l 1
 679 699 l 1
107 650 m 1
 110 670 l 1
 231 698 l 1
 158 274 l 1
 138 274 l 1
 206 673 l 1
 107 650 l 1
570 215 m 1
 572 228 l 1
 626 233 689 261 699 318 c 0
 707 364 680 407 626 408 c 0
 568 409 529 366 515 317 c 1
 496 317 l 1
 511 377 557 427 626 426 c 0
 692 425 728 372 718 318 c 0
 706 252 636 219 570 215 c 1
551 -6 m 0
 473 -6 440 47 444 111 c 1
 464 111 l 1
 461 56 486 14 552 13 c 0
 612 12 666 53 674 108 c 0
 684 174 623 205 569 210 c 1
 572 222 l 1
 638 217 706 183 694 106 c 0
 684 40 621 -6 551 -6 c 0
EndSplineSet
EndChar

StartChar: twothirds
Encoding: 8532 8532 157
Width: 855
VWidth: 0
Flags: HMW
LayerCount: 2
Fore
SplineSet
802 699 m 1
 830 699 l 1
 170 0 l 1
 142 0 l 1
 802 699 l 1
52 283 m 1
 274 486 l 2
 305 515 336 548 344 592 c 0
 352 637 330 689 268 690 c 0
 198 692 151 627 137 559 c 1
 118 559 l 1
 134 637 187 709 269 708 c 0
 344 707 373 645 364 590 c 0
 356 543 323 507 289 475 c 2
 97 301 l 1
 327 300 l 1
 324 282 l 1
 52 283 l 1
694 215 m 1
 696 228 l 1
 750 233 811 261 821 318 c 0
 829 364 802 407 748 408 c 0
 690 409 652 366 638 317 c 1
 620 317 l 1
 635 377 681 427 750 426 c 0
 816 425 851 372 841 318 c 0
 829 252 760 219 694 215 c 1
675 -6 m 0
 597 -6 564 47 568 111 c 1
 588 111 l 1
 585 56 610 14 676 13 c 0
 736 12 789 53 797 108 c 0
 807 174 747 205 693 210 c 1
 695 222 l 1
 761 217 828 183 816 106 c 0
 806 40 745 -6 675 -6 c 0
EndSplineSet
EndChar

StartChar: uni2155
Encoding: 8533 8533 158
Width: 722
VWidth: 0
Flags: HMW
LayerCount: 2
Fore
SplineSet
679 699 m 1
 707 699 l 1
 47 0 l 1
 19 0 l 1
 679 699 l 1
107 650 m 1
 110 670 l 1
 231 698 l 1
 158 274 l 1
 138 274 l 1
 206 673 l 1
 107 650 l 1
668 136 m 0
 656 52 590 -8 510 -8 c 0
 447 -8 415 28 396 80 c 1
 412 91 l 1
 428 45 457 11 511 11 c 0
 581 11 638 64 648 136 c 0
 657 196 626 249 565 251 c 0
 516 253 475 227 439 195 c 1
 458 220 l 1
 484 248 527 270 572 269 c 0
 642 268 678 206 668 136 c 0
544 400 m 1
 469 224 l 1
 437 194 l 1
 532 418 l 1
 724 418 l 1
 721 400 l 1
 544 400 l 1
EndSplineSet
EndChar

StartChar: uni2156
Encoding: 8534 8534 159
Width: 845
VWidth: 0
Flags: HMW
LayerCount: 2
Fore
SplineSet
802 699 m 1
 830 699 l 1
 170 0 l 1
 142 0 l 1
 802 699 l 1
52 283 m 1
 274 486 l 2
 305 515 336 548 344 592 c 0
 352 637 330 689 268 690 c 0
 198 692 151 627 137 559 c 1
 118 559 l 1
 134 637 187 709 269 708 c 0
 344 707 373 645 364 590 c 0
 356 543 323 507 289 475 c 2
 97 301 l 1
 327 300 l 1
 324 282 l 1
 52 283 l 1
792 136 m 0
 780 52 713 -8 633 -8 c 0
 570 -8 537 28 518 80 c 1
 536 91 l 1
 552 45 580 11 634 11 c 0
 704 11 762 64 772 136 c 0
 781 196 749 249 688 251 c 0
 639 253 599 227 563 195 c 1
 582 220 l 1
 608 248 651 270 696 269 c 0
 766 268 802 206 792 136 c 0
666 400 m 1
 593 224 l 1
 560 194 l 1
 654 418 l 1
 846 418 l 1
 844 400 l 1
 666 400 l 1
EndSplineSet
EndChar

StartChar: uni2157
Encoding: 8535 8535 160
Width: 806
VWidth: 0
Flags: HMW
LayerCount: 2
Fore
SplineSet
764 699 m 1
 792 699 l 1
 132 0 l 1
 104 0 l 1
 764 699 l 1
198 495 m 1
 200 508 l 1
 254 513 316 541 326 598 c 0
 334 644 307 687 253 688 c 0
 195 689 156 646 142 597 c 1
 124 597 l 1
 139 657 185 707 254 706 c 0
 320 705 355 652 345 598 c 0
 333 532 264 499 198 495 c 1
180 274 m 0
 102 274 68 327 72 391 c 1
 92 391 l 1
 89 336 114 294 180 293 c 0
 240 292 294 333 302 388 c 0
 312 454 252 485 198 490 c 1
 200 502 l 1
 266 497 333 463 321 386 c 0
 311 320 250 274 180 274 c 0
754 136 m 0
 742 52 674 -8 594 -8 c 0
 531 -8 499 28 480 80 c 1
 497 91 l 1
 513 45 541 11 595 11 c 0
 665 11 723 64 733 136 c 0
 742 196 711 249 650 251 c 0
 601 253 560 227 524 195 c 1
 543 220 l 1
 569 248 611 270 656 269 c 0
 726 268 764 206 754 136 c 0
628 400 m 1
 554 224 l 1
 522 194 l 1
 615 418 l 1
 808 418 l 1
 805 400 l 1
 628 400 l 1
EndSplineSet
EndChar

StartChar: uni2158
Encoding: 8536 8536 161
Width: 840
VWidth: 0
Flags: HMW
LayerCount: 2
Fore
SplineSet
798 699 m 1
 826 699 l 1
 166 0 l 1
 137 0 l 1
 798 699 l 1
68 364 m 1
 86 382 l 1
 288 382 l 1
 293 382 l 1
 365 382 l 1
 362 364 l 1
 68 364 l 1
88 365 m 1
 67 365 l 1
 348 699 l 1
 356 700 l 1
 284 280 l 1
 264 280 l 1
 280 372 l 1
 280 375 l 1
 328 649 l 1
 88 365 l 1
787 136 m 0
 775 52 708 -8 628 -8 c 0
 565 -8 533 28 514 80 c 1
 531 91 l 1
 547 45 575 11 629 11 c 0
 699 11 757 64 767 136 c 0
 776 196 745 249 684 251 c 0
 635 253 593 227 557 195 c 1
 576 220 l 1
 602 248 646 270 691 269 c 0
 761 268 797 206 787 136 c 0
662 400 m 1
 587 224 l 1
 555 194 l 1
 650 418 l 1
 842 418 l 1
 839 400 l 1
 662 400 l 1
EndSplineSet
EndChar

StartChar: uni2159
Encoding: 8537 8537 162
Width: 712
VWidth: 0
Flags: HMW
LayerCount: 2
Fore
SplineSet
679 699 m 1
 707 699 l 1
 47 0 l 1
 19 0 l 1
 679 699 l 1
107 650 m 1
 110 670 l 1
 231 698 l 1
 158 274 l 1
 138 274 l 1
 206 673 l 1
 107 650 l 1
428 132 m 0
 418 70 450 11 518 10 c 0
 586 9 642 67 652 132 c 0
 660 191 627 246 566 248 c 0
 496 250 438 193 428 132 c 0
622 417 m 1
 647 416 l 1
 475 222 l 1
 473 223 l 1
 499 247 533 265 572 264 c 0
 641 263 680 198 671 132 c 0
 660 55 598 -9 518 -8 c 0
 438 -7 398 58 409 132 c 0
 415 166 436 200 456 224 c 1
 622 417 l 1
EndSplineSet
EndChar

StartChar: uni215A
Encoding: 8538 8538 163
Width: 830
VWidth: 0
Flags: HMW
LayerCount: 2
Fore
SplineSet
798 699 m 1
 826 699 l 1
 166 0 l 1
 137 0 l 1
 798 699 l 1
340 416 m 0
 328 332 261 272 181 272 c 0
 118 272 86 308 67 360 c 1
 84 371 l 1
 100 325 128 291 182 291 c 0
 252 291 310 344 320 416 c 0
 329 476 297 529 236 531 c 0
 187 533 146 507 110 475 c 1
 129 500 l 1
 155 528 199 550 244 549 c 0
 314 548 350 486 340 416 c 0
215 680 m 1
 140 504 l 1
 108 474 l 1
 202 698 l 1
 395 698 l 1
 392 680 l 1
 215 680 l 1
546 132 m 0
 536 70 569 11 637 10 c 0
 705 9 761 67 771 132 c 0
 779 191 745 246 684 248 c 0
 614 250 556 193 546 132 c 0
740 417 m 1
 765 416 l 1
 593 222 l 1
 592 223 l 1
 618 247 651 265 690 264 c 0
 759 263 799 198 790 132 c 0
 779 55 716 -9 636 -8 c 0
 556 -7 517 58 528 132 c 0
 534 166 554 200 574 224 c 1
 740 417 l 1
EndSplineSet
EndChar

StartChar: oneeighth
Encoding: 8539 8539 164
Width: 737
VWidth: 0
Flags: HMW
LayerCount: 2
Fore
SplineSet
679 699 m 1
 707 699 l 1
 47 0 l 1
 19 0 l 1
 679 699 l 1
107 650 m 1
 110 670 l 1
 231 698 l 1
 158 274 l 1
 138 274 l 1
 206 673 l 1
 107 650 l 1
498 324 m 0
 507 378 560 426 619 426 c 0
 678 426 716 374 708 322 c 0
 700 264 642 218 586 219 c 0
 530 219 490 268 498 324 c 0
516 322 m 0
 509 276 544 233 586 232 c 0
 629 231 681 275 688 322 c 0
 695 366 667 407 618 408 c 0
 568 409 523 368 516 322 c 0
449 112 m 0
 459 176 522 226 585 226 c 0
 647 226 692 175 684 112 c 0
 675 48 617 -7 547 -6 c 0
 477 -5 439 50 449 112 c 0
468 114 m 0
 459 60 490 13 548 12 c 0
 607 11 658 58 666 114 c 0
 674 166 637 212 585 213 c 0
 533 214 477 168 468 114 c 0
EndSplineSet
EndChar

StartChar: threeeighths
Encoding: 8540 8540 165
Width: 821
VWidth: 0
Flags: HMW
LayerCount: 2
Fore
SplineSet
764 699 m 1
 792 699 l 1
 132 0 l 1
 104 0 l 1
 764 699 l 1
198 495 m 1
 200 508 l 1
 254 513 316 541 326 598 c 0
 334 644 307 687 253 688 c 0
 195 689 156 646 142 597 c 1
 124 597 l 1
 139 657 185 707 254 706 c 0
 320 705 355 652 345 598 c 0
 333 532 264 499 198 495 c 1
180 274 m 0
 102 274 68 327 72 391 c 1
 92 391 l 1
 89 336 114 294 180 293 c 0
 240 292 294 333 302 388 c 0
 312 454 252 485 198 490 c 1
 200 502 l 1
 266 497 333 463 321 386 c 0
 311 320 250 274 180 274 c 0
582 324 m 0
 591 378 645 426 704 426 c 0
 763 426 800 374 792 322 c 0
 784 264 726 218 670 219 c 0
 614 219 574 268 582 324 c 0
600 322 m 0
 593 276 628 233 670 232 c 0
 713 231 766 275 773 322 c 0
 780 366 751 407 702 408 c 0
 652 409 607 368 600 322 c 0
533 112 m 0
 543 176 607 226 670 226 c 0
 732 226 777 175 769 112 c 0
 760 48 702 -7 632 -6 c 0
 562 -5 523 50 533 112 c 0
553 114 m 0
 544 60 574 13 632 12 c 0
 691 11 742 58 750 114 c 0
 758 166 722 212 670 213 c 0
 618 214 562 168 553 114 c 0
EndSplineSet
EndChar

StartChar: fiveeighths
Encoding: 8541 8541 166
Width: 855
VWidth: 0
Flags: HMW
LayerCount: 2
Fore
SplineSet
798 699 m 1
 826 699 l 1
 166 0 l 1
 137 0 l 1
 798 699 l 1
340 416 m 0
 328 332 261 272 181 272 c 0
 118 272 86 308 67 360 c 1
 84 371 l 1
 100 325 128 291 182 291 c 0
 252 291 310 344 320 416 c 0
 329 476 297 529 236 531 c 0
 187 533 146 507 110 475 c 1
 129 500 l 1
 155 528 199 550 244 549 c 0
 314 548 350 486 340 416 c 0
215 680 m 1
 140 504 l 1
 108 474 l 1
 202 698 l 1
 395 698 l 1
 392 680 l 1
 215 680 l 1
616 324 m 0
 625 378 679 426 738 426 c 0
 797 426 834 374 826 322 c 0
 818 264 760 218 704 219 c 0
 648 219 608 268 616 324 c 0
635 322 m 0
 628 276 662 233 704 232 c 0
 747 231 800 275 807 322 c 0
 814 366 786 407 737 408 c 0
 687 409 642 368 635 322 c 0
568 112 m 0
 578 176 640 226 703 226 c 0
 765 226 810 175 802 112 c 0
 793 48 736 -7 666 -6 c 0
 596 -5 558 50 568 112 c 0
586 114 m 0
 577 60 608 13 666 12 c 0
 725 11 776 58 784 114 c 0
 792 166 756 212 704 213 c 0
 652 214 595 168 586 114 c 0
EndSplineSet
EndChar

StartChar: seveneighths
Encoding: 8542 8542 167
Width: 749
VWidth: 0
Flags: HMW
LayerCount: 2
Fore
SplineSet
690 699 m 1
 718 699 l 1
 58 0 l 1
 30 0 l 1
 690 699 l 1
122 682 m 1
 124 700 l 1
 403 700 l 1
 122 281 l 1
 100 281 l 1
 370 681 l 1
 122 682 l 1
509 324 m 0
 518 378 572 426 631 426 c 0
 690 426 727 374 719 322 c 0
 711 264 653 218 597 219 c 0
 541 219 501 268 509 324 c 0
528 322 m 0
 521 276 556 233 598 232 c 0
 641 231 693 275 700 322 c 0
 707 366 679 407 630 408 c 0
 580 409 535 368 528 322 c 0
461 112 m 0
 471 176 534 226 597 226 c 0
 659 226 703 175 695 112 c 0
 686 48 629 -7 559 -6 c 0
 489 -5 451 50 461 112 c 0
479 114 m 0
 470 60 502 13 560 12 c 0
 619 11 670 58 678 114 c 0
 686 166 649 212 597 213 c 0
 545 214 488 168 479 114 c 0
EndSplineSet
EndChar

StartChar: uni2074
Encoding: 8308 8308 168
Width: 364
VWidth: 0
Flags: HMW
LayerCount: 2
Fore
SplineSet
68 364 m 1
 86 382 l 1
 288 382 l 1
 293 382 l 1
 365 382 l 1
 362 364 l 1
 68 364 l 1
88 365 m 1
 67 365 l 1
 348 699 l 1
 356 700 l 1
 284 280 l 1
 264 280 l 1
 280 372 l 1
 280 375 l 1
 328 649 l 1
 88 365 l 1
EndSplineSet
EndChar

StartChar: uni2075
Encoding: 8309 8309 169
Width: 334
VWidth: 0
Flags: HMW
LayerCount: 2
Fore
SplineSet
340 416 m 0
 328 332 261 272 181 272 c 0
 118 272 86 308 67 360 c 1
 84 371 l 1
 100 325 128 291 182 291 c 0
 252 291 310 344 320 416 c 0
 329 476 297 529 236 531 c 0
 187 533 146 507 110 475 c 1
 129 500 l 1
 155 528 199 550 244 549 c 0
 314 548 350 486 340 416 c 0
215 680 m 1
 140 504 l 1
 108 474 l 1
 202 698 l 1
 395 698 l 1
 392 680 l 1
 215 680 l 1
EndSplineSet
EndChar

StartChar: uni2076
Encoding: 8310 8310 170
Width: 325
VWidth: 0
Flags: HMW
LayerCount: 2
Fore
SplineSet
99 412 m 0
 89 350 122 291 190 290 c 0
 258 289 314 347 324 412 c 0
 332 471 298 526 237 528 c 0
 167 530 109 473 99 412 c 0
292 697 m 1
 318 696 l 1
 146 502 l 1
 144 503 l 1
 170 527 204 545 243 544 c 0
 312 543 351 478 342 412 c 0
 331 335 269 271 189 272 c 0
 109 273 69 338 80 412 c 0
 86 446 106 480 126 504 c 1
 292 697 l 1
EndSplineSet
EndChar

StartChar: uni2077
Encoding: 8311 8311 171
Width: 341
VWidth: 0
Flags: HMW
LayerCount: 2
Fore
SplineSet
122 682 m 1
 124 700 l 1
 403 700 l 1
 122 281 l 1
 100 281 l 1
 370 681 l 1
 122 682 l 1
EndSplineSet
EndChar

StartChar: uni2078
Encoding: 8312 8312 172
Width: 298
VWidth: 0
Flags: HMW
LayerCount: 2
Fore
SplineSet
120 604 m 0
 129 658 183 706 242 706 c 0
 301 706 338 654 330 602 c 0
 322 544 264 498 208 499 c 0
 152 499 112 548 120 604 c 0
139 602 m 0
 132 556 166 513 208 512 c 0
 251 511 304 555 311 602 c 0
 318 646 290 687 241 688 c 0
 191 689 146 648 139 602 c 0
72 392 m 0
 82 456 145 506 208 506 c 0
 270 506 314 455 306 392 c 0
 297 328 240 273 170 274 c 0
 100 275 62 330 72 392 c 0
90 394 m 0
 81 340 113 293 171 292 c 0
 230 291 280 338 288 394 c 0
 296 446 260 492 208 493 c 0
 156 494 99 448 90 394 c 0
EndSplineSet
EndChar

StartChar: uni2079
Encoding: 8313 8313 173
Width: 325
VWidth: 0
Flags: HMW
LayerCount: 2
Fore
SplineSet
346 568 m 0
 356 630 323 689 255 690 c 0
 187 691 130 633 120 568 c 0
 112 509 147 454 208 452 c 0
 278 450 336 507 346 568 c 0
152 283 m 1
 127 284 l 1
 299 478 l 1
 300 477 l 1
 274 453 241 435 202 436 c 0
 133 437 93 502 102 568 c 0
 113 645 177 709 256 708 c 0
 336 707 375 642 364 568 c 0
 358 534 338 500 318 476 c 1
 152 283 l 1
EndSplineSet
EndChar

StartChar: uni2070
Encoding: 8304 8304 174
Width: 327
VWidth: 0
Flags: HMW
LayerCount: 2
Fore
SplineSet
109 490 m 0
 99 408 105 294 189 293 c 0
 273 292 327 399 340 490 c 0
 350 572 343 686 259 687 c 0
 175 688 122 581 109 490 c 0
88 490 m 0
 102 592 164 706 260 706 c 0
 357 705 371 584 360 490 c 0
 346 388 284 274 188 274 c 0
 91 275 77 396 88 490 c 0
EndSplineSet
EndChar

StartChar: uni2080
Encoding: 8320 8320 175
Width: 334
VWidth: 0
Flags: HMW
LayerCount: 2
Fore
SplineSet
61 210 m 0
 51 128 57 14 141 13 c 0
 225 12 279 119 292 210 c 0
 302 292 295 406 211 407 c 0
 127 408 74 301 61 210 c 0
41 210 m 0
 55 312 116 426 212 426 c 0
 309 425 323 304 312 210 c 0
 298 108 236 -6 140 -6 c 0
 43 -5 30 116 41 210 c 0
EndSplineSet
EndChar

StartChar: uni2084
Encoding: 8324 8324 176
Width: 364
VWidth: 0
Flags: HMW
LayerCount: 2
Fore
SplineSet
20 84 m 1
 38 102 l 1
 240 102 l 1
 245 102 l 1
 317 102 l 1
 314 84 l 1
 20 84 l 1
40 85 m 1
 20 85 l 1
 301 419 l 1
 309 420 l 1
 236 0 l 1
 216 0 l 1
 232 92 l 1
 232 95 l 1
 280 369 l 1
 40 85 l 1
EndSplineSet
EndChar

StartChar: uni2085
Encoding: 8325 8325 177
Width: 334
VWidth: 0
Flags: HMW
LayerCount: 2
Fore
SplineSet
292 136 m 0
 280 52 214 -8 134 -8 c 0
 71 -8 38 28 19 80 c 1
 36 91 l 1
 52 45 80 11 134 11 c 0
 204 11 262 64 272 136 c 0
 281 196 249 249 188 251 c 0
 139 253 98 227 62 195 c 1
 82 220 l 1
 108 248 151 270 196 269 c 0
 266 268 302 206 292 136 c 0
167 400 m 1
 92 224 l 1
 60 194 l 1
 155 418 l 1
 347 418 l 1
 344 400 l 1
 167 400 l 1
EndSplineSet
EndChar

StartChar: uni2086
Encoding: 8326 8326 178
Width: 325
VWidth: 0
Flags: HMW
LayerCount: 2
Fore
SplineSet
51 132 m 0
 41 70 73 11 141 10 c 0
 209 9 266 67 276 132 c 0
 284 191 250 246 189 248 c 0
 119 250 61 193 51 132 c 0
244 417 m 1
 270 416 l 1
 98 222 l 1
 96 223 l 1
 122 247 156 265 195 264 c 0
 264 263 303 198 294 132 c 0
 283 55 220 -9 140 -8 c 0
 60 -7 21 58 32 132 c 0
 38 166 59 200 79 224 c 1
 244 417 l 1
EndSplineSet
EndChar

StartChar: uni2087
Encoding: 8327 8327 179
Width: 341
VWidth: 0
Flags: HMW
LayerCount: 2
Fore
SplineSet
74 402 m 1
 77 420 l 1
 356 420 l 1
 74 0 l 1
 52 0 l 1
 322 401 l 1
 74 402 l 1
EndSplineSet
EndChar

StartChar: uni2088
Encoding: 8328 8328 180
Width: 298
VWidth: 0
Flags: HMW
LayerCount: 2
Fore
SplineSet
72 324 m 0
 81 378 135 426 194 426 c 0
 253 426 291 374 283 322 c 0
 275 264 216 218 160 219 c 0
 104 219 64 268 72 324 c 0
91 322 m 0
 84 276 118 233 160 232 c 0
 203 231 256 275 263 322 c 0
 270 366 242 407 193 408 c 0
 143 409 98 368 91 322 c 0
24 112 m 0
 34 176 97 226 160 226 c 0
 222 226 267 175 259 112 c 0
 250 48 192 -7 122 -6 c 0
 52 -5 14 50 24 112 c 0
43 114 m 0
 34 60 65 13 123 12 c 0
 182 11 233 58 241 114 c 0
 249 166 212 212 160 213 c 0
 108 214 52 168 43 114 c 0
EndSplineSet
EndChar

StartChar: uni2089
Encoding: 8329 8329 181
Width: 325
VWidth: 0
Flags: HMW
LayerCount: 2
Fore
SplineSet
292 288 m 0
 302 350 270 409 202 410 c 0
 134 411 78 353 68 288 c 0
 60 229 95 174 156 172 c 0
 226 170 282 227 292 288 c 0
100 3 m 1
 75 4 l 1
 246 198 l 1
 248 197 l 1
 222 173 188 155 149 156 c 0
 80 157 40 222 49 288 c 0
 60 365 125 429 204 428 c 0
 284 427 323 362 312 288 c 0
 306 254 285 220 265 196 c 1
 100 3 l 1
EndSplineSet
EndChar

StartChar: uni2081
Encoding: 8321 8321 182
Width: 286
VWidth: 0
Flags: HMW
LayerCount: 2
Fore
SplineSet
128 377 m 1
 132 398 l 1
 252 425 l 1
 179 2 l 1
 160 2 l 1
 228 400 l 1
 128 377 l 1
EndSplineSet
EndChar

StartChar: uni2082
Encoding: 8322 8322 183
Width: 325
VWidth: 0
Flags: HMW
LayerCount: 2
Fore
SplineSet
0 3 m 1
 223 206 l 2
 254 235 286 268 294 312 c 0
 302 357 279 409 217 410 c 0
 147 412 100 347 86 279 c 1
 66 279 l 1
 82 357 136 429 218 428 c 0
 293 427 321 365 312 310 c 0
 304 263 272 227 238 195 c 2
 46 21 l 1
 275 20 l 1
 272 2 l 1
 0 3 l 1
EndSplineSet
EndChar

StartChar: uni2083
Encoding: 8323 8323 184
Width: 306
VWidth: 0
Flags: HMW
LayerCount: 2
Fore
SplineSet
145 215 m 1
 147 228 l 1
 201 233 264 261 274 318 c 0
 282 364 255 407 201 408 c 0
 143 409 104 366 90 317 c 1
 71 317 l 1
 86 377 133 427 202 426 c 0
 268 425 302 372 292 318 c 0
 280 252 211 219 145 215 c 1
126 -6 m 0
 48 -6 15 47 19 111 c 1
 38 111 l 1
 35 56 61 14 127 13 c 0
 187 12 242 53 250 108 c 0
 260 174 198 205 144 210 c 1
 147 222 l 1
 213 217 280 183 268 106 c 0
 258 40 196 -6 126 -6 c 0
EndSplineSet
EndChar

StartChar: Agrave
Encoding: 192 192 185
Width: 599
VWidth: 0
Flags: HMW
LayerCount: 2
Fore
SplineSet
146 254 m 1
 159 284 l 1
 484 284 l 1
 488 254 l 1
 146 254 l 1
384 644 m 1
 174 273 l 1
 170 265 l 1
 20 0 l 1
 -17 0 l 1
 396 722 l 1
 561 0 l 1
 524 0 l 1
 468 263 l 1
 466 271 l 1
 384 644 l 1
302 936 m 1
 332 954 l 1
 465 794 l 1
 447 782 l 1
 302 936 l 1
EndSplineSet
EndChar

StartChar: Aacute
Encoding: 193 193 186
Width: 599
VWidth: 0
Flags: HMW
LayerCount: 2
Fore
SplineSet
146 254 m 1
 159 284 l 1
 484 284 l 1
 488 254 l 1
 146 254 l 1
384 644 m 1
 174 273 l 1
 170 265 l 1
 20 0 l 1
 -17 0 l 1
 396 722 l 1
 561 0 l 1
 524 0 l 1
 468 263 l 1
 466 271 l 1
 384 644 l 1
564 934 m 1
 366 782 l 1
 352 795 l 1
 538 953 l 1
 564 934 l 1
EndSplineSet
EndChar

StartChar: Acircumflex
Encoding: 194 194 187
Width: 599
VWidth: 0
Flags: HMW
LayerCount: 2
Fore
SplineSet
146 254 m 1
 159 284 l 1
 484 284 l 1
 488 254 l 1
 146 254 l 1
384 644 m 1
 174 273 l 1
 170 265 l 1
 20 0 l 1
 -17 0 l 1
 396 722 l 1
 561 0 l 1
 524 0 l 1
 468 263 l 1
 466 271 l 1
 384 644 l 1
426 892 m 1
 268 770 l 1
 250 787 l 1
 430 926 l 1
 562 786 l 1
 541 770 l 1
 426 892 l 1
EndSplineSet
EndChar

StartChar: Atilde
Encoding: 195 195 188
Width: 599
VWidth: 0
Flags: HMW
LayerCount: 2
Fore
SplineSet
146 254 m 1
 159 284 l 1
 484 284 l 1
 488 254 l 1
 146 254 l 1
384 644 m 1
 174 273 l 1
 170 265 l 1
 20 0 l 1
 -17 0 l 1
 396 722 l 1
 561 0 l 1
 524 0 l 1
 468 263 l 1
 466 271 l 1
 384 644 l 1
276 802 m 1
 288 834 314 866 358 866 c 0
 410 866 423 819 470 820 c 0
 497 821 516 841 534 866 c 1
 552 851 l 1
 532 821 504 794 467 794 c 0
 417 794 399 841 357 840 c 0
 321 839 305 812 296 790 c 1
 276 802 l 1
EndSplineSet
EndChar

StartChar: Adieresis
Encoding: 196 196 189
Width: 599
VWidth: 0
Flags: HMW
LayerCount: 2
Fore
SplineSet
146 254 m 1
 159 284 l 1
 484 284 l 1
 488 254 l 1
 146 254 l 1
384 644 m 1
 174 273 l 1
 170 265 l 1
 20 0 l 1
 -17 0 l 1
 396 722 l 1
 561 0 l 1
 524 0 l 1
 468 263 l 1
 466 271 l 1
 384 644 l 1
486 820 m 0
 487 832 502 844 514 844 c 0
 526 844 535 831 534 818 c 0
 533 806 518 796 506 796 c 0
 494 796 485 807 486 820 c 0
292 820 m 0
 293 832 307 844 319 844 c 0
 331 844 341 831 340 818 c 0
 339 806 324 796 312 796 c 0
 300 796 291 807 292 820 c 0
EndSplineSet
EndChar

StartChar: Aring
Encoding: 197 197 190
Width: 599
VWidth: 0
Flags: HMW
LayerCount: 2
Fore
SplineSet
146 254 m 1
 159 284 l 1
 484 284 l 1
 488 254 l 1
 146 254 l 1
384 644 m 1
 174 273 l 1
 170 265 l 1
 20 0 l 1
 -17 0 l 1
 396 722 l 1
 561 0 l 1
 524 0 l 1
 468 263 l 1
 466 271 l 1
 384 644 l 1
310 806 m 0
 318 861 373 904 426 904 c 0
 479 904 518 858 510 804 c 0
 502 749 447 706 394 706 c 0
 341 706 302 752 310 806 c 0
333 804 m 0
 327 762 356 727 396 726 c 0
 438 725 482 764 488 806 c 0
 494 848 464 883 424 884 c 0
 382 885 339 846 333 804 c 0
EndSplineSet
EndChar

StartChar: AE
Encoding: 198 198 191
Width: 888
VWidth: 0
Flags: HMW
LayerCount: 2
Fore
SplineSet
221 260 m 1
 226 290 l 1
 512 290 l 1
 506 259 l 1
 221 260 l 1
549 700 m 1
 576 686 l 1
 14 0 l 1
 -22 0 l 1
 549 700 l 1
466 0 m 1
 472 31 l 1
 792 31 l 1
 787 0 l 1
 466 0 l 1
587 669 m 1
 549 700 l 1
 906 700 l 1
 901 669 l 1
 587 669 l 1
530 371 m 1
 536 402 l 1
 836 402 l 1
 831 371 l 1
 530 371 l 1
568 700 m 1
 602 700 l 1
 480 0 l 1
 448 0 l 1
 568 700 l 1
EndSplineSet
EndChar

StartChar: Ccedilla
Encoding: 199 199 192
Width: 664
VWidth: 0
Flags: HMW
LayerCount: 2
Fore
SplineSet
113 350 m 0
 88 184 173 28 348 26 c 0
 442 25 519 61 583 115 c 1
 576 70 l 1
 510 21 438 -8 344 -8 c 0
 148 -7 51 164 78 350 c 0
 108 546 266 707 464 708 c 0
 553 708 615 683 671 630 c 1
 664 586 l 1
 615 646 547 674 461 674 c 0
 283 673 141 528 113 350 c 0
340 16 m 1
 367 16 l 1
 294 -70 l 1
 312 -61 326 -53 347 -54 c 0
 383 -56 411 -86 406 -128 c 0
 399 -184 341 -220 287 -220 c 0
 253 -220 231 -207 206 -182 c 1
 222 -167 l 1
 244 -186 261 -198 289 -198 c 0
 331 -198 376 -169 382 -126 c 0
 386 -93 365 -74 336 -72 c 0
 311 -70 282 -81 259 -94 c 1
 340 16 l 1
EndSplineSet
EndChar

StartChar: Egrave
Encoding: 200 200 193
Width: 506
VWidth: 0
Flags: HMW
LayerCount: 2
Fore
SplineSet
72 0 m 1
 77 31 l 1
 410 31 l 1
 406 0 l 1
 72 0 l 1
186 670 m 1
 192 700 l 1
 524 700 l 1
 520 669 l 1
 186 670 l 1
135 371 m 1
 141 402 l 1
 454 402 l 1
 450 371 l 1
 135 371 l 1
176 700 m 1
 210 700 l 1
 89 0 l 1
 57 0 l 1
 176 700 l 1
244 924 m 1
 274 940 l 1
 408 780 l 1
 390 769 l 1
 244 924 l 1
EndSplineSet
EndChar

StartChar: Eacute
Encoding: 201 201 194
Width: 506
VWidth: 0
Flags: HMW
LayerCount: 2
Fore
SplineSet
72 0 m 1
 77 31 l 1
 410 31 l 1
 406 0 l 1
 72 0 l 1
186 670 m 1
 192 700 l 1
 524 700 l 1
 520 669 l 1
 186 670 l 1
135 371 m 1
 141 402 l 1
 454 402 l 1
 450 371 l 1
 135 371 l 1
176 700 m 1
 210 700 l 1
 89 0 l 1
 57 0 l 1
 176 700 l 1
533 922 m 1
 336 769 l 1
 321 782 l 1
 508 940 l 1
 533 922 l 1
EndSplineSet
EndChar

StartChar: Ecircumflex
Encoding: 202 202 195
Width: 506
VWidth: 0
Flags: HMW
LayerCount: 2
Fore
SplineSet
72 0 m 1
 77 31 l 1
 410 31 l 1
 406 0 l 1
 72 0 l 1
186 670 m 1
 192 700 l 1
 524 700 l 1
 520 669 l 1
 186 670 l 1
135 371 m 1
 141 402 l 1
 454 402 l 1
 450 371 l 1
 135 371 l 1
176 700 m 1
 210 700 l 1
 89 0 l 1
 57 0 l 1
 176 700 l 1
388 891 m 1
 230 769 l 1
 212 787 l 1
 391 926 l 1
 524 786 l 1
 502 768 l 1
 388 891 l 1
EndSplineSet
EndChar

StartChar: Edieresis
Encoding: 203 203 196
Width: 506
VWidth: 0
Flags: HMW
LayerCount: 2
Fore
SplineSet
72 0 m 1
 77 31 l 1
 410 31 l 1
 406 0 l 1
 72 0 l 1
186 670 m 1
 192 700 l 1
 524 700 l 1
 520 669 l 1
 186 670 l 1
135 371 m 1
 141 402 l 1
 454 402 l 1
 450 371 l 1
 135 371 l 1
176 700 m 1
 210 700 l 1
 89 0 l 1
 57 0 l 1
 176 700 l 1
446 814 m 0
 447 826 462 836 474 836 c 0
 486 836 495 825 494 812 c 0
 493 800 478 788 466 788 c 0
 454 788 445 801 446 814 c 0
252 814 m 0
 253 826 267 836 279 836 c 0
 291 836 301 825 300 812 c 0
 299 800 284 788 272 788 c 0
 260 788 251 801 252 814 c 0
EndSplineSet
EndChar

StartChar: Igrave
Encoding: 204 204 197
Width: 193
VWidth: 0
Flags: HMW
LayerCount: 2
Fore
SplineSet
174 700 m 1
 206 700 l 1
 85 0 l 1
 54 0 l 1
 174 700 l 1
83 924 m 1
 113 940 l 1
 246 780 l 1
 228 769 l 1
 83 924 l 1
EndSplineSet
EndChar

StartChar: Iacute
Encoding: 205 205 198
Width: 193
VWidth: 0
Flags: HMW
LayerCount: 2
Fore
SplineSet
174 700 m 1
 206 700 l 1
 85 0 l 1
 54 0 l 1
 174 700 l 1
372 922 m 1
 174 769 l 1
 160 782 l 1
 347 940 l 1
 372 922 l 1
EndSplineSet
EndChar

StartChar: Icircumflex
Encoding: 206 206 199
Width: 193
VWidth: 0
Flags: HMW
LayerCount: 2
Fore
SplineSet
174 700 m 1
 206 700 l 1
 85 0 l 1
 54 0 l 1
 174 700 l 1
223 891 m 1
 65 769 l 1
 48 787 l 1
 227 926 l 1
 360 786 l 1
 338 768 l 1
 223 891 l 1
EndSplineSet
EndChar

StartChar: Idieresis
Encoding: 207 207 200
Width: 193
VWidth: 0
Flags: HMW
LayerCount: 2
Fore
SplineSet
174 700 m 1
 206 700 l 1
 85 0 l 1
 54 0 l 1
 174 700 l 1
260 808 m 0
 261 820 275 830 287 830 c 0
 299 830 309 819 308 806 c 0
 307 794 292 782 280 782 c 0
 268 782 259 796 260 808 c 0
107 808 m 0
 108 820 122 830 134 830 c 0
 146 830 155 819 154 806 c 0
 153 794 139 782 127 782 c 0
 115 782 106 796 107 808 c 0
EndSplineSet
EndChar

StartChar: Ntilde
Encoding: 209 209 201
Width: 677
VWidth: 0
Flags: HMW
LayerCount: 2
Fore
SplineSet
667 700 m 1
 700 700 l 1
 576 -20 l 1
 171 631 l 1
 62 0 l 1
 29 0 l 1
 153 720 l 1
 558 66 l 1
 667 700 l 1
305 768 m 1
 317 800 344 832 388 832 c 0
 437 832 453 785 500 786 c 0
 527 787 545 807 563 832 c 1
 581 817 l 1
 561 787 533 760 496 760 c 0
 450 760 428 806 386 806 c 0
 350 806 333 778 325 756 c 1
 305 768 l 1
EndSplineSet
EndChar

StartChar: Eth
Encoding: 208 208 202
Width: 659
VWidth: 0
Flags: HMW
LayerCount: 2
Fore
SplineSet
34 334 m 1
 40 364 l 1
 332 364 l 1
 326 334 l 1
 34 334 l 1
176 700 m 1
 210 700 l 1
 89 0 l 1
 57 0 l 1
 176 700 l 1
228 0 m 1
 74 0 l 1
 80 33 l 1
 232 33 l 1
 418 36 554 170 584 350 c 0
 611 522 525 663 342 667 c 1
 188 667 l 1
 193 700 l 1
 345 700 l 1
 546 696 645 540 617 350 c 0
 586 152 432 3 228 0 c 1
EndSplineSet
EndChar

StartChar: Ograve
Encoding: 210 210 203
Width: 755
VWidth: 0
Flags: HMW
LayerCount: 2
Fore
SplineSet
112 350 m 0
 87 183 174 25 354 24 c 0
 536 23 680 174 708 350 c 0
 733 517 648 675 468 676 c 0
 286 677 140 526 112 350 c 0
78 350 m 0
 108 546 270 708 470 708 c 0
 668 708 771 536 744 350 c 0
 714 154 551 -8 351 -8 c 0
 153 -8 51 164 78 350 c 0
382 924 m 1
 412 940 l 1
 544 780 l 1
 526 769 l 1
 382 924 l 1
EndSplineSet
EndChar

StartChar: Oacute
Encoding: 211 211 204
Width: 755
VWidth: 0
Flags: HMW
LayerCount: 2
Fore
SplineSet
112 350 m 0
 87 183 174 25 354 24 c 0
 536 23 680 174 708 350 c 0
 733 517 648 675 468 676 c 0
 286 677 140 526 112 350 c 0
78 350 m 0
 108 546 270 708 470 708 c 0
 668 708 771 536 744 350 c 0
 714 154 551 -8 351 -8 c 0
 153 -8 51 164 78 350 c 0
636 922 m 1
 440 769 l 1
 424 782 l 1
 610 940 l 1
 636 922 l 1
EndSplineSet
EndChar

StartChar: Ocircumflex
Encoding: 212 212 205
Width: 755
VWidth: 0
Flags: HMW
LayerCount: 2
Fore
SplineSet
112 350 m 0
 87 183 174 25 354 24 c 0
 536 23 680 174 708 350 c 0
 733 517 648 675 468 676 c 0
 286 677 140 526 112 350 c 0
78 350 m 0
 108 546 270 708 470 708 c 0
 668 708 771 536 744 350 c 0
 714 154 551 -8 351 -8 c 0
 153 -8 51 164 78 350 c 0
504 891 m 1
 347 769 l 1
 329 787 l 1
 508 926 l 1
 641 786 l 1
 619 768 l 1
 504 891 l 1
EndSplineSet
EndChar

StartChar: Otilde
Encoding: 213 213 206
Width: 755
VWidth: 0
Flags: HMW
LayerCount: 2
Fore
SplineSet
112 350 m 0
 87 183 174 25 354 24 c 0
 536 23 680 174 708 350 c 0
 733 517 648 675 468 676 c 0
 286 677 140 526 112 350 c 0
78 350 m 0
 108 546 270 708 470 708 c 0
 668 708 771 536 744 350 c 0
 714 154 551 -8 351 -8 c 0
 153 -8 51 164 78 350 c 0
352 795 m 1
 358 827 396 859 436 859 c 0
 485 859 501 812 548 813 c 0
 575 814 594 835 612 860 c 1
 628 845 l 1
 608 815 581 787 544 787 c 0
 498 787 477 833 435 833 c 0
 398 833 381 805 372 783 c 1
 352 795 l 1
EndSplineSet
EndChar

StartChar: Odieresis
Encoding: 214 214 207
Width: 755
VWidth: 0
Flags: HMW
LayerCount: 2
Fore
SplineSet
112 350 m 0
 87 183 174 25 354 24 c 0
 536 23 680 174 708 350 c 0
 733 517 648 675 468 676 c 0
 286 677 140 526 112 350 c 0
78 350 m 0
 108 546 270 708 470 708 c 0
 668 708 771 536 744 350 c 0
 714 154 551 -8 351 -8 c 0
 153 -8 51 164 78 350 c 0
570 814 m 0
 571 826 585 838 597 838 c 0
 609 838 618 827 617 814 c 0
 616 802 602 790 590 790 c 0
 578 790 569 801 570 814 c 0
362 814 m 0
 363 826 377 838 389 838 c 0
 401 838 410 827 409 814 c 0
 408 802 394 790 382 790 c 0
 370 790 361 801 362 814 c 0
EndSplineSet
EndChar

StartChar: Ugrave
Encoding: 217 217 208
Width: 573
VWidth: 0
Flags: HMW
LayerCount: 2
Fore
SplineSet
172 700 m 1
 204 700 l 1
 122 223 l 2
 108 116 147 23 262 22 c 0
 378 21 453 111 472 223 c 1
 554 700 l 1
 588 700 l 1
 506 223 l 2
 484 94 397 -10 260 -10 c 0
 124 -10 74 99 90 223 c 1
 172 700 l 1
287 924 m 1
 316 940 l 1
 450 780 l 1
 432 769 l 1
 287 924 l 1
EndSplineSet
EndChar

StartChar: Uacute
Encoding: 218 218 209
Width: 573
VWidth: 0
Flags: HMW
LayerCount: 2
Fore
SplineSet
172 700 m 1
 204 700 l 1
 122 223 l 2
 108 116 147 23 262 22 c 0
 378 21 453 111 472 223 c 1
 554 700 l 1
 588 700 l 1
 506 223 l 2
 484 94 397 -10 260 -10 c 0
 124 -10 74 99 90 223 c 1
 172 700 l 1
548 922 m 1
 351 769 l 1
 336 782 l 1
 523 940 l 1
 548 922 l 1
EndSplineSet
EndChar

StartChar: Ucircumflex
Encoding: 219 219 210
Width: 573
VWidth: 0
Flags: HMW
LayerCount: 2
Fore
SplineSet
172 700 m 1
 204 700 l 1
 122 223 l 2
 108 116 147 23 262 22 c 0
 378 21 453 111 472 223 c 1
 554 700 l 1
 588 700 l 1
 506 223 l 2
 484 94 397 -10 260 -10 c 0
 124 -10 74 99 90 223 c 1
 172 700 l 1
413 891 m 1
 255 769 l 1
 238 787 l 1
 417 926 l 1
 550 786 l 1
 528 768 l 1
 413 891 l 1
EndSplineSet
EndChar

StartChar: Udieresis
Encoding: 220 220 211
Width: 573
VWidth: 0
Flags: HMW
LayerCount: 2
Fore
SplineSet
172 700 m 1
 204 700 l 1
 122 223 l 2
 108 116 147 23 262 22 c 0
 378 21 453 111 472 223 c 1
 554 700 l 1
 588 700 l 1
 506 223 l 2
 484 94 397 -10 260 -10 c 0
 124 -10 74 99 90 223 c 1
 172 700 l 1
462 794 m 0
 463 806 477 816 489 816 c 0
 501 816 510 805 509 792 c 0
 508 780 494 768 482 768 c 0
 470 768 461 781 462 794 c 0
281 794 m 0
 282 806 296 816 308 816 c 0
 320 816 329 805 328 792 c 0
 327 780 313 768 301 768 c 0
 289 768 280 781 281 794 c 0
EndSplineSet
EndChar

StartChar: Yacute
Encoding: 221 221 212
Width: 507
VWidth: 0
Flags: HMW
LayerCount: 2
Fore
SplineSet
529 922 m 1
 332 769 l 1
 317 782 l 1
 504 940 l 1
 529 922 l 1
552 699 m 1
 590 699 l 1
 286 277 l 1
 239 0 l 1
 206 0 l 1
 255 278 l 1
 104 700 l 1
 140 700 l 1
 275 310 l 1
 552 699 l 1
EndSplineSet
EndChar

StartChar: agrave
Encoding: 224 224 213
Width: 533
VWidth: 0
Flags: HMW
LayerCount: 2
Fore
SplineSet
482 460 m 1
 511 460 l 1
 431 0 l 1
 402 0 l 1
 482 460 l 1
52 230 m 0
 72 363 176 471 304 470 c 0
 428 469 471 342 455 230 c 0
 437 110 348 -10 224 -10 c 0
 96 -10 35 104 52 230 c 0
84 230 m 0
 68 120 119 19 231 20 c 0
 335 21 424 125 441 230 c 0
 455 328 409 438 306 440 c 0
 194 442 102 346 84 230 c 0
234 692 m 1
 264 710 l 1
 396 550 l 1
 380 538 l 1
 234 692 l 1
EndSplineSet
Substitution2: "alt a" agrave.alt
EndChar

StartChar: aacute
Encoding: 225 225 214
Width: 533
VWidth: 0
Flags: HMW
LayerCount: 2
Fore
SplineSet
482 460 m 1
 511 460 l 1
 431 0 l 1
 402 0 l 1
 482 460 l 1
52 230 m 0
 72 363 176 471 304 470 c 0
 428 469 471 342 455 230 c 0
 437 110 348 -10 224 -10 c 0
 96 -10 35 104 52 230 c 0
84 230 m 0
 68 120 119 19 231 20 c 0
 335 21 424 125 441 230 c 0
 455 328 409 438 306 440 c 0
 194 442 102 346 84 230 c 0
447 690 m 1
 249 538 l 1
 234 551 l 1
 421 709 l 1
 447 690 l 1
EndSplineSet
Substitution2: "alt a" aacute.alt
EndChar

StartChar: acircumflex
Encoding: 226 226 215
Width: 533
VWidth: 0
Flags: HMW
LayerCount: 2
Fore
SplineSet
482 460 m 1
 511 460 l 1
 431 0 l 1
 402 0 l 1
 482 460 l 1
52 230 m 0
 72 363 176 471 304 470 c 0
 428 469 471 342 455 230 c 0
 437 110 348 -10 224 -10 c 0
 96 -10 35 104 52 230 c 0
84 230 m 0
 68 120 119 19 231 20 c 0
 335 21 424 125 441 230 c 0
 455 328 409 438 306 440 c 0
 194 442 102 346 84 230 c 0
346 666 m 1
 188 545 l 1
 170 562 l 1
 350 700 l 1
 482 560 l 1
 461 544 l 1
 346 666 l 1
EndSplineSet
Substitution2: "alt a" acircumflex.alt
EndChar

StartChar: atilde
Encoding: 227 227 216
Width: 533
VWidth: 0
Flags: HMW
LayerCount: 2
Fore
SplineSet
482 460 m 1
 511 460 l 1
 431 0 l 1
 402 0 l 1
 482 460 l 1
52 230 m 0
 72 363 176 471 304 470 c 0
 428 469 471 342 455 230 c 0
 437 110 348 -10 224 -10 c 0
 96 -10 35 104 52 230 c 0
84 230 m 0
 68 120 119 19 231 20 c 0
 335 21 424 125 441 230 c 0
 455 328 409 438 306 440 c 0
 194 442 102 346 84 230 c 0
191 557 m 1
 193 589 238 620 274 620 c 0
 323 620 339 573 386 574 c 0
 413 575 432 597 450 622 c 1
 468 606 l 1
 448 576 420 548 383 548 c 0
 337 548 315 595 273 594 c 0
 237 593 221 566 212 544 c 1
 191 557 l 1
EndSplineSet
Substitution2: "alt a" atilde.alt
EndChar

StartChar: adieresis
Encoding: 228 228 217
Width: 533
VWidth: 0
Flags: HMW
LayerCount: 2
Fore
SplineSet
482 460 m 1
 511 460 l 1
 431 0 l 1
 402 0 l 1
 482 460 l 1
52 230 m 0
 72 363 176 471 304 470 c 0
 428 469 471 342 455 230 c 0
 437 110 348 -10 224 -10 c 0
 96 -10 35 104 52 230 c 0
84 230 m 0
 68 120 119 19 231 20 c 0
 335 21 424 125 441 230 c 0
 455 328 409 438 306 440 c 0
 194 442 102 346 84 230 c 0
411 590 m 0
 412 602 426 614 438 614 c 0
 450 614 459 601 458 588 c 0
 457 576 443 566 431 566 c 0
 419 566 410 577 411 590 c 0
217 590 m 0
 218 602 232 614 244 614 c 0
 256 614 265 601 264 588 c 0
 263 576 249 566 237 566 c 0
 225 566 216 577 217 590 c 0
EndSplineSet
Substitution2: "alt a" adieresis.alt
EndChar

StartChar: aring
Encoding: 229 229 218
Width: 533
VWidth: 0
Flags: HMW
LayerCount: 2
Fore
SplineSet
482 460 m 1
 511 460 l 1
 431 0 l 1
 402 0 l 1
 482 460 l 1
52 230 m 0
 72 363 176 471 304 470 c 0
 428 469 471 342 455 230 c 0
 437 110 348 -10 224 -10 c 0
 96 -10 35 104 52 230 c 0
84 230 m 0
 68 120 119 19 231 20 c 0
 335 21 424 125 441 230 c 0
 455 328 409 438 306 440 c 0
 194 442 102 346 84 230 c 0
231 630 m 0
 239 685 293 729 346 729 c 0
 399 729 438 683 430 629 c 0
 422 574 367 530 314 530 c 0
 261 530 223 576 231 630 c 0
252 630 m 0
 246 588 276 553 316 552 c 0
 358 551 402 588 408 630 c 0
 414 672 385 707 345 708 c 0
 303 709 258 672 252 630 c 0
EndSplineSet
Substitution2: "alt a" aring.alt
EndChar

StartChar: germandbls
Encoding: 223 223 219
Width: 540
VWidth: 0
Flags: HMW
LayerCount: 2
Fore
SplineSet
302 -10 m 0
 244 -10 186 13 153 49 c 1
 172 71 l 1
 204 39 254 19 304 19 c 0
 400 19 472 109 472 213 c 0
 472 362 318 326 318 422 c 0
 318 502 480 519 480 650 c 0
 480 720 427 765 358 765 c 0
 268 765 196 686 180 582 c 2
 80 0 l 1
 49 0 l 1
 148 586 l 2
 166 700 250 794 362 794 c 0
 448 794 512 739 512 652 c 0
 512 502 352 491 352 421 c 0
 352 347 504 378 504 217 c 0
 504 91 416 -10 302 -10 c 0
EndSplineSet
EndChar

StartChar: ae
Encoding: 230 230 220
Width: 817
VWidth: 0
Flags: HMW
LayerCount: 2
Fore
SplineSet
165 -10 m 0
 69 -10 15 49 25 128 c 0
 35 218 120 282 234 282 c 0
 290 282 335 266 371 233 c 1
 356 232 l 1
 370 317 l 2
 383 399 351 442 281 442 c 0
 229 442 170 420 124 382 c 1
 109 406 l 1
 160 446 222 470 282 470 c 0
 374 470 411 414 390 304 c 1
 382 300 l 1
 420 398 514 470 620 470 c 0
 730 470 806 380 792 258 c 0
 791 243 789 235 784 222 c 1
 376 222 l 1
 386 230 l 1
 365 106 419 20 531 20 c 0
 609 20 682 57 734 124 c 1
 759 107 l 1
 704 32 618 -10 530 -10 c 0
 424 -10 364 49 357 158 c 1
 365 158 l 1
 335 52 262 -10 165 -10 c 0
170 18 m 0
 260 18 327 82 357 196 c 1
 351 160 l 1
 355 228 l 1
 358 215 l 1
 332 241 287 257 234 257 c 0
 140 257 66 207 56 132 c 0
 47 64 92 18 170 18 c 0
387 237 m 1
 378 250 l 1
 768 250 l 1
 755 239 l 1
 757 243 758 248 759 256 c 0
 773 362 715 442 613 442 c 0
 504 442 409 353 387 237 c 1
EndSplineSet
EndChar

StartChar: ccedilla
Encoding: 231 231 221
Width: 470
VWidth: 0
Flags: HMW
LayerCount: 2
Fore
SplineSet
78 230 m 0
 61 121 124 21 239 20 c 0
 308 20 367 54 403 87 c 1
 397 48 l 1
 359 18 301 -10 236 -10 c 0
 103 -10 30 104 48 230 c 0
 68 362 182 470 316 470 c 0
 377 470 429 445 459 412 c 1
 453 373 l 1
 429 410 377 440 313 440 c 0
 197 440 97 345 78 230 c 0
232 15 m 1
 258 15 l 1
 186 -70 l 1
 204 -61 217 -53 238 -54 c 0
 274 -56 303 -87 298 -129 c 0
 291 -185 232 -222 178 -222 c 0
 144 -222 123 -209 98 -184 c 1
 114 -168 l 1
 136 -187 153 -198 181 -198 c 0
 223 -198 268 -171 274 -128 c 0
 278 -95 256 -76 227 -74 c 0
 202 -72 173 -83 150 -96 c 1
 232 15 l 1
EndSplineSet
EndChar

StartChar: egrave
Encoding: 232 232 222
Width: 490
VWidth: 0
Flags: HMW
LayerCount: 2
Fore
SplineSet
76 222 m 1
 80 250 l 1
 436 250 l 1
 452 344 405 440 302 441 c 0
 196 442 108 351 90 241 c 1
 88 232 l 1
 76 126 119 22 228 20 c 0
 318 19 376 72 418 123 c 1
 440 106 l 1
 391 48 331 -10 223 -10 c 0
 99 -9 42 112 57 232 c 0
 61 256 67 278 76 300 c 0
 112 394 198 470 303 470 c 0
 420 469 484 364 470 248 c 0
 469 240 466 230 464 222 c 1
 76 222 l 1
185 688 m 1
 214 705 l 1
 350 545 l 1
 332 533 l 1
 185 688 l 1
EndSplineSet
EndChar

StartChar: eacute
Encoding: 233 233 223
Width: 490
VWidth: 0
Flags: HMW
LayerCount: 2
Fore
SplineSet
76 222 m 1
 80 250 l 1
 436 250 l 1
 452 344 405 440 302 441 c 0
 196 442 108 351 90 241 c 1
 88 232 l 1
 76 126 119 22 228 20 c 0
 318 19 376 72 418 123 c 1
 440 106 l 1
 391 48 331 -10 223 -10 c 0
 99 -9 42 112 57 232 c 0
 61 256 67 278 76 300 c 0
 112 394 198 470 303 470 c 0
 420 469 484 364 470 248 c 0
 469 240 466 230 464 222 c 1
 76 222 l 1
492 686 m 1
 297 533 l 1
 282 546 l 1
 466 704 l 1
 492 686 l 1
EndSplineSet
EndChar

StartChar: ecircumflex
Encoding: 234 234 224
Width: 490
VWidth: 0
Flags: HMW
LayerCount: 2
Fore
SplineSet
76 222 m 1
 80 250 l 1
 436 250 l 1
 452 344 405 440 302 441 c 0
 196 442 108 351 90 241 c 1
 88 232 l 1
 76 126 119 22 228 20 c 0
 318 19 376 72 418 123 c 1
 440 106 l 1
 391 48 331 -10 223 -10 c 0
 99 -9 42 112 57 232 c 0
 61 256 67 278 76 300 c 0
 112 394 198 470 303 470 c 0
 420 469 484 364 470 248 c 0
 469 240 466 230 464 222 c 1
 76 222 l 1
332 652 m 1
 175 530 l 1
 158 548 l 1
 336 686 l 1
 469 546 l 1
 448 530 l 1
 332 652 l 1
EndSplineSet
EndChar

StartChar: edieresis
Encoding: 235 235 225
Width: 490
VWidth: 0
Flags: HMW
LayerCount: 2
Fore
SplineSet
76 222 m 1
 80 250 l 1
 436 250 l 1
 452 344 405 440 302 441 c 0
 196 442 108 351 90 241 c 1
 88 232 l 1
 76 126 119 22 228 20 c 0
 318 19 376 72 418 123 c 1
 440 106 l 1
 391 48 331 -10 223 -10 c 0
 99 -9 42 112 57 232 c 0
 61 256 67 278 76 300 c 0
 112 394 198 470 303 470 c 0
 420 469 484 364 470 248 c 0
 469 240 466 230 464 222 c 1
 76 222 l 1
387 554 m 0
 388 566 402 578 414 578 c 0
 426 578 436 567 435 554 c 0
 434 542 420 530 408 530 c 0
 396 530 386 541 387 554 c 0
193 554 m 0
 194 566 208 578 220 578 c 0
 232 578 242 567 241 554 c 0
 240 542 226 530 214 530 c 0
 202 530 192 541 193 554 c 0
EndSplineSet
EndChar

StartChar: igrave
Encoding: 236 236 226
Width: 204
VWidth: 0
Flags: HMW
LayerCount: 2
Fore
SplineSet
139 460 m 1
 170 460 l 1
 90 0 l 1
 60 0 l 1
 139 460 l 1
40 692 m 1
 70 708 l 1
 204 548 l 1
 186 536 l 1
 40 692 l 1
EndSplineSet
EndChar

StartChar: dotlessi
Encoding: 305 305 227
Width: 204
VWidth: 0
Flags: HMW
LayerCount: 2
Fore
SplineSet
139 460 m 1
 170 460 l 1
 90 0 l 1
 60 0 l 1
 139 460 l 1
EndSplineSet
EndChar

StartChar: kgreenlandic
Encoding: 312 312 228
Width: 380
VWidth: 0
Flags: HMW
LayerCount: 2
Fore
SplineSet
126 460 m 1
 157 460 l 1
 77 0 l 1
 47 0 l 1
 126 460 l 1
367 459 m 1
 408 459 l 1
 152 270 l 1
 347 0 l 1
 309 0 l 1
 114 271 l 1
 367 459 l 1
EndSplineSet
EndChar

StartChar: iacute
Encoding: 237 237 229
Width: 204
VWidth: 0
Flags: HMW
LayerCount: 2
Fore
SplineSet
139 460 m 1
 170 460 l 1
 90 0 l 1
 60 0 l 1
 139 460 l 1
346 690 m 1
 150 537 l 1
 134 550 l 1
 320 708 l 1
 346 690 l 1
EndSplineSet
EndChar

StartChar: icircumflex
Encoding: 238 238 230
Width: 204
VWidth: 0
Flags: HMW
LayerCount: 2
Fore
SplineSet
139 460 m 1
 170 460 l 1
 90 0 l 1
 60 0 l 1
 139 460 l 1
188 656 m 1
 31 534 l 1
 14 551 l 1
 192 690 l 1
 325 550 l 1
 304 534 l 1
 188 656 l 1
EndSplineSet
EndChar

StartChar: idieresis
Encoding: 239 239 231
Width: 204
VWidth: 0
Flags: HMW
LayerCount: 2
Fore
SplineSet
139 460 m 1
 170 460 l 1
 90 0 l 1
 60 0 l 1
 139 460 l 1
232 564 m 0
 233 576 246 588 258 588 c 0
 270 588 280 575 279 562 c 0
 278 550 264 540 252 540 c 0
 240 540 231 551 232 564 c 0
64 564 m 0
 65 576 80 588 92 588 c 0
 104 588 113 575 112 562 c 0
 111 550 96 540 84 540 c 0
 72 540 63 551 64 564 c 0
EndSplineSet
EndChar

StartChar: ntilde
Encoding: 241 241 232
Width: 475
VWidth: 0
Flags: HMW
LayerCount: 2
Fore
SplineSet
162 460 m 1
 82 0 l 1
 51 0 l 1
 131 460 l 1
 162 460 l 1
392 308 m 2
 401 378 384 439 304 440 c 0
 216 441 149 361 130 281 c 1
 115 281 l 1
 135 379 210 470 312 470 c 0
 406 470 433 397 422 311 c 1
 368 0 l 1
 338 0 l 1
 392 308 l 2
172 557 m 1
 184 589 210 620 254 620 c 0
 303 620 320 573 367 574 c 0
 394 575 412 597 430 622 c 1
 448 606 l 1
 428 576 400 548 363 548 c 0
 317 548 296 594 254 594 c 0
 218 594 200 566 192 544 c 1
 172 557 l 1
EndSplineSet
EndChar

StartChar: ograve
Encoding: 242 242 233
Width: 536
VWidth: 0
Flags: HMW
LayerCount: 2
Fore
SplineSet
52 230 m 0
 72 362 186 470 320 470 c 0
 453 470 526 356 508 230 c 0
 488 98 374 -10 240 -10 c 0
 107 -10 34 104 52 230 c 0
84 230 m 0
 67 121 128 20 243 20 c 0
 359 20 460 115 478 230 c 0
 495 339 433 440 318 440 c 0
 202 440 102 345 84 230 c 0
220 692 m 1
 250 708 l 1
 383 548 l 1
 366 536 l 1
 220 692 l 1
EndSplineSet
EndChar

StartChar: oacute
Encoding: 243 243 234
Width: 536
VWidth: 0
Flags: HMW
LayerCount: 2
Fore
SplineSet
52 230 m 0
 72 362 186 470 320 470 c 0
 453 470 526 356 508 230 c 0
 488 98 374 -10 240 -10 c 0
 107 -10 34 104 52 230 c 0
84 230 m 0
 67 121 128 20 243 20 c 0
 359 20 460 115 478 230 c 0
 495 339 433 440 318 440 c 0
 202 440 102 345 84 230 c 0
499 690 m 1
 302 537 l 1
 287 550 l 1
 474 708 l 1
 499 690 l 1
EndSplineSet
EndChar

StartChar: ocircumflex
Encoding: 244 244 235
Width: 536
VWidth: 0
Flags: HMW
LayerCount: 2
Fore
SplineSet
52 230 m 0
 72 362 186 470 320 470 c 0
 453 470 526 356 508 230 c 0
 488 98 374 -10 240 -10 c 0
 107 -10 34 104 52 230 c 0
84 230 m 0
 67 121 128 20 243 20 c 0
 359 20 460 115 478 230 c 0
 495 339 433 440 318 440 c 0
 202 440 102 345 84 230 c 0
357 672 m 1
 199 551 l 1
 182 568 l 1
 361 706 l 1
 494 566 l 1
 472 550 l 1
 357 672 l 1
EndSplineSet
EndChar

StartChar: otilde
Encoding: 245 245 236
Width: 536
VWidth: 0
Flags: HMW
LayerCount: 2
Fore
SplineSet
52 230 m 0
 72 362 186 470 320 470 c 0
 453 470 526 356 508 230 c 0
 488 98 374 -10 240 -10 c 0
 107 -10 34 104 52 230 c 0
84 230 m 0
 67 121 128 20 243 20 c 0
 359 20 460 115 478 230 c 0
 495 339 433 440 318 440 c 0
 202 440 102 345 84 230 c 0
202 557 m 1
 198 589 253 620 285 620 c 0
 334 620 351 573 398 574 c 0
 425 575 443 597 461 622 c 1
 479 606 l 1
 459 576 431 548 394 548 c 0
 348 548 326 595 284 594 c 0
 248 593 232 566 223 544 c 1
 202 557 l 1
EndSplineSet
EndChar

StartChar: odieresis
Encoding: 246 246 237
Width: 536
VWidth: 0
Flags: HMW
LayerCount: 2
Fore
SplineSet
52 230 m 0
 72 362 186 470 320 470 c 0
 453 470 526 356 508 230 c 0
 488 98 374 -10 240 -10 c 0
 107 -10 34 104 52 230 c 0
84 230 m 0
 67 121 128 20 243 20 c 0
 359 20 460 115 478 230 c 0
 495 339 433 440 318 440 c 0
 202 440 102 345 84 230 c 0
413 578 m 0
 414 590 428 602 440 602 c 0
 452 602 461 589 460 576 c 0
 459 564 445 554 433 554 c 0
 421 554 412 565 413 578 c 0
219 578 m 0
 220 590 234 602 246 602 c 0
 258 602 267 589 266 576 c 0
 265 564 251 554 239 554 c 0
 227 554 218 565 219 578 c 0
EndSplineSet
EndChar

StartChar: ugrave
Encoding: 249 249 238
Width: 475
VWidth: 0
Flags: HMW
LayerCount: 2
Fore
SplineSet
338 0 m 1
 418 460 l 1
 448 460 l 1
 369 0 l 1
 338 0 l 1
110 159 m 2
 101 86 114 21 196 20 c 0
 284 19 351 99 370 179 c 1
 385 179 l 1
 365 81 290 -11 188 -10 c 0
 92 -10 67 66 78 156 c 1
 132 460 l 1
 162 460 l 1
 110 159 l 2
188 698 m 1
 218 716 l 1
 352 556 l 1
 334 544 l 1
 188 698 l 1
EndSplineSet
EndChar

StartChar: uacute
Encoding: 250 250 239
Width: 475
VWidth: 0
Flags: HMW
LayerCount: 2
Fore
SplineSet
338 0 m 1
 418 460 l 1
 448 460 l 1
 369 0 l 1
 338 0 l 1
110 159 m 2
 101 86 114 21 196 20 c 0
 284 19 351 99 370 179 c 1
 385 179 l 1
 365 81 290 -11 188 -10 c 0
 92 -10 67 66 78 156 c 1
 132 460 l 1
 162 460 l 1
 110 159 l 2
471 696 m 1
 274 544 l 1
 259 557 l 1
 446 715 l 1
 471 696 l 1
EndSplineSet
EndChar

StartChar: ucircumflex
Encoding: 251 251 240
Width: 475
VWidth: 0
Flags: HMW
LayerCount: 2
Fore
SplineSet
338 0 m 1
 418 460 l 1
 448 460 l 1
 369 0 l 1
 338 0 l 1
110 159 m 2
 101 86 114 21 196 20 c 0
 284 19 351 99 370 179 c 1
 385 179 l 1
 365 81 290 -11 188 -10 c 0
 92 -10 67 66 78 156 c 1
 132 460 l 1
 162 460 l 1
 110 159 l 2
326 666 m 1
 167 544 l 1
 150 561 l 1
 330 700 l 1
 462 560 l 1
 440 544 l 1
 326 666 l 1
EndSplineSet
EndChar

StartChar: udieresis
Encoding: 252 252 241
Width: 475
VWidth: 0
Flags: HMW
LayerCount: 2
Fore
SplineSet
338 0 m 1
 418 460 l 1
 448 460 l 1
 369 0 l 1
 338 0 l 1
110 159 m 2
 101 86 114 21 196 20 c 0
 284 19 351 99 370 179 c 1
 385 179 l 1
 365 81 290 -11 188 -10 c 0
 92 -10 67 66 78 156 c 1
 132 460 l 1
 162 460 l 1
 110 159 l 2
368 575 m 0
 369 587 384 598 396 598 c 0
 408 597 417 587 416 574 c 0
 415 562 400 550 388 550 c 0
 376 550 367 563 368 575 c 0
201 575 m 0
 202 587 216 598 228 598 c 0
 240 597 249 587 248 574 c 0
 247 562 234 550 222 550 c 0
 210 550 200 563 201 575 c 0
EndSplineSet
EndChar

StartChar: yacute
Encoding: 253 253 242
Width: 416
VWidth: 0
Flags: HMW
LayerCount: 2
Fore
SplineSet
462 460 m 1
 54 -220 l 1
 20 -219 l 1
 173 35 l 1
 58 460 l 1
 94 460 l 1
 200 44 l 1
 184 46 l 1
 428 460 l 1
 462 460 l 1
443 690 m 1
 247 537 l 1
 231 550 l 1
 418 708 l 1
 443 690 l 1
EndSplineSet
EndChar

StartChar: thorn
Encoding: 254 254 243
Width: 533
VWidth: 0
Flags: HMW
LayerCount: 2
Fore
SplineSet
40 -220 m 1
 10 -220 l 1
 181 780 l 1
 211 780 l 1
 40 -220 l 1
506 230 m 0
 486 97 382 -11 254 -10 c 0
 130 -9 87 118 103 230 c 0
 121 350 209 470 333 470 c 0
 461 470 523 356 506 230 c 0
474 230 m 0
 490 340 438 441 326 440 c 0
 222 439 134 335 117 230 c 0
 103 132 149 22 252 20 c 0
 364 18 456 114 474 230 c 0
EndSplineSet
EndChar

StartChar: ydieresis
Encoding: 255 255 244
Width: 416
VWidth: 0
Flags: HMW
LayerCount: 2
Fore
SplineSet
462 460 m 1
 54 -220 l 1
 20 -219 l 1
 173 35 l 1
 58 460 l 1
 94 460 l 1
 200 44 l 1
 184 46 l 1
 428 460 l 1
 462 460 l 1
338 568 m 0
 339 580 353 592 365 592 c 0
 377 592 387 581 386 568 c 0
 385 556 370 544 358 544 c 0
 346 545 337 555 338 568 c 0
172 568 m 0
 173 580 186 592 198 592 c 0
 210 592 220 581 219 568 c 0
 218 556 202 544 190 544 c 0
 178 545 171 555 172 568 c 0
EndSplineSet
EndChar

StartChar: Amacron
Encoding: 256 256 245
Width: 599
VWidth: 0
Flags: HMW
LayerCount: 2
Fore
SplineSet
146 254 m 1
 159 284 l 1
 484 284 l 1
 488 254 l 1
 146 254 l 1
384 644 m 1
 174 273 l 1
 170 265 l 1
 20 0 l 1
 -17 0 l 1
 396 722 l 1
 561 0 l 1
 524 0 l 1
 468 263 l 1
 466 271 l 1
 384 644 l 1
239 796 m 1
 244 824 l 1
 584 824 l 1
 579 795 l 1
 239 796 l 1
EndSplineSet
EndChar

StartChar: amacron
Encoding: 257 257 246
Width: 533
VWidth: 0
Flags: HMW
LayerCount: 2
Fore
SplineSet
482 460 m 1
 511 460 l 1
 431 0 l 1
 402 0 l 1
 482 460 l 1
52 230 m 0
 72 363 176 471 304 470 c 0
 428 469 471 342 455 230 c 0
 437 110 348 -10 224 -10 c 0
 96 -10 35 104 52 230 c 0
84 230 m 0
 68 120 119 19 231 20 c 0
 335 21 424 125 441 230 c 0
 455 328 409 438 306 440 c 0
 194 442 102 346 84 230 c 0
151 547 m 1
 156 577 l 1
 496 577 l 1
 491 547 l 1
 151 547 l 1
EndSplineSet
Substitution2: "alt a" amacron.alt
EndChar

StartChar: breve
Encoding: 728 728 247
Width: 529
VWidth: 0
Flags: HMW
LayerCount: 2
Fore
SplineSet
226 850 m 1
 253 850 l 1
 249 792 282 737 360 737 c 0
 440 737 487 793 504 850 c 1
 532 849 l 1
 514 777 456 710 358 710 c 0
 262 710 221 776 226 850 c 1
EndSplineSet
EndChar

StartChar: Abreve
Encoding: 258 258 248
Width: 599
VWidth: 0
Flags: HMW
LayerCount: 2
Fore
SplineSet
146 254 m 1
 159 284 l 1
 484 284 l 1
 488 254 l 1
 146 254 l 1
384 644 m 1
 174 273 l 1
 170 265 l 1
 20 0 l 1
 -17 0 l 1
 396 722 l 1
 561 0 l 1
 524 0 l 1
 468 263 l 1
 466 271 l 1
 384 644 l 1
278 928 m 1
 306 928 l 1
 301 870 332 815 410 815 c 0
 490 815 539 871 557 927 c 1
 586 927 l 1
 566 855 506 788 408 788 c 0
 312 788 272 854 278 928 c 1
EndSplineSet
EndChar

StartChar: abreve
Encoding: 259 259 249
Width: 533
VWidth: 0
Flags: HMW
LayerCount: 2
Fore
SplineSet
482 460 m 1
 511 460 l 1
 431 0 l 1
 402 0 l 1
 482 460 l 1
52 230 m 0
 72 363 176 471 304 470 c 0
 428 469 471 342 455 230 c 0
 437 110 348 -10 224 -10 c 0
 96 -10 35 104 52 230 c 0
84 230 m 0
 68 120 119 19 231 20 c 0
 335 21 424 125 441 230 c 0
 455 328 409 438 306 440 c 0
 194 442 102 346 84 230 c 0
182 684 m 1
 210 684 l 1
 206 626 237 570 315 570 c 0
 395 570 444 626 462 683 c 1
 490 683 l 1
 471 611 412 544 314 544 c 0
 218 544 176 610 182 684 c 1
EndSplineSet
Substitution2: "alt a" abreve.alt
EndChar

StartChar: Aogonek
Encoding: 260 260 250
Width: 599
VWidth: 0
Flags: HMW
LayerCount: 2
Fore
SplineSet
146 254 m 1
 160 284 l 1
 484 284 l 1
 488 254 l 1
 146 254 l 1
384 644 m 1
 174 273 l 1
 170 265 l 1
 20 0 l 1
 -17 0 l 1
 396 722 l 1
 561 0 l 1
 524 0 l 1
 468 263 l 1
 466 271 l 1
 384 644 l 1
558 -160 m 1
 570 -181 l 1
 547 -201 511 -220 471 -220 c 0
 411 -220 370 -187 378 -134 c 0
 389 -62 478 -19 546 14 c 1
 562 0 l 1
 502 -28 419 -68 410 -128 c 0
 405 -168 435 -191 475 -192 c 0
 508 -193 538 -175 558 -160 c 1
EndSplineSet
EndChar

StartChar: aogonek
Encoding: 261 261 251
Width: 533
VWidth: 0
Flags: HMW
LayerCount: 2
Fore
SplineSet
482 460 m 1
 511 460 l 1
 431 0 l 1
 402 0 l 1
 482 460 l 1
52 230 m 0
 72 363 176 471 304 470 c 0
 428 469 471 342 455 230 c 0
 437 110 348 -10 224 -10 c 0
 96 -10 35 104 52 230 c 0
84 230 m 0
 68 120 119 19 231 20 c 0
 335 21 424 125 441 230 c 0
 455 328 409 438 306 440 c 0
 194 442 102 346 84 230 c 0
428 -160 m 1
 440 -181 l 1
 417 -201 382 -220 342 -220 c 0
 282 -220 242 -187 250 -134 c 0
 261 -62 349 -19 417 14 c 1
 432 0 l 1
 372 -28 290 -68 281 -128 c 0
 276 -168 306 -191 346 -192 c 0
 379 -193 408 -175 428 -160 c 1
EndSplineSet
Substitution2: "alt a" aogonek.alt
EndChar

StartChar: Cacute
Encoding: 262 262 252
Width: 664
VWidth: 0
Flags: HMW
LayerCount: 2
Fore
SplineSet
113 350 m 0
 88 184 173 28 348 26 c 0
 442 25 519 61 583 115 c 1
 576 70 l 1
 510 21 438 -8 344 -8 c 0
 148 -7 51 164 78 350 c 0
 108 546 266 707 464 708 c 0
 553 708 615 683 671 630 c 1
 664 586 l 1
 615 646 547 674 461 674 c 0
 283 673 141 528 113 350 c 0
632 922 m 1
 436 769 l 1
 420 782 l 1
 608 940 l 1
 632 922 l 1
EndSplineSet
EndChar

StartChar: cacute
Encoding: 263 263 253
Width: 470
VWidth: 0
Flags: HMW
LayerCount: 2
Fore
SplineSet
78 230 m 0
 61 121 124 21 239 20 c 0
 308 20 367 54 403 87 c 1
 397 48 l 1
 359 18 301 -10 236 -10 c 0
 103 -10 30 104 48 230 c 0
 68 362 182 470 316 470 c 0
 377 470 429 445 459 412 c 1
 453 373 l 1
 429 410 377 440 313 440 c 0
 197 440 97 345 78 230 c 0
492 690 m 1
 296 538 l 1
 279 551 l 1
 466 709 l 1
 492 690 l 1
EndSplineSet
EndChar

StartChar: Ccircumflex
Encoding: 264 264 254
Width: 664
VWidth: 0
Flags: HMW
LayerCount: 2
Fore
SplineSet
113 350 m 0
 88 184 173 28 348 26 c 0
 442 25 519 61 583 115 c 1
 576 70 l 1
 510 21 438 -8 344 -8 c 0
 148 -7 51 164 78 350 c 0
 108 546 266 707 464 708 c 0
 553 708 615 683 671 630 c 1
 664 586 l 1
 615 646 547 674 461 674 c 0
 283 673 141 528 113 350 c 0
498 891 m 1
 340 769 l 1
 322 787 l 1
 502 926 l 1
 634 786 l 1
 613 768 l 1
 498 891 l 1
EndSplineSet
EndChar

StartChar: ccircumflex
Encoding: 265 265 255
Width: 470
VWidth: 0
Flags: HMW
LayerCount: 2
Fore
SplineSet
78 230 m 0
 61 121 124 21 239 20 c 0
 308 20 367 54 403 87 c 1
 397 48 l 1
 359 18 301 -10 236 -10 c 0
 103 -10 30 104 48 230 c 0
 68 362 182 470 316 470 c 0
 377 470 429 445 459 412 c 1
 453 373 l 1
 429 410 377 440 313 440 c 0
 197 440 97 345 78 230 c 0
350 652 m 1
 192 531 l 1
 174 548 l 1
 353 686 l 1
 486 546 l 1
 464 530 l 1
 350 652 l 1
EndSplineSet
EndChar

StartChar: Cdotaccent
Encoding: 266 266 256
Width: 664
VWidth: 0
Flags: HMW
LayerCount: 2
Fore
SplineSet
113 350 m 0
 88 184 173 28 348 26 c 0
 442 25 519 61 583 115 c 1
 576 70 l 1
 510 21 438 -8 344 -8 c 0
 148 -7 51 164 78 350 c 0
 108 546 266 707 464 708 c 0
 553 708 615 683 671 630 c 1
 664 586 l 1
 615 646 547 674 461 674 c 0
 283 673 141 528 113 350 c 0
458 800 m 0
 459 812 472 824 484 824 c 0
 496 824 505 813 504 800 c 0
 503 788 490 776 478 776 c 0
 466 776 457 787 458 800 c 0
EndSplineSet
EndChar

StartChar: cdotaccent
Encoding: 267 267 257
Width: 470
VWidth: 0
Flags: HMW
LayerCount: 2
Fore
SplineSet
78 230 m 0
 61 121 124 21 239 20 c 0
 308 20 367 54 403 87 c 1
 397 48 l 1
 359 18 301 -10 236 -10 c 0
 103 -10 30 104 48 230 c 0
 68 362 182 470 316 470 c 0
 377 470 429 445 459 412 c 1
 453 373 l 1
 429 410 377 440 313 440 c 0
 197 440 97 345 78 230 c 0
309 562 m 0
 310 574 324 586 336 586 c 0
 348 586 357 573 356 560 c 0
 355 548 340 538 328 538 c 0
 316 538 308 549 309 562 c 0
EndSplineSet
EndChar

StartChar: Ccaron
Encoding: 268 268 258
Width: 664
VWidth: 0
Flags: HMW
LayerCount: 2
Fore
SplineSet
113 350 m 0
 88 184 173 28 348 26 c 0
 442 25 519 61 583 115 c 1
 576 70 l 1
 510 21 438 -8 344 -8 c 0
 148 -7 51 164 78 350 c 0
 108 546 266 707 464 708 c 0
 553 708 615 683 671 630 c 1
 664 586 l 1
 615 646 547 674 461 674 c 0
 283 673 141 528 113 350 c 0
482 810 m 1
 638 932 l 1
 656 915 l 1
 478 776 l 1
 345 916 l 1
 368 933 l 1
 482 810 l 1
EndSplineSet
EndChar

StartChar: ccaron
Encoding: 269 269 259
Width: 470
VWidth: 0
Flags: HMW
LayerCount: 2
Fore
SplineSet
78 230 m 0
 61 121 124 21 239 20 c 0
 308 20 367 54 403 87 c 1
 397 48 l 1
 359 18 301 -10 236 -10 c 0
 103 -10 30 104 48 230 c 0
 68 362 182 470 316 470 c 0
 377 470 429 445 459 412 c 1
 453 373 l 1
 429 410 377 440 313 440 c 0
 197 440 97 345 78 230 c 0
334 578 m 1
 491 701 l 1
 509 683 l 1
 330 544 l 1
 198 684 l 1
 220 702 l 1
 334 578 l 1
EndSplineSet
EndChar

StartChar: Dcaron
Encoding: 270 270 260
Width: 628
VWidth: 0
Flags: HMW
LayerCount: 2
Fore
SplineSet
176 700 m 1
 210 700 l 1
 89 0 l 1
 57 0 l 1
 176 700 l 1
228 0 m 1
 74 0 l 1
 80 33 l 1
 232 33 l 1
 419 36 554 168 584 350 c 0
 611 522 526 663 342 667 c 1
 188 667 l 1
 193 700 l 1
 345 700 l 1
 546 696 645 540 617 350 c 0
 586 152 432 3 228 0 c 1
424 824 m 1
 582 946 l 1
 600 929 l 1
 421 790 l 1
 288 930 l 1
 310 947 l 1
 424 824 l 1
EndSplineSet
EndChar

StartChar: dcaron
Encoding: 271 271 261
Width: 553
VWidth: 0
Flags: HMW
LayerCount: 2
Fore
SplineSet
534 780 m 1
 565 780 l 1
 431 0 l 1
 401 0 l 1
 534 780 l 1
52 230 m 0
 72 363 176 471 304 470 c 0
 428 469 471 342 455 230 c 0
 437 110 348 -10 224 -10 c 0
 96 -10 35 104 52 230 c 0
84 230 m 0
 68 120 119 19 231 20 c 0
 335 21 424 125 441 230 c 0
 455 328 409 438 306 440 c 0
 194 442 102 346 84 230 c 0
729 768 m 1
 759 755 l 1
 608 507 l 1
 587 515 l 1
 729 768 l 1
EndSplineSet
EndChar

StartChar: Dcroat
Encoding: 272 272 262
Width: 659
VWidth: 0
Flags: HMW
LayerCount: 2
Fore
SplineSet
34 334 m 1
 40 364 l 1
 332 364 l 1
 326 334 l 1
 34 334 l 1
176 700 m 1
 210 700 l 1
 89 0 l 1
 57 0 l 1
 176 700 l 1
228 0 m 1
 74 0 l 1
 80 33 l 1
 232 33 l 1
 418 36 554 170 584 350 c 0
 611 522 525 663 342 667 c 1
 188 667 l 1
 193 700 l 1
 345 700 l 1
 546 696 645 540 617 350 c 0
 586 152 432 3 228 0 c 1
EndSplineSet
EndChar

StartChar: dcroat
Encoding: 273 273 263
Width: 533
VWidth: 0
Flags: HMW
LayerCount: 2
Fore
SplineSet
368 636 m 1
 372 665 l 1
 664 665 l 1
 660 636 l 1
 368 636 l 1
534 780 m 1
 565 780 l 1
 431 0 l 1
 401 0 l 1
 534 780 l 1
52 230 m 0
 72 364 176 471 304 470 c 0
 426 469 471 345 455 230 c 0
 437 107 346 -10 224 -10 c 0
 96 -10 34 102 52 230 c 0
84 230 m 0
 68 120 120 19 231 20 c 0
 337 21 424 128 441 230 c 0
 455 324 411 438 306 440 c 0
 194 442 102 346 84 230 c 0
EndSplineSet
EndChar

StartChar: Emacron
Encoding: 274 274 264
Width: 506
VWidth: 0
Flags: HMW
LayerCount: 2
Fore
SplineSet
72 0 m 1
 77 31 l 1
 410 31 l 1
 406 0 l 1
 72 0 l 1
186 670 m 1
 192 700 l 1
 524 700 l 1
 520 669 l 1
 186 670 l 1
135 371 m 1
 141 402 l 1
 454 402 l 1
 450 371 l 1
 135 371 l 1
176 700 m 1
 210 700 l 1
 89 0 l 1
 57 0 l 1
 176 700 l 1
214 816 m 1
 219 845 l 1
 559 845 l 1
 554 816 l 1
 214 816 l 1
EndSplineSet
EndChar

StartChar: emacron
Encoding: 275 275 265
Width: 490
VWidth: 0
Flags: HMW
LayerCount: 2
Fore
SplineSet
76 222 m 1
 80 250 l 1
 436 250 l 1
 452 344 405 440 302 441 c 0
 196 442 108 351 90 241 c 1
 88 232 l 1
 76 126 119 21 228 20 c 0
 318 19 376 72 418 123 c 1
 440 106 l 1
 391 48 331 -11 223 -10 c 0
 99 -9 42 112 57 232 c 0
 61 256 67 278 76 300 c 0
 112 394 198 470 303 470 c 0
 420 469 484 364 470 248 c 0
 469 240 466 230 464 222 c 1
 76 222 l 1
140 530 m 1
 145 560 l 1
 485 560 l 1
 480 530 l 1
 140 530 l 1
EndSplineSet
EndChar

StartChar: Ebreve
Encoding: 276 276 266
Width: 506
VWidth: 0
Flags: HMW
LayerCount: 2
Fore
SplineSet
72 0 m 1
 77 31 l 1
 410 31 l 1
 406 0 l 1
 72 0 l 1
186 670 m 1
 192 700 l 1
 524 700 l 1
 520 669 l 1
 186 670 l 1
135 371 m 1
 141 402 l 1
 454 402 l 1
 450 371 l 1
 135 371 l 1
176 700 m 1
 210 700 l 1
 89 0 l 1
 57 0 l 1
 176 700 l 1
240 908 m 1
 267 908 l 1
 262 850 294 796 372 796 c 0
 452 796 500 852 518 908 c 1
 547 907 l 1
 527 835 468 769 370 769 c 0
 274 769 234 834 240 908 c 1
EndSplineSet
EndChar

StartChar: ebreve
Encoding: 277 277 267
Width: 490
VWidth: 0
Flags: HMW
LayerCount: 2
Fore
SplineSet
76 222 m 1
 80 250 l 1
 436 250 l 1
 452 344 405 440 302 441 c 0
 196 442 108 351 90 241 c 1
 88 232 l 1
 76 126 119 22 228 20 c 0
 318 19 376 72 418 123 c 1
 440 106 l 1
 391 48 331 -10 223 -10 c 0
 99 -9 42 112 57 232 c 0
 61 256 67 278 76 300 c 0
 112 394 198 470 303 470 c 0
 420 469 484 364 470 248 c 0
 469 240 466 230 464 222 c 1
 76 222 l 1
172 670 m 1
 200 670 l 1
 196 612 229 556 307 556 c 0
 387 556 435 612 452 669 c 1
 480 668 l 1
 461 596 402 530 304 530 c 0
 208 530 166 596 172 670 c 1
EndSplineSet
EndChar

StartChar: Edotaccent
Encoding: 278 278 268
Width: 506
VWidth: 0
Flags: HMW
LayerCount: 2
Fore
SplineSet
72 0 m 1
 77 31 l 1
 410 31 l 1
 406 0 l 1
 72 0 l 1
186 670 m 1
 192 700 l 1
 524 700 l 1
 520 669 l 1
 186 670 l 1
135 371 m 1
 141 402 l 1
 454 402 l 1
 450 371 l 1
 135 371 l 1
176 700 m 1
 210 700 l 1
 89 0 l 1
 57 0 l 1
 176 700 l 1
343 794 m 0
 344 806 358 816 370 816 c 0
 382 816 391 805 390 792 c 0
 389 780 375 768 363 768 c 0
 351 768 342 781 343 794 c 0
EndSplineSet
EndChar

StartChar: edotaccent
Encoding: 279 279 269
Width: 490
VWidth: 0
Flags: HMW
LayerCount: 2
Fore
SplineSet
76 222 m 1
 80 250 l 1
 436 250 l 1
 452 344 405 440 302 441 c 0
 196 442 108 351 90 241 c 1
 88 232 l 1
 76 126 119 22 228 20 c 0
 318 19 376 72 418 123 c 1
 440 106 l 1
 391 48 331 -10 223 -10 c 0
 99 -9 42 112 57 232 c 0
 61 256 67 278 76 300 c 0
 112 394 198 470 303 470 c 0
 420 469 484 364 470 248 c 0
 469 240 466 230 464 222 c 1
 76 222 l 1
290 554 m 0
 291 566 306 578 318 578 c 0
 330 578 339 567 338 554 c 0
 337 542 323 530 311 530 c 0
 299 530 289 541 290 554 c 0
EndSplineSet
EndChar

StartChar: Eogonek
Encoding: 280 280 270
Width: 506
VWidth: 0
Flags: HMW
LayerCount: 2
Fore
SplineSet
72 0 m 1
 77 31 l 1
 410 31 l 1
 406 0 l 1
 72 0 l 1
186 670 m 1
 192 700 l 1
 524 700 l 1
 520 669 l 1
 186 670 l 1
135 371 m 1
 141 402 l 1
 454 402 l 1
 450 371 l 1
 135 371 l 1
176 700 m 1
 210 700 l 1
 89 0 l 1
 57 0 l 1
 176 700 l 1
366 -160 m 1
 378 -181 l 1
 355 -201 320 -220 280 -220 c 0
 220 -220 180 -187 188 -134 c 0
 199 -62 287 -19 355 14 c 1
 370 0 l 1
 310 -28 228 -68 219 -128 c 0
 214 -168 244 -191 284 -192 c 0
 317 -193 346 -175 366 -160 c 1
EndSplineSet
EndChar

StartChar: eogonek
Encoding: 281 281 271
Width: 490
VWidth: 0
Flags: HMW
LayerCount: 2
Fore
SplineSet
76 222 m 1
 80 250 l 1
 436 250 l 1
 452 344 405 440 302 441 c 0
 196 442 108 351 90 241 c 1
 88 232 l 1
 76 126 119 22 228 20 c 0
 318 19 376 72 418 123 c 1
 440 106 l 1
 391 48 331 -10 223 -10 c 0
 99 -9 42 112 57 232 c 0
 61 256 67 278 76 300 c 0
 112 394 198 470 303 470 c 0
 420 469 484 364 470 248 c 0
 469 240 466 230 464 222 c 1
 76 222 l 1
238 -163 m 1
 250 -184 l 1
 227 -204 192 -222 152 -222 c 0
 92 -222 51 -189 58 -136 c 0
 68 -64 156 -26 223 7 c 1
 240 -8 l 1
 180 -36 98 -70 90 -131 c 0
 86 -171 116 -193 156 -194 c 0
 189 -195 218 -179 238 -163 c 1
EndSplineSet
EndChar

StartChar: Ecaron
Encoding: 282 282 272
Width: 506
VWidth: 0
Flags: HMW
LayerCount: 2
Fore
SplineSet
72 0 m 1
 77 31 l 1
 410 31 l 1
 406 0 l 1
 72 0 l 1
186 670 m 1
 192 700 l 1
 524 700 l 1
 520 669 l 1
 186 670 l 1
135 371 m 1
 141 402 l 1
 454 402 l 1
 450 371 l 1
 135 371 l 1
176 700 m 1
 210 700 l 1
 89 0 l 1
 57 0 l 1
 176 700 l 1
367 803 m 1
 524 925 l 1
 542 907 l 1
 363 769 l 1
 230 908 l 1
 252 926 l 1
 367 803 l 1
EndSplineSet
EndChar

StartChar: ecaron
Encoding: 283 283 273
Width: 490
VWidth: 0
Flags: HMW
LayerCount: 2
Fore
SplineSet
76 222 m 1
 80 250 l 1
 436 250 l 1
 452 344 405 440 302 441 c 0
 196 442 108 351 90 241 c 1
 88 232 l 1
 76 126 119 22 228 20 c 0
 318 19 376 72 418 123 c 1
 440 106 l 1
 391 48 331 -10 223 -10 c 0
 99 -9 42 112 57 232 c 0
 61 256 67 278 76 300 c 0
 112 394 198 470 303 470 c 0
 420 469 484 364 470 248 c 0
 469 240 466 230 464 222 c 1
 76 222 l 1
307 564 m 1
 464 686 l 1
 482 668 l 1
 304 530 l 1
 170 670 l 1
 192 687 l 1
 307 564 l 1
EndSplineSet
EndChar

StartChar: Gcircumflex
Encoding: 284 284 274
Width: 745
VWidth: 0
Flags: HMW
LayerCount: 2
Fore
SplineSet
430 314 m 1
 435 344 l 1
 726 344 l 1
 692 164 555 -8 353 -8 c 0
 155 -8 51 164 78 350 c 0
 109 547 273 708 473 708 c 0
 589 708 673 650 722 558 c 1
 694 537 l 1
 655 621 576 676 470 676 c 0
 288 676 141 529 112 350 c 0
 87 182 176 25 356 25 c 0
 528 25 647 166 687 314 c 1
 430 314 l 1
506 891 m 1
 348 769 l 1
 331 787 l 1
 510 926 l 1
 643 786 l 1
 621 768 l 1
 506 891 l 1
EndSplineSet
EndChar

StartChar: gcircumflex
Encoding: 285 285 275
Width: 533
VWidth: 0
Flags: HMW
LayerCount: 2
Fore
SplineSet
22 -30 m 1
 52 -30 l 1
 42 -122 86 -199 188 -200 c 0
 296 -201 384 -113 403 10 c 1
 480 460 l 1
 511 460 l 1
 434 10 l 2
 412 -129 312 -230 186 -230 c 0
 66 -230 10 -140 22 -30 c 1
52 230 m 0
 72 363 176 471 304 470 c 0
 428 469 471 342 455 230 c 0
 437 110 348 -10 224 -10 c 0
 96 -10 35 104 52 230 c 0
84 230 m 0
 68 120 119 20 231 20 c 0
 336 20 425 127 441 234 c 0
 455 328 408 438 306 440 c 0
 194 442 102 346 84 230 c 0
338 652 m 1
 180 531 l 1
 162 548 l 1
 342 686 l 1
 474 546 l 1
 452 530 l 1
 338 652 l 1
EndSplineSet
EndChar

StartChar: Gbreve
Encoding: 286 286 276
Width: 745
VWidth: 0
Flags: HMW
LayerCount: 2
Fore
SplineSet
430 314 m 1
 435 344 l 1
 726 344 l 1
 692 164 555 -8 353 -8 c 0
 155 -8 51 164 78 350 c 0
 109 547 273 708 473 708 c 0
 589 708 673 650 722 558 c 1
 694 537 l 1
 655 621 576 676 470 676 c 0
 288 676 141 529 112 350 c 0
 87 182 176 25 356 25 c 0
 528 25 647 166 687 314 c 1
 430 314 l 1
354 908 m 1
 382 908 l 1
 377 850 410 796 488 796 c 0
 568 796 616 852 634 908 c 1
 662 907 l 1
 642 835 583 769 485 769 c 0
 389 769 348 834 354 908 c 1
EndSplineSet
EndChar

StartChar: gbreve
Encoding: 287 287 277
Width: 533
VWidth: 0
Flags: HMW
LayerCount: 2
Fore
SplineSet
22 -30 m 1
 52 -30 l 1
 42 -122 86 -199 188 -200 c 0
 296 -201 384 -113 403 10 c 1
 480 460 l 1
 511 460 l 1
 434 10 l 2
 412 -129 312 -230 186 -230 c 0
 66 -230 10 -140 22 -30 c 1
52 230 m 0
 72 363 176 471 304 470 c 0
 428 469 471 342 455 230 c 0
 437 110 348 -10 224 -10 c 0
 96 -10 35 104 52 230 c 0
84 230 m 0
 68 120 119 20 231 20 c 0
 336 20 425 127 441 234 c 0
 455 328 408 438 306 440 c 0
 194 442 102 346 84 230 c 0
186 670 m 1
 213 670 l 1
 208 612 240 557 318 557 c 0
 398 557 447 613 465 669 c 1
 494 669 l 1
 474 597 414 530 316 530 c 0
 220 530 180 596 186 670 c 1
EndSplineSet
EndChar

StartChar: Gdotaccent
Encoding: 288 288 278
Width: 745
VWidth: 0
Flags: HMW
LayerCount: 2
Fore
SplineSet
430 314 m 1
 435 344 l 1
 726 344 l 1
 692 164 555 -8 353 -8 c 0
 155 -8 51 164 78 350 c 0
 109 547 273 708 473 708 c 0
 589 708 673 650 722 558 c 1
 694 537 l 1
 655 621 576 676 470 676 c 0
 288 676 141 529 112 350 c 0
 87 182 176 25 356 25 c 0
 528 25 647 166 687 314 c 1
 430 314 l 1
465 794 m 0
 466 806 480 816 492 816 c 0
 504 816 513 805 512 792 c 0
 511 780 497 768 485 768 c 0
 473 768 464 781 465 794 c 0
EndSplineSet
EndChar

StartChar: gdotaccent
Encoding: 289 289 279
Width: 533
VWidth: 0
Flags: HMW
LayerCount: 2
Fore
SplineSet
22 -30 m 1
 52 -30 l 1
 42 -122 86 -199 188 -200 c 0
 296 -201 384 -113 403 10 c 1
 480 460 l 1
 511 460 l 1
 434 10 l 2
 412 -129 312 -230 186 -230 c 0
 66 -230 10 -140 22 -30 c 1
52 230 m 0
 72 363 176 471 304 470 c 0
 428 469 471 342 455 230 c 0
 437 110 348 -10 224 -10 c 0
 96 -10 35 104 52 230 c 0
84 230 m 0
 68 120 119 20 231 20 c 0
 336 20 425 127 441 234 c 0
 455 328 408 438 306 440 c 0
 194 442 102 346 84 230 c 0
304 566 m 0
 305 578 319 590 331 590 c 0
 343 590 352 579 351 566 c 0
 350 554 336 542 324 542 c 0
 312 542 303 553 304 566 c 0
EndSplineSet
EndChar

StartChar: uni0122
Encoding: 290 290 280
Width: 745
VWidth: 0
Flags: HMW
LayerCount: 2
Fore
SplineSet
430 314 m 1
 435 344 l 1
 726 344 l 1
 692 164 555 -8 353 -8 c 0
 155 -8 51 164 78 350 c 0
 109 547 273 708 473 708 c 0
 589 708 673 650 722 558 c 1
 694 537 l 1
 655 621 576 676 470 676 c 0
 288 676 141 529 112 350 c 0
 87 182 176 25 356 25 c 0
 528 25 647 166 687 314 c 1
 430 314 l 1
374 -69 m 1
 405 -82 l 1
 254 -330 l 1
 233 -323 l 1
 374 -69 l 1
EndSplineSet
EndChar

StartChar: Hcircumflex
Encoding: 292 292 281
Width: 647
VWidth: 0
Flags: HMW
LayerCount: 2
Fore
SplineSet
136 366 m 1
 140 397 l 1
 594 397 l 1
 588 366 l 1
 136 366 l 1
623 700 m 1
 656 700 l 1
 536 0 l 1
 504 0 l 1
 623 700 l 1
176 700 m 1
 210 700 l 1
 89 0 l 1
 57 0 l 1
 176 700 l 1
450 891 m 1
 292 769 l 1
 275 787 l 1
 454 926 l 1
 587 786 l 1
 565 768 l 1
 450 891 l 1
EndSplineSet
EndChar

StartChar: hcircumflex
Encoding: 293 293 282
Width: 475
VWidth: 0
Flags: HMW
LayerCount: 2
Fore
SplineSet
216 780 m 1
 82 0 l 1
 52 0 l 1
 186 780 l 1
 216 780 l 1
392 308 m 2
 401 378 384 439 304 440 c 0
 216 441 149 361 130 281 c 1
 115 281 l 1
 135 379 210 470 312 470 c 0
 406 470 433 397 422 311 c 1
 368 0 l 1
 338 0 l 1
 392 308 l 2
240 962 m 1
 82 841 l 1
 65 858 l 1
 244 996 l 1
 377 856 l 1
 354 840 l 1
 240 962 l 1
EndSplineSet
EndChar

StartChar: Itilde
Encoding: 296 296 283
Width: 193
VWidth: 0
Flags: HMW
LayerCount: 2
Fore
SplineSet
174 700 m 1
 206 700 l 1
 85 0 l 1
 54 0 l 1
 174 700 l 1
84 825 m 1
 96 857 122 888 166 888 c 0
 215 888 232 841 279 842 c 0
 306 843 324 865 342 890 c 1
 360 874 l 1
 340 844 312 816 275 816 c 0
 229 816 208 862 166 862 c 0
 130 862 112 834 104 812 c 1
 84 825 l 1
EndSplineSet
EndChar

StartChar: itilde
Encoding: 297 297 284
Width: 204
VWidth: 0
Flags: HMW
LayerCount: 2
Fore
SplineSet
139 460 m 1
 170 460 l 1
 90 0 l 1
 60 0 l 1
 139 460 l 1
50 585 m 1
 62 617 89 648 133 648 c 0
 182 648 198 601 245 602 c 0
 272 603 290 625 308 650 c 1
 326 634 l 1
 306 604 278 576 241 576 c 0
 195 576 173 622 131 622 c 0
 95 622 78 594 70 572 c 1
 50 585 l 1
EndSplineSet
EndChar

StartChar: Imacron
Encoding: 298 298 285
Width: 193
VWidth: 0
Flags: HMW
LayerCount: 2
Fore
SplineSet
174 700 m 1
 206 700 l 1
 85 0 l 1
 54 0 l 1
 174 700 l 1
62 816 m 1
 66 845 l 1
 407 845 l 1
 402 816 l 1
 62 816 l 1
EndSplineSet
EndChar

StartChar: imacron
Encoding: 299 299 286
Width: 204
VWidth: 0
Flags: HMW
LayerCount: 2
Fore
SplineSet
139 460 m 1
 170 460 l 1
 90 0 l 1
 60 0 l 1
 139 460 l 1
28 576 m 1
 32 605 l 1
 372 605 l 1
 368 576 l 1
 28 576 l 1
EndSplineSet
EndChar

StartChar: Ibreve
Encoding: 300 300 287
Width: 193
VWidth: 0
Flags: HMW
LayerCount: 2
Fore
SplineSet
174 700 m 1
 206 700 l 1
 85 0 l 1
 54 0 l 1
 174 700 l 1
70 910 m 1
 98 910 l 1
 93 852 125 797 203 797 c 0
 283 797 332 853 350 909 c 1
 378 909 l 1
 358 837 299 770 201 770 c 0
 105 770 64 836 70 910 c 1
EndSplineSet
EndChar

StartChar: ibreve
Encoding: 301 301 288
Width: 204
VWidth: 0
Flags: HMW
LayerCount: 2
Fore
SplineSet
139 460 m 1
 170 460 l 1
 90 0 l 1
 60 0 l 1
 139 460 l 1
36 670 m 1
 64 670 l 1
 59 612 91 557 169 557 c 0
 249 557 298 613 316 669 c 1
 344 669 l 1
 324 597 265 530 167 530 c 0
 71 530 30 596 36 670 c 1
EndSplineSet
EndChar

StartChar: Iogonek
Encoding: 302 302 289
Width: 193
VWidth: 0
Flags: HMW
LayerCount: 2
Fore
SplineSet
174 700 m 1
 206 700 l 1
 85 0 l 1
 54 0 l 1
 174 700 l 1
83 -160 m 1
 94 -181 l 1
 71 -201 36 -220 -4 -220 c 0
 -64 -220 -105 -187 -97 -134 c 0
 -86 -62 2 -19 70 14 c 1
 86 0 l 1
 26 -28 -57 -68 -66 -128 c 0
 -71 -168 -40 -191 0 -192 c 0
 33 -193 63 -175 83 -160 c 1
EndSplineSet
EndChar

StartChar: iogonek
Encoding: 303 303 290
Width: 204
VWidth: 0
Flags: HMW
LayerCount: 2
Fore
SplineSet
168 682 m 0
 169 694 183 704 195 704 c 0
 208 704 215 694 214 682 c 0
 213 670 200 658 188 658 c 0
 175 658 167 670 168 682 c 0
139 460 m 1
 170 460 l 1
 90 0 l 1
 60 0 l 1
 139 460 l 1
87 -160 m 1
 99 -181 l 1
 76 -201 40 -220 0 -220 c 0
 -60 -220 -100 -187 -92 -134 c 0
 -81 -62 8 -19 76 14 c 1
 91 0 l 1
 31 -28 -52 -68 -61 -128 c 0
 -66 -168 -35 -191 5 -192 c 0
 38 -193 67 -175 87 -160 c 1
EndSplineSet
EndChar

StartChar: Idotaccent
Encoding: 304 304 291
Width: 193
VWidth: 0
Flags: HMW
LayerCount: 2
Fore
SplineSet
174 700 m 1
 206 700 l 1
 85 0 l 1
 54 0 l 1
 174 700 l 1
182 798 m 0
 183 810 198 822 210 822 c 0
 222 822 231 811 230 798 c 0
 229 786 214 774 202 774 c 0
 190 774 181 785 182 798 c 0
EndSplineSet
EndChar

StartChar: uni0136
Encoding: 310 310 292
Width: 472
VWidth: 0
Flags: HMW
LayerCount: 2
Fore
SplineSet
174 700 m 1
 206 700 l 1
 86 0 l 1
 54 0 l 1
 174 700 l 1
497 699 m 1
 540 699 l 1
 180 371 l 1
 434 0 l 1
 393 0 l 1
 141 373 l 1
 497 699 l 1
267 -61 m 1
 296 -74 l 1
 146 -321 l 1
 126 -314 l 1
 267 -61 l 1
EndSplineSet
EndChar

StartChar: uni0137
Encoding: 311 311 293
Width: 380
VWidth: 0
Flags: HMW
LayerCount: 2
Fore
SplineSet
180 780 m 1
 212 780 l 1
 77 0 l 1
 48 0 l 1
 180 780 l 1
367 459 m 1
 408 459 l 1
 152 270 l 1
 347 0 l 1
 309 0 l 1
 114 271 l 1
 367 459 l 1
220 -61 m 1
 250 -74 l 1
 100 -321 l 1
 79 -314 l 1
 220 -61 l 1
EndSplineSet
EndChar

StartChar: Lacute
Encoding: 313 313 294
Width: 422
VWidth: 0
Flags: HMW
LayerCount: 2
Fore
SplineSet
176 700 m 1
 210 700 l 1
 94 31 l 1
 385 31 l 1
 380 0 l 1
 56 0 l 1
 176 700 l 1
534 922 m 1
 337 769 l 1
 322 782 l 1
 508 940 l 1
 534 922 l 1
EndSplineSet
EndChar

StartChar: lacute
Encoding: 314 314 295
Width: 189
VWidth: 0
Flags: HMW
LayerCount: 2
Fore
SplineSet
186 780 m 1
 216 780 l 1
 82 0 l 1
 52 0 l 1
 186 780 l 1
396 994 m 1
 198 841 l 1
 184 854 l 1
 370 1012 l 1
 396 994 l 1
EndSplineSet
EndChar

StartChar: uni013B
Encoding: 315 315 296
Width: 422
VWidth: 0
Flags: HMW
LayerCount: 2
Fore
SplineSet
176 700 m 1
 210 700 l 1
 94 31 l 1
 385 31 l 1
 380 0 l 1
 56 0 l 1
 176 700 l 1
214 -61 m 1
 244 -74 l 1
 94 -321 l 1
 72 -314 l 1
 214 -61 l 1
EndSplineSet
EndChar

StartChar: uni013C
Encoding: 316 316 297
Width: 189
VWidth: 0
Flags: HMW
LayerCount: 2
Fore
SplineSet
186 780 m 1
 216 780 l 1
 82 0 l 1
 52 0 l 1
 186 780 l 1
77 -61 m 1
 107 -74 l 1
 -44 -321 l 1
 -64 -314 l 1
 77 -61 l 1
EndSplineSet
EndChar

StartChar: Lcaron
Encoding: 317 317 298
Width: 422
VWidth: 0
Flags: HMW
LayerCount: 2
Fore
SplineSet
176 700 m 1
 210 700 l 1
 94 31 l 1
 385 31 l 1
 380 0 l 1
 56 0 l 1
 176 700 l 1
424 707 m 1
 454 695 l 1
 303 447 l 1
 282 455 l 1
 424 707 l 1
EndSplineSet
EndChar

StartChar: lcaron
Encoding: 318 318 299
Width: 223
VWidth: 0
Flags: HMW
LayerCount: 2
Fore
SplineSet
186 780 m 1
 216 780 l 1
 82 0 l 1
 52 0 l 1
 186 780 l 1
407 768 m 1
 437 755 l 1
 286 507 l 1
 265 515 l 1
 407 768 l 1
EndSplineSet
EndChar

StartChar: Ldot
Encoding: 319 319 300
Width: 422
VWidth: 0
Flags: HMW
LayerCount: 2
Fore
SplineSet
176 700 m 1
 210 700 l 1
 94 31 l 1
 385 31 l 1
 380 0 l 1
 56 0 l 1
 176 700 l 1
300 414 m 0
 301 426 316 438 328 438 c 0
 340 438 349 427 348 414 c 0
 347 402 332 390 320 390 c 0
 308 390 299 401 300 414 c 0
EndSplineSet
EndChar

StartChar: ldot
Encoding: 320 320 301
Width: 359
VWidth: 0
Flags: HMW
LayerCount: 2
Fore
SplineSet
186 780 m 1
 216 780 l 1
 82 0 l 1
 52 0 l 1
 186 780 l 1
260 402 m 0
 261 414 276 426 288 426 c 0
 300 426 309 415 308 402 c 0
 307 390 292 378 280 378 c 0
 268 378 259 389 260 402 c 0
EndSplineSet
EndChar

StartChar: eth
Encoding: 240 240 302
Width: 548
VWidth: 0
Flags: HMW
LayerCount: 2
Fore
SplineSet
244 -10 m 0
 124 -10 52 67 52 188 c 0
 52 325 176 443 299 443 c 0
 369 443 424 416 465 364 c 1
 452 364 l 1
 403 475 372 528 264 686 c 1
 283 708 l 1
 470 422 507 354 507 262 c 0
 508 120 385 -10 244 -10 c 0
246 20 m 0
 364 20 474 135 474 255 c 0
 474 345 413 418 303 418 c 0
 194 418 83 307 83 188 c 0
 83 87 148 20 246 20 c 0
232 515 m 1
 225 536 l 1
 495 645 l 1
 502 624 l 1
 232 515 l 1
EndSplineSet
EndChar

StartChar: racute
Encoding: 341 341 303
Width: 296
VWidth: 0
Flags: HMW
LayerCount: 2
Fore
SplineSet
162 460 m 1
 82 0 l 1
 51 0 l 1
 131 460 l 1
 162 460 l 1
314 420 m 1
 298 432 281 440 261 440 c 0
 183 442 144 355 130 281 c 1
 115 281 l 1
 131 373 182 472 270 470 c 0
 295 470 315 458 334 444 c 1
 314 420 l 1
403 684 m 1
 206 531 l 1
 191 544 l 1
 378 702 l 1
 403 684 l 1
EndSplineSet
EndChar

StartChar: rcaron
Encoding: 345 345 304
Width: 296
VWidth: 0
Flags: HMW
LayerCount: 2
Fore
SplineSet
162 460 m 1
 82 0 l 1
 51 0 l 1
 131 460 l 1
 162 460 l 1
314 420 m 1
 298 432 281 440 261 440 c 0
 183 442 144 355 130 281 c 1
 115 281 l 1
 131 373 182 472 270 470 c 0
 295 470 315 458 334 444 c 1
 314 420 l 1
250 564 m 1
 408 687 l 1
 426 669 l 1
 246 530 l 1
 114 670 l 1
 136 688 l 1
 250 564 l 1
EndSplineSet
EndChar

StartChar: Rcaron
Encoding: 344 344 305
Width: 480
VWidth: 0
Flags: HMW
LayerCount: 2
Fore
SplineSet
224 326 m 1
 259 326 l 1
 427 0 l 1
 388 0 l 1
 224 326 l 1
176 700 m 1
 210 700 l 1
 89 0 l 1
 57 0 l 1
 176 700 l 1
186 670 m 1
 191 700 l 1
 309 700 l 1
 434 698 526 626 506 502 c 0
 486 376 374 306 244 304 c 1
 123 304 l 1
 129 334 l 1
 246 334 l 1
 360 336 456 393 474 502 c 0
 492 609 414 668 306 670 c 1
 186 670 l 1
338 803 m 1
 495 925 l 1
 513 907 l 1
 334 769 l 1
 201 908 l 1
 223 926 l 1
 338 803 l 1
EndSplineSet
EndChar

StartChar: uni0213
Encoding: 531 531 306
Width: 296
VWidth: 0
Flags: HMW
LayerCount: 2
Fore
SplineSet
162 460 m 1
 82 0 l 1
 51 0 l 1
 131 460 l 1
 162 460 l 1
314 420 m 1
 298 432 281 440 261 440 c 0
 183 442 144 355 130 281 c 1
 115 281 l 1
 131 373 182 472 270 470 c 0
 295 470 315 458 334 444 c 1
 314 420 l 1
94 544 m 1
 122 544 l 1
 140 601 188 657 268 657 c 0
 346 657 379 602 375 544 c 1
 400 544 l 1
 408 616 370 683 274 684 c 0
 176 685 115 616 94 544 c 1
EndSplineSet
EndChar

StartChar: uni0212
Encoding: 530 530 307
Width: 480
VWidth: 0
Flags: HMW
LayerCount: 2
Fore
SplineSet
224 326 m 1
 259 326 l 1
 427 0 l 1
 388 0 l 1
 224 326 l 1
176 700 m 1
 210 700 l 1
 89 0 l 1
 57 0 l 1
 176 700 l 1
186 670 m 1
 191 700 l 1
 309 700 l 1
 434 698 526 626 506 502 c 0
 486 376 374 306 244 304 c 1
 123 304 l 1
 129 334 l 1
 246 334 l 1
 360 336 456 393 474 502 c 0
 492 609 414 668 306 670 c 1
 186 670 l 1
205 769 m 1
 234 769 l 1
 252 826 300 882 380 882 c 0
 458 882 490 826 486 768 c 1
 512 768 l 1
 520 840 480 907 384 908 c 0
 286 909 226 841 205 769 c 1
EndSplineSet
EndChar

StartChar: OE
Encoding: 338 338 308
Width: 932
VWidth: 0
Flags: HMW
LayerCount: 2
Fore
SplineSet
551 372 m 1
 556 402 l 1
 880 402 l 1
 875 372 l 1
 551 372 l 1
590 687 m 1
 623 688 l 1
 506 12 l 1
 474 13 l 1
 590 687 l 1
836 30 m 1
 831 0 l 1
 353 0 l 1
 153 4 42 158 71 350 c 0
 103 550 265 697 469 700 c 1
 950 700 l 1
 945 669 l 1
 609 669 l 1
 593 669 l 1
 467 669 l 1
 283 666 133 530 103 350 c 0
 76 179 175 35 355 31 c 1
 478 31 l 1
 501 31 l 1
 836 30 l 1
EndSplineSet
EndChar

StartChar: oe
Encoding: 339 339 309
Width: 890
VWidth: 0
Flags: HMW
LayerCount: 2
Fore
SplineSet
834 250 m 1
 849 342 800 440 692 441 c 0
 576 442 495 343 472 241 c 1
 470 232 l 1
 456 122 501 21 617 20 c 0
 701 19 766 67 812 123 c 1
 834 105 l 1
 779 41 710 -11 615 -10 c 0
 483 -9 427 111 444 230 c 0
 446 247 450 263 456 279 c 0
 490 385 583 471 697 470 c 0
 813 469 882 364 866 248 c 0
 865 240 862 231 860 223 c 1
 829 230 l 1
 834 250 l 1
460 222 m 1
 464 250 l 1
 858 250 l 1
 860 222 l 1
 460 222 l 1
52 230 m 0
 72 363 175 471 300 470 c 0
 420 469 475 354 459 230 c 0
 440 98 341 -10 221 -10 c 0
 96 -10 35 104 52 230 c 0
84 230 m 0
 68 120 117 20 228 20 c 0
 330 20 421 118 438 230 c 0
 452 335 403 438 302 440 c 0
 190 442 102 346 84 230 c 0
EndSplineSet
EndChar

StartChar: a.alt
Encoding: 65536 -1 310
Width: 435
VWidth: 0
Flags: HMW
LayerCount: 2
Fore
SplineSet
62 136 m 0
 51 63 101 19 167 19 c 0
 253 19 323 82 343 182 c 1
 349 159 l 1
 329 57 249 -10 157 -10 c 0
 79 -10 19 46 32 134 c 0
 47 225 129 280 227 280 c 0
 293 280 340 254 366 228 c 1
 362 207 l 1
 324 239 279 254 227 254 c 0
 151 254 75 215 62 136 c 0
122 388 m 1
 110 412 l 1
 153 440 207 471 276 470 c 0
 370 469 412 407 400 323 c 2
 344 0 l 1
 312 0 l 1
 370 322 l 2
 379 373 365 440 273 441 c 0
 209 442 160 413 122 388 c 1
EndSplineSet
EndChar

StartChar: Jcircumflex
Encoding: 308 308 312
Width: 203
VWidth: 0
Flags: HMW
LayerCount: 2
Fore
SplineSet
-158 -142 m 1
 -137 -166 -108 -188 -68 -188 c 0
 7 -188 40 -132 52 -50 c 1
 181 700 l 1
 212 700 l 1
 82 -60 l 2
 68 -154 22 -221 -72 -220 c 0
 -120 -220 -160 -192 -180 -166 c 1
 -158 -142 l 1
231 891 m 1
 72 769 l 1
 56 787 l 1
 235 926 l 1
 367 786 l 1
 344 768 l 1
 231 891 l 1
EndSplineSet
EndChar

StartChar: jcircumflex
Encoding: 309 309 313
Width: 194
VWidth: 0
Flags: HMW
LayerCount: 2
Fore
SplineSet
-124 -150 m 1
 -110 -170 -92 -187 -64 -188 c 0
 0 -189 28 -126 38 -72 c 2
 129 460 l 1
 160 460 l 1
 68 -76 l 2
 56 -150 14 -222 -68 -220 c 0
 -106 -219 -129 -196 -145 -174 c 1
 -124 -150 l 1
178 652 m 1
 21 531 l 1
 3 548 l 1
 182 686 l 1
 315 546 l 1
 294 530 l 1
 178 652 l 1
EndSplineSet
EndChar

StartChar: Nacute
Encoding: 323 323 314
Width: 677
VWidth: 0
Flags: HMW
LayerCount: 2
Fore
SplineSet
667 700 m 1
 700 700 l 1
 576 -20 l 1
 171 631 l 1
 62 0 l 1
 29 0 l 1
 153 720 l 1
 558 66 l 1
 667 700 l 1
615 908 m 1
 418 756 l 1
 403 769 l 1
 590 927 l 1
 615 908 l 1
EndSplineSet
EndChar

StartChar: nacute
Encoding: 324 324 315
Width: 475
VWidth: 0
Flags: HMW
LayerCount: 2
Fore
SplineSet
162 460 m 1
 82 0 l 1
 51 0 l 1
 131 460 l 1
 162 460 l 1
392 308 m 2
 401 378 384 439 304 440 c 0
 216 441 149 361 130 281 c 1
 118 281 l 1
 138 379 210 470 312 470 c 0
 406 470 433 397 422 311 c 1
 368 0 l 1
 338 0 l 1
 392 308 l 2
468 690 m 1
 272 538 l 1
 257 551 l 1
 444 709 l 1
 468 690 l 1
EndSplineSet
EndChar

StartChar: uni0145
Encoding: 325 325 316
Width: 677
VWidth: 0
Flags: HMW
LayerCount: 2
Fore
SplineSet
314 -43 m 1
 344 -56 l 1
 194 -303 l 1
 172 -296 l 1
 314 -43 l 1
667 700 m 1
 700 700 l 1
 576 -20 l 1
 171 631 l 1
 62 0 l 1
 29 0 l 1
 153 720 l 1
 558 66 l 1
 667 700 l 1
EndSplineSet
EndChar

StartChar: uni0146
Encoding: 326 326 317
Width: 475
VWidth: 0
Flags: HMW
LayerCount: 2
Fore
SplineSet
162 460 m 1
 82 0 l 1
 51 0 l 1
 131 460 l 1
 162 460 l 1
392 308 m 2
 401 378 384 439 304 440 c 0
 216 441 149 361 130 281 c 1
 115 281 l 1
 135 379 210 470 312 470 c 0
 406 470 433 397 422 311 c 1
 368 0 l 1
 338 0 l 1
 392 308 l 2
215 -47 m 1
 246 -60 l 1
 95 -307 l 1
 74 -300 l 1
 215 -47 l 1
EndSplineSet
EndChar

StartChar: Ncaron
Encoding: 327 327 318
Width: 677
VWidth: 0
Flags: HMW
LayerCount: 2
Fore
SplineSet
457 808 m 1
 614 931 l 1
 632 913 l 1
 453 774 l 1
 320 914 l 1
 342 932 l 1
 457 808 l 1
667 700 m 1
 700 700 l 1
 576 -20 l 1
 171 631 l 1
 62 0 l 1
 29 0 l 1
 153 720 l 1
 558 66 l 1
 667 700 l 1
EndSplineSet
EndChar

StartChar: ncaron
Encoding: 328 328 319
Width: 475
VWidth: 0
Flags: HMW
LayerCount: 2
Fore
SplineSet
162 460 m 1
 82 0 l 1
 51 0 l 1
 131 460 l 1
 162 460 l 1
392 308 m 2
 401 378 384 439 304 440 c 0
 216 441 149 361 130 281 c 1
 115 281 l 1
 135 379 210 470 312 470 c 0
 406 470 433 397 422 311 c 1
 368 0 l 1
 338 0 l 1
 392 308 l 2
306 564 m 1
 463 687 l 1
 481 669 l 1
 302 530 l 1
 170 670 l 1
 192 688 l 1
 306 564 l 1
EndSplineSet
EndChar

StartChar: Omacron
Encoding: 332 332 320
Width: 755
VWidth: 0
Flags: HMW
LayerCount: 2
Fore
SplineSet
112 350 m 0
 87 183 174 25 354 24 c 0
 536 23 680 174 708 350 c 0
 733 517 648 675 468 676 c 0
 286 677 140 526 112 350 c 0
78 350 m 0
 108 546 270 708 470 708 c 0
 668 708 771 536 744 350 c 0
 714 154 551 -8 351 -8 c 0
 153 -8 51 164 78 350 c 0
314 782 m 1
 319 812 l 1
 660 812 l 1
 654 782 l 1
 314 782 l 1
EndSplineSet
EndChar

StartChar: omacron
Encoding: 333 333 321
Width: 536
VWidth: 0
Flags: HMW
LayerCount: 2
Fore
SplineSet
52 230 m 0
 72 362 186 470 320 470 c 0
 453 470 526 356 508 230 c 0
 488 98 374 -10 240 -10 c 0
 107 -10 34 104 52 230 c 0
84 230 m 0
 67 121 128 20 243 20 c 0
 359 20 460 115 478 230 c 0
 495 339 433 440 318 440 c 0
 202 440 102 345 84 230 c 0
164 544 m 1
 170 574 l 1
 510 574 l 1
 505 544 l 1
 164 544 l 1
EndSplineSet
EndChar

StartChar: Obreve
Encoding: 334 334 322
Width: 755
VWidth: 0
Flags: HMW
LayerCount: 2
Fore
SplineSet
112 350 m 0
 87 183 174 25 354 24 c 0
 536 23 680 174 708 350 c 0
 733 517 648 675 468 676 c 0
 286 677 140 526 112 350 c 0
78 350 m 0
 108 546 270 708 470 708 c 0
 668 708 771 536 744 350 c 0
 714 154 551 -8 351 -8 c 0
 153 -8 51 164 78 350 c 0
352 908 m 1
 380 908 l 1
 375 850 408 796 486 796 c 0
 566 796 614 852 632 908 c 1
 660 907 l 1
 640 835 581 769 483 769 c 0
 387 769 346 834 352 908 c 1
EndSplineSet
EndChar

StartChar: obreve
Encoding: 335 335 323
Width: 536
VWidth: 0
Flags: HMW
LayerCount: 2
Fore
SplineSet
52 230 m 0
 72 362 186 470 320 470 c 0
 453 470 526 356 508 230 c 0
 488 98 374 -10 240 -10 c 0
 107 -10 34 104 52 230 c 0
84 230 m 0
 67 121 128 20 243 20 c 0
 359 20 460 115 478 230 c 0
 495 339 433 440 318 440 c 0
 202 440 102 345 84 230 c 0
202 670 m 1
 230 670 l 1
 225 612 256 557 334 557 c 0
 414 557 464 613 482 669 c 1
 510 669 l 1
 490 597 430 530 332 530 c 0
 236 530 196 596 202 670 c 1
EndSplineSet
EndChar

StartChar: Racute
Encoding: 340 340 324
Width: 480
VWidth: 0
Flags: HMW
LayerCount: 2
Fore
SplineSet
224 326 m 1
 259 326 l 1
 427 0 l 1
 388 0 l 1
 224 326 l 1
176 700 m 1
 210 700 l 1
 89 0 l 1
 57 0 l 1
 176 700 l 1
186 670 m 1
 191 700 l 1
 309 700 l 1
 434 698 526 626 506 502 c 0
 486 376 374 306 244 304 c 1
 123 304 l 1
 129 334 l 1
 246 334 l 1
 360 336 456 393 474 502 c 0
 492 609 414 668 306 670 c 1
 186 670 l 1
496 922 m 1
 299 769 l 1
 284 782 l 1
 471 940 l 1
 496 922 l 1
EndSplineSet
EndChar

StartChar: uni0156
Encoding: 342 342 325
Width: 480
VWidth: 0
Flags: HMW
LayerCount: 2
Fore
SplineSet
224 326 m 1
 259 326 l 1
 427 0 l 1
 388 0 l 1
 224 326 l 1
176 700 m 1
 210 700 l 1
 89 0 l 1
 57 0 l 1
 176 700 l 1
186 670 m 1
 191 700 l 1
 309 700 l 1
 434 698 526 626 506 502 c 0
 486 376 374 306 244 304 c 1
 123 304 l 1
 129 334 l 1
 246 334 l 1
 360 336 456 393 474 502 c 0
 492 609 414 668 306 670 c 1
 186 670 l 1
230 -61 m 1
 261 -74 l 1
 110 -321 l 1
 90 -314 l 1
 230 -61 l 1
EndSplineSet
EndChar

StartChar: uni0157
Encoding: 343 343 326
Width: 296
VWidth: 0
Flags: HMW
LayerCount: 2
Fore
SplineSet
162 460 m 1
 82 0 l 1
 51 0 l 1
 131 460 l 1
 162 460 l 1
314 420 m 1
 298 432 281 440 261 440 c 0
 183 442 144 355 130 281 c 1
 115 281 l 1
 131 373 182 472 270 470 c 0
 295 470 315 458 334 444 c 1
 314 420 l 1
63 -61 m 1
 93 -74 l 1
 -57 -321 l 1
 -78 -314 l 1
 63 -61 l 1
EndSplineSet
EndChar

StartChar: Scedilla
Encoding: 350 350 327
Width: 490
VWidth: 0
Flags: HMW
LayerCount: 2
Fore
SplineSet
74 206 m 1
 91 120 128 25 234 24 c 0
 338 23 404 90 418 178 c 0
 432 270 362 320 288 352 c 0
 210 386 126 439 141 544 c 0
 156 640 245 708 345 708 c 0
 449 708 495 630 510 552 c 1
 480 538 l 1
 467 605 430 676 340 676 c 0
 259 676 189 620 176 544 c 0
 161 456 240 409 316 376 c 0
 396 342 466 283 452 180 c 0
 436 75 354 -9 230 -8 c 0
 112 -7 62 91 44 190 c 1
 74 206 l 1
232 16 m 1
 258 16 l 1
 186 -70 l 1
 204 -61 218 -53 239 -54 c 0
 275 -56 303 -86 298 -128 c 0
 291 -184 233 -220 179 -220 c 0
 145 -220 123 -207 98 -182 c 1
 114 -167 l 1
 136 -186 153 -198 181 -198 c 0
 223 -198 268 -169 274 -126 c 0
 278 -93 257 -74 228 -72 c 0
 203 -70 173 -81 150 -94 c 1
 232 16 l 1
EndSplineSet
EndChar

StartChar: scedilla
Encoding: 351 351 328
Width: 391
VWidth: 0
Flags: HMW
LayerCount: 2
Fore
SplineSet
58 152 m 1
 68 89 94 21 172 20 c 0
 233 19 287 59 296 118 c 0
 306 177 255 206 200 226 c 0
 136 250 82 277 94 356 c 0
 106 428 173 468 244 468 c 0
 315 468 353 426 369 372 c 1
 342 358 l 1
 328 402 299 440 242 440 c 0
 187 440 133 409 124 356 c 0
 113 290 168 270 224 250 c 0
 285 227 338 191 328 121 c 0
 317 41 249 -9 170 -9 c 0
 76 -9 41 64 31 138 c 1
 58 152 l 1
171 15 m 1
 198 15 l 1
 125 -70 l 1
 143 -61 157 -53 178 -54 c 0
 214 -56 243 -86 238 -129 c 0
 231 -186 172 -222 118 -222 c 0
 84 -222 62 -209 37 -184 c 1
 54 -168 l 1
 76 -187 92 -198 120 -198 c 0
 162 -198 208 -171 214 -128 c 0
 218 -95 196 -74 167 -72 c 0
 142 -70 113 -83 90 -96 c 1
 171 15 l 1
EndSplineSet
EndChar

StartChar: Zcaron
Encoding: 381 381 329
Width: 521
VWidth: 0
Flags: HMW
LayerCount: 2
Fore
SplineSet
124 668 m 1
 129 700 l 1
 600 700 l 1
 53 32 l 1
 472 32 l 1
 466 0 l 1
 -11 0 l 1
 536 668 l 1
 124 668 l 1
380 803 m 1
 538 925 l 1
 556 907 l 1
 376 769 l 1
 244 908 l 1
 266 926 l 1
 380 803 l 1
EndSplineSet
EndChar

StartChar: zcaron
Encoding: 382 382 330
Width: 425
VWidth: 0
Flags: HMW
LayerCount: 2
Fore
SplineSet
289 564 m 1
 446 687 l 1
 464 669 l 1
 285 530 l 1
 152 670 l 1
 174 688 l 1
 289 564 l 1
391 430 m 1
 86 430 l 1
 92 460 l 1
 454 460 l 1
 52 30 l 1
 380 30 l 1
 375 0 l 1
 -11 0 l 1
 391 430 l 1
EndSplineSet
EndChar

StartChar: Ydieresis
Encoding: 376 376 331
Width: 507
VWidth: 0
Flags: HMW
LayerCount: 2
Fore
SplineSet
248 794 m 0
 249 806 264 816 276 816 c 0
 288 816 297 805 296 792 c 0
 295 780 280 768 268 768 c 0
 256 768 247 782 248 794 c 0
428 794 m 0
 429 806 444 816 456 816 c 0
 468 816 478 805 477 792 c 0
 476 780 461 768 449 768 c 0
 437 768 427 782 428 794 c 0
552 699 m 1
 590 699 l 1
 286 277 l 1
 239 0 l 1
 206 0 l 1
 255 278 l 1
 104 700 l 1
 140 700 l 1
 275 310 l 1
 552 699 l 1
EndSplineSet
EndChar

StartChar: Scaron
Encoding: 352 352 332
Width: 490
VWidth: 0
Flags: HMW
LayerCount: 2
Fore
SplineSet
74 206 m 1
 91 120 128 25 234 24 c 0
 338 23 404 90 418 178 c 0
 432 270 362 320 288 352 c 0
 211 386 126 443 141 546 c 0
 156 642 247 708 345 708 c 0
 448 708 498 628 510 552 c 1
 480 538 l 1
 467 604 432 675 343 676 c 0
 262 676 189 620 176 544 c 0
 161 456 240 409 316 376 c 0
 396 342 466 283 452 180 c 0
 436 74 356 -9 230 -8 c 0
 112 -7 62 91 44 190 c 1
 74 206 l 1
362 810 m 1
 520 932 l 1
 538 915 l 1
 358 776 l 1
 226 916 l 1
 248 933 l 1
 362 810 l 1
EndSplineSet
EndChar

StartChar: scaron
Encoding: 353 353 333
Width: 391
VWidth: 0
Flags: HMW
LayerCount: 2
Fore
SplineSet
59 151 m 1
 64 87 91 20 171 20 c 0
 233 20 287 60 296 119 c 0
 306 179 255 206 200 226 c 0
 136 250 82 279 94 356 c 0
 105 425 174 468 244 468 c 0
 315 468 355 426 369 372 c 1
 342 358 l 1
 328 402 299 438 242 438 c 0
 187 438 133 407 124 354 c 0
 113 290 168 268 224 248 c 0
 284 225 338 188 328 120 c 0
 317 40 248 -11 167 -10 c 0
 73 -10 36 63 31 138 c 1
 59 151 l 1
261 564 m 1
 418 687 l 1
 436 669 l 1
 258 530 l 1
 124 670 l 1
 147 688 l 1
 261 564 l 1
EndSplineSet
EndChar

StartChar: Lslash
Encoding: 321 321 334
Width: 385
VWidth: 0
Flags: HMW
LayerCount: 2
Fore
SplineSet
32 374 m 1
 26 396 l 1
 316 564 l 1
 324 542 l 1
 32 374 l 1
170 700 m 1
 204 700 l 1
 88 31 l 1
 355 31 l 1
 349 0 l 1
 50 0 l 1
 170 700 l 1
EndSplineSet
EndChar

StartChar: lslash
Encoding: 322 322 335
Width: 175
VWidth: 0
Flags: HMW
LayerCount: 2
Fore
SplineSet
33 374 m 1
 26 396 l 1
 246 544 l 1
 254 522 l 1
 33 374 l 1
179 780 m 1
 210 780 l 1
 76 0 l 1
 46 0 l 1
 179 780 l 1
EndSplineSet
EndChar

StartChar: uni0218
Encoding: 536 536 336
Width: 490
VWidth: 0
Flags: HMW
LayerCount: 2
Fore
SplineSet
74 206 m 1
 91 120 128 25 234 24 c 0
 338 23 404 90 418 178 c 0
 432 270 362 320 288 352 c 0
 211 386 126 443 141 546 c 0
 156 642 247 708 345 708 c 0
 448 708 498 628 510 552 c 1
 480 538 l 1
 467 604 432 675 343 676 c 0
 262 676 189 620 176 544 c 0
 161 456 240 409 316 376 c 0
 396 342 466 283 452 180 c 0
 436 74 356 -9 230 -8 c 0
 112 -7 62 91 44 190 c 1
 74 206 l 1
252 -69 m 1
 282 -82 l 1
 132 -330 l 1
 110 -323 l 1
 252 -69 l 1
EndSplineSet
EndChar

StartChar: uni0219
Encoding: 537 537 337
Width: 391
VWidth: 0
Flags: HMW
LayerCount: 2
Fore
SplineSet
59 151 m 1
 64 87 91 20 171 20 c 0
 233 20 287 60 296 119 c 0
 306 179 255 206 200 226 c 0
 136 250 82 279 94 356 c 0
 105 425 174 468 244 468 c 0
 315 468 355 426 369 372 c 1
 342 358 l 1
 328 402 299 438 242 438 c 0
 187 438 133 407 124 354 c 0
 113 290 168 268 224 248 c 0
 284 225 338 188 328 120 c 0
 317 40 248 -11 167 -10 c 0
 73 -10 36 63 31 138 c 1
 59 151 l 1
188 -71 m 1
 218 -84 l 1
 68 -331 l 1
 46 -324 l 1
 188 -71 l 1
EndSplineSet
EndChar

StartChar: pi
Encoding: 960 960 338
Width: 476
VWidth: 0
Flags: HMW
LayerCount: 2
Fore
SplineSet
136 444 m 1
 168 444 l 1
 90 0 l 1
 60 0 l 1
 136 444 l 1
80 460 m 1
 490 460 l 1
 484 430 l 1
 75 430 l 1
 80 460 l 1
379 444 m 1
 410 444 l 1
 354 127 l 1
 346 61 342 34 388 22 c 1
 383 -8 l 1
 317 2 313 37 323 121 c 1
 379 444 l 1
EndSplineSet
EndChar

StartChar: trademark
Encoding: 8482 8482 339
Width: 645
VWidth: 0
Flags: HMW
LayerCount: 2
Fore
SplineSet
125 684 m 1
 127 700 l 1
 326 700 l 1
 323 684 l 1
 232 684 l 1
 174 350 l 1
 158 350 l 1
 215 684 l 1
 125 684 l 1
652 662 m 1
 672 712 l 1
 646 350 l 1
 630 350 l 1
 652 662 l 1
400 710 m 1
 401 661 l 1
 316 350 l 1
 298 351 l 1
 400 710 l 1
672 711 m 1
 662 670 l 1
 481 396 l 1
 394 672 l 1
 399 710 l 1
 486 431 l 1
 672 711 l 1
EndSplineSet
EndChar

StartChar: uni2219
Encoding: 8729 8729 340
Width: 263
VWidth: 0
Flags: HMW
LayerCount: 2
Fore
SplineSet
156 440 m 0
 157 452 172 462 184 462 c 0
 196 462 204 451 203 438 c 0
 202 426 188 414 176 414 c 0
 164 414 155 427 156 440 c 0
EndSplineSet
EndChar

StartChar: agrave.alt
Encoding: 65537 -1 341
Width: 436
VWidth: 0
Flags: HMW
LayerCount: 2
Fore
SplineSet
62 135 m 0
 51 61 99 19 167 19 c 0
 257 19 324 85 344 165 c 1
 349 150 l 1
 329 64 258 -10 158 -10 c 0
 76 -10 18 44 31 132 c 0
 46 228 140 282 236 282 c 0
 300 282 340 258 366 232 c 1
 363 212 l 1
 331 240 291 256 235 256 c 0
 155 256 76 213 62 135 c 0
128 382 m 1
 115 407 l 1
 158 437 213 471 282 470 c 0
 372 469 410 405 400 323 c 1
 344 0 l 1
 313 0 l 1
 370 323 l 1
 377 389 352 440 280 441 c 0
 218 442 168 411 128 382 c 1
184 700 m 1
 214 716 l 1
 347 556 l 1
 328 544 l 1
 184 700 l 1
EndSplineSet
EndChar

StartChar: aacute.alt
Encoding: 65538 -1 342
Width: 436
VWidth: 0
Flags: HMW
LayerCount: 2
Fore
SplineSet
62 135 m 0
 51 61 99 19 167 19 c 0
 257 19 324 85 344 165 c 1
 349 150 l 1
 329 64 258 -10 158 -10 c 0
 76 -10 18 44 31 132 c 0
 46 228 140 282 236 282 c 0
 300 282 340 258 366 232 c 1
 363 212 l 1
 331 240 291 256 235 256 c 0
 155 256 76 213 62 135 c 0
128 382 m 1
 115 407 l 1
 158 437 213 471 282 470 c 0
 372 469 410 405 400 323 c 1
 344 0 l 1
 313 0 l 1
 370 323 l 1
 377 389 352 440 280 441 c 0
 218 442 168 411 128 382 c 1
448 698 m 1
 252 545 l 1
 236 558 l 1
 423 716 l 1
 448 698 l 1
EndSplineSet
EndChar

StartChar: acircumflex.alt
Encoding: 65539 -1 343
Width: 436
VWidth: 0
Flags: HMW
LayerCount: 2
Fore
SplineSet
62 135 m 0
 51 61 99 19 167 19 c 0
 257 19 324 85 344 165 c 1
 349 150 l 1
 329 64 258 -10 158 -10 c 0
 76 -10 18 44 31 132 c 0
 46 228 140 282 236 282 c 0
 300 282 340 258 366 232 c 1
 363 212 l 1
 331 240 291 256 235 256 c 0
 155 256 76 213 62 135 c 0
128 382 m 1
 115 407 l 1
 158 437 213 471 282 470 c 0
 372 469 410 405 400 323 c 1
 344 0 l 1
 313 0 l 1
 370 323 l 1
 377 389 352 440 280 441 c 0
 218 442 168 411 128 382 c 1
318 660 m 1
 160 538 l 1
 142 555 l 1
 321 694 l 1
 454 554 l 1
 432 538 l 1
 318 660 l 1
EndSplineSet
EndChar

StartChar: atilde.alt
Encoding: 65540 -1 344
Width: 436
VWidth: 0
Flags: HMW
LayerCount: 2
Fore
SplineSet
62 135 m 0
 51 61 99 19 167 19 c 0
 257 19 324 85 344 165 c 1
 349 150 l 1
 329 64 258 -10 158 -10 c 0
 76 -10 18 44 31 132 c 0
 46 228 140 282 236 282 c 0
 300 282 340 258 366 232 c 1
 363 212 l 1
 331 240 291 256 235 256 c 0
 155 256 76 213 62 135 c 0
128 382 m 1
 115 407 l 1
 158 437 213 471 282 470 c 0
 372 469 410 405 400 323 c 1
 344 0 l 1
 313 0 l 1
 370 323 l 1
 377 389 352 440 280 441 c 0
 218 442 168 411 128 382 c 1
162 578 m 1
 174 610 200 642 244 642 c 0
 293 642 310 595 357 596 c 0
 384 597 402 617 420 642 c 1
 438 627 l 1
 418 597 389 570 352 570 c 0
 306 570 286 616 244 616 c 0
 207 616 191 588 182 566 c 1
 162 578 l 1
EndSplineSet
EndChar

StartChar: adieresis.alt
Encoding: 65541 -1 345
Width: 436
VWidth: 0
Flags: HMW
LayerCount: 2
Fore
SplineSet
62 135 m 0
 51 61 99 19 167 19 c 0
 257 19 324 85 344 165 c 1
 349 150 l 1
 329 64 258 -10 158 -10 c 0
 76 -10 18 44 31 132 c 0
 46 228 140 282 236 282 c 0
 300 282 340 258 366 232 c 1
 363 212 l 1
 331 240 291 256 235 256 c 0
 155 256 76 213 62 135 c 0
128 382 m 1
 115 407 l 1
 158 437 213 471 282 470 c 0
 372 469 410 405 400 323 c 1
 344 0 l 1
 313 0 l 1
 370 323 l 1
 377 389 352 440 280 441 c 0
 218 442 168 411 128 382 c 1
353 568 m 0
 354 580 368 592 380 592 c 0
 392 592 401 581 400 568 c 0
 399 556 385 544 373 544 c 0
 361 544 352 555 353 568 c 0
186 568 m 0
 187 580 202 592 214 592 c 0
 226 592 234 581 233 568 c 0
 232 556 218 544 206 544 c 0
 194 544 185 555 186 568 c 0
EndSplineSet
EndChar

StartChar: aring.alt
Encoding: 65542 -1 346
Width: 436
VWidth: 0
Flags: HMW
LayerCount: 2
Fore
SplineSet
62 135 m 0
 51 61 99 19 167 19 c 0
 257 19 324 85 344 165 c 1
 349 150 l 1
 329 64 258 -10 158 -10 c 0
 76 -10 18 44 31 132 c 0
 46 228 140 282 236 282 c 0
 300 282 340 258 366 232 c 1
 363 212 l 1
 331 240 291 256 235 256 c 0
 155 256 76 213 62 135 c 0
128 382 m 1
 115 407 l 1
 158 437 213 471 282 470 c 0
 372 469 410 405 400 323 c 1
 344 0 l 1
 313 0 l 1
 370 323 l 1
 377 389 352 440 280 441 c 0
 218 442 168 411 128 382 c 1
212 631 m 0
 220 686 275 730 328 730 c 0
 381 730 419 683 411 629 c 0
 403 574 348 530 295 530 c 0
 242 530 204 577 212 631 c 0
234 630 m 0
 228 588 256 553 296 552 c 0
 338 551 382 588 388 630 c 0
 394 672 366 707 326 708 c 0
 284 709 240 672 234 630 c 0
EndSplineSet
EndChar

StartChar: amacron.alt
Encoding: 65543 -1 347
Width: 436
VWidth: 0
Flags: HMW
LayerCount: 2
Fore
SplineSet
62 135 m 0
 51 61 99 19 167 19 c 0
 257 19 324 85 344 165 c 1
 349 150 l 1
 329 64 258 -10 158 -10 c 0
 76 -10 18 44 31 132 c 0
 46 228 140 282 236 282 c 0
 300 282 340 258 366 232 c 1
 363 212 l 1
 331 240 291 256 235 256 c 0
 155 256 76 213 62 135 c 0
128 382 m 1
 115 407 l 1
 158 437 213 471 282 470 c 0
 372 469 410 405 400 323 c 1
 344 0 l 1
 313 0 l 1
 370 323 l 1
 377 389 352 440 280 441 c 0
 218 442 168 411 128 382 c 1
127 550 m 1
 132 580 l 1
 472 580 l 1
 468 550 l 1
 127 550 l 1
EndSplineSet
EndChar

StartChar: abreve.alt
Encoding: 65544 -1 348
Width: 436
VWidth: 0
Flags: HMW
LayerCount: 2
Fore
SplineSet
62 135 m 0
 51 61 99 19 167 19 c 0
 257 19 324 85 344 165 c 1
 349 150 l 1
 329 64 258 -10 158 -10 c 0
 76 -10 18 44 31 132 c 0
 46 228 140 282 236 282 c 0
 300 282 340 258 366 232 c 1
 363 212 l 1
 331 240 291 256 235 256 c 0
 155 256 76 213 62 135 c 0
128 382 m 1
 115 407 l 1
 158 437 213 471 282 470 c 0
 372 469 410 405 400 323 c 1
 344 0 l 1
 313 0 l 1
 370 323 l 1
 377 389 352 440 280 441 c 0
 218 442 168 411 128 382 c 1
158 677 m 1
 186 676 l 1
 181 618 213 564 291 564 c 0
 371 564 420 620 438 676 c 1
 466 676 l 1
 446 604 387 538 289 538 c 0
 193 538 152 603 158 677 c 1
EndSplineSet
EndChar

StartChar: aogonek.alt
Encoding: 65545 -1 349
Width: 436
VWidth: 0
Flags: HMW
LayerCount: 2
Fore
SplineSet
62 135 m 0
 51 61 101 19 167 19 c 0
 257 19 324 85 344 165 c 1
 349 150 l 1
 329 64 258 -10 158 -10 c 0
 78 -10 19 45 32 134 c 0
 47 228 140 282 236 282 c 0
 300 282 340 258 366 232 c 1
 363 212 l 1
 331 240 291 256 235 256 c 0
 155 256 75 213 62 135 c 0
128 382 m 1
 115 407 l 1
 158 437 213 471 282 470 c 0
 372 469 410 405 400 323 c 1
 344 0 l 1
 313 0 l 1
 370 323 l 1
 377 389 352 440 280 441 c 0
 218 442 168 411 128 382 c 1
341 -160 m 1
 353 -181 l 1
 330 -201 294 -220 254 -220 c 0
 194 -220 154 -187 162 -134 c 0
 173 -62 262 -19 330 14 c 1
 345 0 l 1
 285 -28 203 -68 194 -128 c 0
 189 -168 220 -191 260 -192 c 0
 293 -193 321 -175 341 -160 c 1
EndSplineSet
EndChar

StartChar: dagger
Encoding: 8224 8224 350
Width: 505
VWidth: 0
Flags: HMW
LayerCount: 2
Fore
SplineSet
153 540 m 1
 484 540 l 1
 480 510 l 1
 148 510 l 1
 153 540 l 1
328 700 m 1
 359 700 l 1
 228 -150 l 1
 198 -150 l 1
 328 700 l 1
EndSplineSet
EndChar

StartChar: daggerdbl
Encoding: 8225 8225 351
Width: 505
VWidth: 0
Flags: HMW
LayerCount: 2
Fore
SplineSet
88 120 m 1
 420 120 l 1
 416 90 l 1
 84 90 l 1
 88 120 l 1
153 540 m 1
 484 540 l 1
 480 510 l 1
 148 510 l 1
 153 540 l 1
328 700 m 1
 359 700 l 1
 228 -150 l 1
 198 -150 l 1
 328 700 l 1
EndSplineSet
EndChar

StartChar: ellipsis
Encoding: 8230 8230 352
Width: 813
VWidth: 0
Flags: HMW
LayerCount: 2
Fore
SplineSet
84 13 m 0
 85 25 99 36 111 36 c 0
 123 36 133 25 132 12 c 0
 131 0 116 -12 104 -12 c 0
 92 -12 83 0 84 13 c 0
358 13 m 0
 359 25 374 36 386 36 c 0
 398 36 407 25 406 12 c 0
 405 0 390 -12 378 -12 c 0
 366 -12 357 0 358 13 c 0
632 13 m 0
 633 25 648 36 660 36 c 0
 672 36 681 25 680 12 c 0
 679 0 665 -12 653 -12 c 0
 641 -12 631 0 632 13 c 0
EndSplineSet
EndChar

StartChar: uniFF10
Encoding: 65296 65296 353
Width: 542
VWidth: 0
Flags: HMW
LayerCount: 2
Fore
SplineSet
111 350 m 0
 95 214 104 23 246 22 c 0
 388 21 474 197 496 350 c 0
 512 486 504 677 362 678 c 0
 220 679 133 503 111 350 c 0
79 350 m 0
 103 523 203 711 364 710 c 0
 527 709 548 506 530 350 c 0
 506 177 405 -11 244 -10 c 0
 81 -9 61 194 79 350 c 0
EndSplineSet
EndChar

StartChar: uniFF11
Encoding: 65297 65297 354
Width: 542
VWidth: 0
Flags: HMW
LayerCount: 2
Fore
SplineSet
225 626 m 1
 231 661 l 1
 432 706 l 1
 310 0 l 1
 278 0 l 1
 393 665 l 1
 225 626 l 1
EndSplineSet
EndChar

StartChar: uniFF12
Encoding: 65298 65298 355
Width: 542
VWidth: 0
Flags: HMW
LayerCount: 2
Fore
SplineSet
10 0 m 1
 380 340 l 2
 433 389 484 440 497 515 c 0
 511 591 472 679 368 680 c 0
 250 681 174 575 151 460 c 1
 120 461 l 1
 145 595 233 711 371 710 c 0
 496 709 546 605 530 513 c 0
 517 433 462 374 405 322 c 2
 84 32 l 1
 468 31 l 1
 462 0 l 1
 10 0 l 1
EndSplineSet
EndChar

StartChar: uniFF13
Encoding: 65299 65299 356
Width: 542
VWidth: 0
Flags: HMW
LayerCount: 2
Fore
SplineSet
280 358 m 1
 284 380 l 1
 376 386 475 436 492 530 c 0
 505 606 462 679 370 680 c 0
 274 681 208 611 188 527 c 1
 157 527 l 1
 180 629 258 711 372 710 c 0
 482 710 542 622 526 530 c 0
 507 420 392 363 280 358 c 1
248 -10 m 0
 122 -10 58 77 70 185 c 1
 102 184 l 1
 92 92 143 22 251 22 c 0
 353 22 437 88 452 181 c 0
 470 290 370 344 279 350 c 1
 282 371 l 1
 393 366 505 304 485 178 c 0
 467 68 368 -10 248 -10 c 0
EndSplineSet
EndChar

StartChar: uniFF14
Encoding: 65300 65300 357
Width: 542
VWidth: 0
Flags: HMW
LayerCount: 2
Fore
SplineSet
17 140 m 1
 50 169 l 1
 386 170 l 1
 394 170 l 1
 513 170 l 1
 508 140 l 1
 17 140 l 1
53 141 m 1
 17 140 l 1
 486 699 l 1
 498 700 l 1
 378 0 l 1
 345 0 l 1
 372 152 l 1
 372 159 l 1
 451 617 l 1
 53 141 l 1
EndSplineSet
EndChar

StartChar: uniFF15
Encoding: 65301 65301 358
Width: 542
VWidth: 0
Flags: HMW
LayerCount: 2
Fore
SplineSet
498 230 m 0
 478 87 365 -10 232 -10 c 0
 127 -10 70 50 42 138 c 1
 72 155 l 1
 96 77 145 22 235 22 c 0
 352 22 445 108 464 230 c 0
 479 330 426 420 324 422 c 0
 242 424 176 383 116 328 c 1
 149 370 l 1
 192 417 261 453 337 452 c 0
 455 451 514 346 498 230 c 0
288 670 m 1
 167 376 l 1
 114 326 l 1
 268 700 l 1
 590 700 l 1
 585 670 l 1
 288 670 l 1
EndSplineSet
EndChar

StartChar: uniFF16
Encoding: 65302 65302 359
Width: 542
VWidth: 0
Flags: HMW
LayerCount: 2
Fore
SplineSet
96 223 m 0
 80 119 133 21 246 20 c 0
 360 19 451 113 469 223 c 0
 483 321 426 416 324 417 c 0
 206 418 114 325 96 223 c 0
418 699 m 1
 459 699 l 1
 173 373 l 1
 170 375 l 1
 214 416 270 443 335 442 c 0
 451 440 516 332 500 222 c 0
 481 92 378 -10 244 -10 c 0
 110 -10 47 99 65 223 c 0
 75 281 107 338 141 378 c 2
 418 699 l 1
EndSplineSet
EndChar

StartChar: uniFF17
Encoding: 65303 65303 360
Width: 542
VWidth: 0
Flags: HMW
LayerCount: 2
Fore
SplineSet
139 669 m 1
 144 700 l 1
 608 700 l 1
 138 0 l 1
 104 0 l 1
 552 668 l 1
 139 669 l 1
EndSplineSet
EndChar

StartChar: uniFF18
Encoding: 65304 65304 361
Width: 542
VWidth: 0
Flags: HMW
LayerCount: 2
Fore
SplineSet
162 538 m 0
 177 629 264 710 364 710 c 0
 462 710 524 626 510 538 c 0
 495 442 404 364 308 364 c 0
 214 364 148 444 162 538 c 0
192 535 m 0
 181 459 237 387 309 386 c 0
 383 385 465 455 478 535 c 0
 490 609 445 679 362 680 c 0
 278 681 205 613 192 535 c 0
80 186 m 0
 97 294 201 377 308 377 c 0
 413 377 486 292 471 186 c 0
 454 78 363 -10 244 -10 c 0
 126 -10 64 82 80 186 c 0
112 190 m 0
 97 99 147 21 246 20 c 0
 346 19 425 95 440 190 c 0
 453 277 393 355 306 356 c 0
 218 357 127 280 112 190 c 0
EndSplineSet
EndChar

StartChar: uniFF19
Encoding: 65305 65305 362
Width: 542
VWidth: 0
Flags: HMW
LayerCount: 2
Fore
SplineSet
512 477 m 0
 528 581 475 679 362 680 c 0
 248 681 156 587 138 477 c 0
 124 379 182 284 284 283 c 0
 402 282 494 375 512 477 c 0
190 0 m 1
 149 0 l 1
 434 327 l 1
 437 325 l 1
 393 284 337 257 272 258 c 0
 156 260 92 368 108 478 c 0
 127 608 230 710 364 710 c 0
 498 710 562 601 544 477 c 0
 534 419 500 362 466 322 c 2
 190 0 l 1
EndSplineSet
EndChar

StartChar: caron
Encoding: 711 711 363
Width: 465
VWidth: 0
Flags: HMW
LayerCount: 2
Fore
SplineSet
308 604 m 1
 465 727 l 1
 483 709 l 1
 304 570 l 1
 171 710 l 1
 193 728 l 1
 308 604 l 1
EndSplineSet
EndChar

StartChar: napostrophe
Encoding: 329 329 364
Width: 602
VWidth: 0
Flags: HMW
LayerCount: 2
Fore
SplineSet
255 460 m 1
 176 0 l 1
 145 0 l 1
 224 460 l 1
 255 460 l 1
484 308 m 2
 493 378 477 439 397 440 c 0
 309 441 243 361 224 281 c 1
 208 281 l 1
 228 379 303 470 405 470 c 0
 499 470 527 397 516 311 c 1
 462 0 l 1
 432 0 l 1
 484 308 l 2
248 699 m 1
 286 699 l 1
 150 471 l 1
 126 471 l 1
 248 699 l 1
EndSplineSet
EndChar

StartChar: IJ
Encoding: 306 306 365
Width: 475
VWidth: 0
Flags: HMW
LayerCount: 2
Fore
SplineSet
84 -142 m 1
 105 -166 134 -188 174 -188 c 0
 249 -188 283 -132 295 -50 c 1
 424 700 l 1
 456 700 l 1
 326 -60 l 2
 312 -154 264 -221 170 -220 c 0
 122 -220 84 -192 64 -166 c 1
 84 -142 l 1
174 700 m 1
 206 700 l 1
 85 0 l 1
 54 0 l 1
 174 700 l 1
EndSplineSet
EndChar

StartChar: ij
Encoding: 307 307 366
Width: 494
VWidth: 0
Flags: HMW
LayerCount: 2
Fore
SplineSet
411 682 m 0
 412 694 426 704 438 704 c 0
 451 704 459 694 458 682 c 0
 457 670 443 658 431 658 c 0
 418 658 410 670 411 682 c 0
128 -150 m 1
 144 -160 164 -187 189 -188 c 0
 251 -192 281 -124 290 -72 c 2
 382 460 l 1
 412 460 l 1
 320 -76 l 2
 308 -150 266 -222 184 -220 c 0
 146 -219 124 -196 108 -174 c 1
 128 -150 l 1
168 682 m 0
 169 694 183 704 195 704 c 0
 208 704 215 694 214 682 c 0
 213 670 200 658 188 658 c 0
 175 658 167 670 168 682 c 0
139 460 m 1
 170 460 l 1
 90 0 l 1
 60 0 l 1
 139 460 l 1
EndSplineSet
EndChar

StartChar: uni0237
Encoding: 567 567 367
Width: 194
VWidth: 0
Flags: HMW
LayerCount: 2
Fore
SplineSet
-124 -150 m 1
 -110 -170 -92 -187 -64 -188 c 0
 0 -189 28 -126 38 -72 c 2
 129 460 l 1
 160 460 l 1
 68 -76 l 2
 56 -150 14 -222 -68 -220 c 0
 -106 -219 -129 -196 -145 -174 c 1
 -124 -150 l 1
EndSplineSet
EndChar

StartChar: Sacute
Encoding: 346 346 368
Width: 490
VWidth: 0
Flags: HMW
LayerCount: 2
Fore
SplineSet
74 206 m 1
 91 120 128 25 234 24 c 0
 338 23 404 90 418 178 c 0
 432 270 362 320 288 352 c 0
 211 386 126 443 141 546 c 0
 156 642 247 708 345 708 c 0
 448 708 498 628 510 552 c 1
 480 538 l 1
 467 604 432 675 343 676 c 0
 262 676 189 620 176 544 c 0
 161 456 240 409 316 376 c 0
 396 342 466 283 452 180 c 0
 436 74 356 -9 230 -8 c 0
 112 -7 62 91 44 190 c 1
 74 206 l 1
542 922 m 1
 345 769 l 1
 330 782 l 1
 516 940 l 1
 542 922 l 1
EndSplineSet
EndChar

StartChar: sacute
Encoding: 347 347 369
Width: 391
VWidth: 0
Flags: HMW
LayerCount: 2
Fore
SplineSet
59 151 m 1
 64 87 91 20 171 20 c 0
 233 20 287 60 296 119 c 0
 306 179 255 206 200 226 c 0
 136 250 82 279 94 356 c 0
 105 425 174 468 244 468 c 0
 315 468 355 426 369 372 c 1
 342 358 l 1
 328 402 299 438 242 438 c 0
 187 438 133 407 124 354 c 0
 113 290 168 268 224 248 c 0
 284 225 338 188 328 120 c 0
 317 40 248 -11 167 -10 c 0
 73 -10 36 63 31 138 c 1
 59 151 l 1
442 684 m 1
 246 531 l 1
 229 544 l 1
 416 702 l 1
 442 684 l 1
EndSplineSet
EndChar

StartChar: Scircumflex
Encoding: 348 348 370
Width: 490
VWidth: 0
Flags: HMW
LayerCount: 2
Fore
SplineSet
74 206 m 1
 91 120 128 25 234 24 c 0
 338 23 404 90 418 178 c 0
 432 270 362 320 288 352 c 0
 211 386 126 443 141 546 c 0
 156 642 247 708 345 708 c 0
 448 708 498 628 510 552 c 1
 480 538 l 1
 467 604 432 675 343 676 c 0
 262 676 189 620 176 544 c 0
 161 456 240 409 316 376 c 0
 396 342 466 283 452 180 c 0
 436 74 356 -9 230 -8 c 0
 112 -7 62 91 44 190 c 1
 74 206 l 1
379 891 m 1
 221 769 l 1
 204 787 l 1
 383 926 l 1
 516 786 l 1
 494 768 l 1
 379 891 l 1
EndSplineSet
EndChar

StartChar: scircumflex
Encoding: 349 349 371
Width: 391
VWidth: 0
Flags: HMW
LayerCount: 2
Fore
SplineSet
59 151 m 1
 64 87 91 20 171 20 c 0
 233 20 287 60 296 119 c 0
 306 179 255 206 200 226 c 0
 136 250 82 279 94 356 c 0
 105 425 174 468 244 468 c 0
 315 468 355 426 369 372 c 1
 342 358 l 1
 328 402 299 438 242 438 c 0
 187 438 133 407 124 354 c 0
 113 290 168 268 224 248 c 0
 284 225 338 188 328 120 c 0
 317 40 248 -11 167 -10 c 0
 73 -10 36 63 31 138 c 1
 59 151 l 1
278 652 m 1
 120 531 l 1
 104 548 l 1
 282 686 l 1
 415 546 l 1
 394 530 l 1
 278 652 l 1
EndSplineSet
EndChar

StartChar: uni1E9E
Encoding: 7838 7838 372
Width: 681
VWidth: 0
Flags: HMW
LayerCount: 2
Fore
SplineSet
394 -10 m 0
 527 -10 626 64 626 182 c 0
 626 338 478 320 478 376 c 0
 478 432 638 425 638 563 c 0
 638 645 569 708 442 708 c 0
 292 708 150 616 122 434 c 2
 50 0 l 1
 84 0 l 1
 156 428 l 2
 182 590 300 677 440 677 c 0
 557 677 604 615 604 557 c 0
 604 439 440 455 440 373 c 0
 440 294 590 319 590 180 c 0
 590 82 508 22 396 22 c 0
 333 22 282 39 228 81 c 1
 211 54 l 1
 261 14 315 -10 394 -10 c 0
EndSplineSet
EndChar

StartChar: Zacute
Encoding: 377 377 373
Width: 521
VWidth: 0
Flags: HW
LayerCount: 2
Fore
SplineSet
124 668 m 1
 129 700 l 1
 600 700 l 1
 53 32 l 1
 472 32 l 1
 466 0 l 1
 -11 0 l 1
 536 668 l 1
 124 668 l 1
549 922 m 1
 351 769 l 1
 336 782 l 1
 523 940 l 1
 549 922 l 1
EndSplineSet
EndChar

StartChar: zacute
Encoding: 378 378 374
Width: 425
VWidth: 0
Flags: HW
LayerCount: 2
Fore
SplineSet
390 430 m 1
 86 430 l 1
 92 460 l 1
 454 460 l 1
 53 30 l 1
 380 30 l 1
 375 0 l 1
 -11 0 l 1
 390 430 l 1
458 690 m 1
 261 537 l 1
 246 550 l 1
 433 708 l 1
 458 690 l 1
EndSplineSet
EndChar

StartChar: Zdotaccent
Encoding: 379 379 375
Width: 521
VWidth: 0
Flags: HW
LayerCount: 2
Fore
SplineSet
124 668 m 1
 129 700 l 1
 600 700 l 1
 53 32 l 1
 472 32 l 1
 466 0 l 1
 -11 0 l 1
 536 668 l 1
 124 668 l 1
356 794 m 0
 357 806 371 816 383 816 c 0
 395 816 405 805 404 792 c 0
 403 780 388 768 376 768 c 0
 364 768 355 781 356 794 c 0
EndSplineSet
EndChar

StartChar: zdotaccent
Encoding: 380 380 376
Width: 425
VWidth: 0
Flags: HW
LayerCount: 2
Fore
SplineSet
390 430 m 1
 86 430 l 1
 92 460 l 1
 454 460 l 1
 53 30 l 1
 380 30 l 1
 375 0 l 1
 -11 0 l 1
 390 430 l 1
270 584 m 0
 271 596 285 608 297 608 c 0
 309 608 318 597 317 584 c 0
 316 572 302 560 290 560 c 0
 278 560 269 571 270 584 c 0
EndSplineSet
EndChar

StartChar: Tcaron
Encoding: 356 356 377
Width: 427
VWidth: 0
Flags: HW
LayerCount: 2
Fore
SplineSet
103 668 m 1
 108 700 l 1
 504 700 l 1
 499 668 l 1
 318 668 l 1
 202 0 l 1
 170 0 l 1
 284 668 l 1
 103 668 l 1
323 803 m 1
 480 925 l 1
 498 907 l 1
 319 769 l 1
 186 908 l 1
 208 926 l 1
 323 803 l 1
EndSplineSet
EndChar

StartChar: tcaron
Encoding: 357 357 378
Width: 291
VWidth: 0
Flags: HW
LayerCount: 2
Fore
SplineSet
63 460 m 1
 240 460 l 1
 234 430 l 1
 58 430 l 1
 63 460 l 1
163 620 m 1
 194 620 l 1
 87 0 l 1
 57 0 l 1
 163 620 l 1
378 785 m 1
 409 772 l 1
 258 524 l 1
 238 531 l 1
 378 785 l 1
EndSplineSet
EndChar

StartChar: Uring
Encoding: 366 366 379
Width: 573
VWidth: 0
Flags: HW
LayerCount: 2
Fore
SplineSet
172 700 m 1
 204 700 l 1
 122 223 l 2
 108 116 147 23 262 22 c 0
 378 21 453 111 472 223 c 1
 554 700 l 1
 588 700 l 1
 506 223 l 2
 484 94 397 -10 260 -10 c 0
 124 -10 74 99 90 223 c 1
 172 700 l 1
308 869 m 0
 316 924 371 968 424 968 c 0
 477 968 516 922 508 868 c 0
 500 813 445 769 392 769 c 0
 339 769 300 815 308 869 c 0
330 868 m 0
 324 826 354 791 394 790 c 0
 436 789 480 826 486 868 c 0
 492 910 462 946 422 947 c 0
 380 948 336 910 330 868 c 0
EndSplineSet
EndChar

StartChar: uring
Encoding: 367 367 380
Width: 475
VWidth: 0
Flags: HW
LayerCount: 2
Fore
SplineSet
338 0 m 1
 418 460 l 1
 448 460 l 1
 369 0 l 1
 338 0 l 1
110 159 m 2
 101 86 114 21 196 20 c 0
 284 19 351 99 370 179 c 1
 381 179 l 1
 361 81 290 -11 188 -10 c 0
 92 -10 67 66 78 156 c 1
 132 460 l 1
 162 460 l 1
 110 159 l 2
218 631 m 0
 226 686 281 730 334 730 c 0
 387 730 426 683 418 629 c 0
 410 574 355 530 302 530 c 0
 249 530 210 577 218 631 c 0
240 630 m 0
 234 588 264 553 304 552 c 0
 346 551 390 588 396 630 c 0
 402 672 372 707 332 708 c 0
 290 709 246 672 240 630 c 0
EndSplineSet
EndChar

StartChar: Wcircumflex
Encoding: 372 372 381
Width: 933
VWidth: 0
Flags: HW
LayerCount: 2
Fore
SplineSet
666 72 m 1
 973 700 l 1
 1010 700 l 1
 653 -22 l 1
 546 625 l 1
 232 -22 l 1
 108 700 l 1
 143 700 l 1
 249 72 l 1
 562 722 l 1
 666 72 l 1
595 904 m 1
 438 782 l 1
 420 800 l 1
 598 938 l 1
 731 798 l 1
 710 782 l 1
 595 904 l 1
EndSplineSet
EndChar

StartChar: wcircumflex
Encoding: 373 373 382
Width: 618
VWidth: 0
Flags: HW
LayerCount: 2
Fore
SplineSet
64 460 m 1
 96 460 l 1
 154 62 l 1
 360 482 l 1
 430 62 l 1
 626 460 l 1
 661 460 l 1
 418 -22 l 1
 347 397 l 1
 138 -22 l 1
 64 460 l 1
394 664 m 1
 236 542 l 1
 218 560 l 1
 396 698 l 1
 530 558 l 1
 508 542 l 1
 394 664 l 1
EndSplineSet
EndChar

StartChar: Ycircumflex
Encoding: 374 374 383
Width: 507
VWidth: 0
Flags: HW
LayerCount: 2
Fore
SplineSet
552 699 m 1
 590 699 l 1
 286 276 l 1
 239 0 l 1
 206 0 l 1
 255 278 l 1
 104 700 l 1
 140 700 l 1
 275 311 l 1
 552 699 l 1
375 891 m 1
 216 769 l 1
 199 787 l 1
 378 926 l 1
 511 785 l 1
 490 768 l 1
 375 891 l 1
EndSplineSet
EndChar

StartChar: ycircumflex
Encoding: 375 375 384
Width: 416
VWidth: 0
Flags: HW
LayerCount: 2
Fore
SplineSet
463 460 m 1
 54 -220 l 1
 19 -219 l 1
 173 35 l 1
 58 460 l 1
 94 460 l 1
 201 44 l 1
 183 46 l 1
 428 460 l 1
 463 460 l 1
290 652 m 1
 132 530 l 1
 114 548 l 1
 292 686 l 1
 426 546 l 1
 404 530 l 1
 290 652 l 1
EndSplineSet
EndChar

StartChar: Umacron
Encoding: 362 362 385
Width: 573
VWidth: 0
Flags: HW
LayerCount: 2
Fore
SplineSet
172 700 m 1
 205 700 l 1
 122 223 l 2
 108 116 147 23 262 22 c 0
 378 21 453 111 472 223 c 1
 554 700 l 1
 588 700 l 1
 506 223 l 2
 484 94 397 -10 260 -10 c 0
 124 -10 74 99 90 223 c 1
 172 700 l 1
221 768 m 1
 226 798 l 1
 566 798 l 1
 561 768 l 1
 221 768 l 1
EndSplineSet
EndChar

StartChar: umacron
Encoding: 363 363 386
Width: 475
VWidth: 0
Flags: HW
LayerCount: 2
Fore
SplineSet
338 0 m 1
 418 460 l 1
 448 460 l 1
 369 0 l 1
 338 0 l 1
110 159 m 2
 101 87 114 21 196 20 c 0
 284 19 351 99 370 179 c 1
 381 179 l 1
 361 81 290 -10 188 -10 c 0
 92 -10 67 66 78 156 c 1
 131 460 l 1
 162 460 l 1
 110 159 l 2
132 530 m 1
 136 560 l 1
 477 560 l 1
 472 530 l 1
 132 530 l 1
EndSplineSet
EndChar

StartChar: Ubreve
Encoding: 364 364 387
Width: 573
VWidth: 0
Flags: HW
LayerCount: 2
Fore
SplineSet
172 700 m 1
 205 700 l 1
 122 223 l 2
 108 116 147 23 262 22 c 0
 378 21 453 111 472 223 c 1
 554 700 l 1
 588 700 l 1
 506 223 l 2
 484 94 397 -10 260 -10 c 0
 124 -10 74 99 90 223 c 1
 172 700 l 1
261 908 m 1
 289 908 l 1
 284 851 316 796 394 796 c 0
 474 796 522 852 540 908 c 1
 569 907 l 1
 549 835 491 769 393 769 c 0
 297 769 255 834 261 908 c 1
EndSplineSet
EndChar

StartChar: ubreve
Encoding: 365 365 388
Width: 475
VWidth: 0
Flags: HW
LayerCount: 2
Fore
SplineSet
338 0 m 1
 418 460 l 1
 448 460 l 1
 369 0 l 1
 338 0 l 1
110 159 m 2
 101 87 114 21 196 20 c 0
 284 19 351 99 370 179 c 1
 381 179 l 1
 361 81 290 -10 188 -10 c 0
 92 -10 67 66 78 156 c 1
 131 460 l 1
 162 460 l 1
 110 159 l 2
172 670 m 1
 198 670 l 1
 193 613 226 557 304 557 c 0
 384 557 432 613 450 669 c 1
 479 669 l 1
 459 597 400 530 302 530 c 0
 206 530 166 596 172 670 c 1
EndSplineSet
EndChar

StartChar: Utilde
Encoding: 360 360 389
Width: 573
VWidth: 0
Flags: HW
LayerCount: 2
Fore
SplineSet
172 700 m 1
 205 700 l 1
 122 223 l 2
 108 116 147 23 262 22 c 0
 378 21 453 111 472 223 c 1
 554 700 l 1
 588 700 l 1
 506 223 l 2
 484 94 397 -10 260 -10 c 0
 124 -10 74 99 90 223 c 1
 172 700 l 1
260 781 m 1
 266 813 302 845 342 845 c 0
 391 845 408 797 455 798 c 0
 482 799 501 821 518 846 c 1
 536 830 l 1
 516 800 488 772 452 772 c 0
 406 772 384 819 342 819 c 0
 306 819 288 790 280 768 c 1
 260 781 l 1
EndSplineSet
EndChar

StartChar: utilde
Encoding: 361 361 390
Width: 475
VWidth: 0
Flags: HW
LayerCount: 2
Fore
SplineSet
338 0 m 1
 418 460 l 1
 448 460 l 1
 369 0 l 1
 338 0 l 1
110 159 m 2
 101 87 114 21 196 20 c 0
 284 19 351 99 370 179 c 1
 381 179 l 1
 361 81 290 -10 188 -10 c 0
 92 -10 67 66 78 156 c 1
 131 460 l 1
 162 460 l 1
 110 159 l 2
169 543 m 1
 181 575 209 606 252 606 c 0
 301 606 317 559 364 560 c 0
 391 561 410 583 428 608 c 1
 446 592 l 1
 426 562 398 534 361 534 c 0
 315 534 294 580 252 580 c 0
 216 580 198 552 190 530 c 1
 169 543 l 1
EndSplineSet
EndChar

StartChar: uni0123
Encoding: 291 291 391
Width: 553
VWidth: 0
Flags: HW
LayerCount: 2
Fore
SplineSet
22 -30 m 1
 52 -30 l 1
 42 -122 86 -199 188 -200 c 0
 296 -201 384 -113 403 10 c 1
 480 460 l 1
 511 460 l 1
 434 10 l 2
 412 -129 312 -230 186 -230 c 0
 66 -230 10 -140 22 -30 c 1
52 230 m 0
 71 363 176 471 304 470 c 0
 428 469 471 342 455 230 c 0
 437 110 349 -10 225 -10 c 0
 97 -11 35 104 52 230 c 0
84 230 m 0
 68 120 119 20 231 20 c 0
 336 20 424 127 441 234 c 0
 455 327 408 438 306 440 c 0
 194 442 102 346 84 230 c 0
326 561 m 1
 299 579 l 1
 482 806 l 1
 501 794 l 1
 326 561 l 1
EndSplineSet
EndChar

StartChar: Hbar
Encoding: 294 294 392
Width: 647
VWidth: 0
Flags: HW
LayerCount: 2
Fore
SplineSet
136 366 m 1
 140 397 l 1
 594 397 l 1
 588 366 l 1
 136 366 l 1
622 700 m 1
 656 700 l 1
 536 0 l 1
 504 0 l 1
 622 700 l 1
176 700 m 1
 210 700 l 1
 89 0 l 1
 57 0 l 1
 176 700 l 1
78 586 m 1
 82 615 l 1
 721 615 l 1
 716 586 l 1
 78 586 l 1
EndSplineSet
EndChar

StartChar: hbar
Encoding: 295 295 393
Width: 509
VWidth: 0
Flags: HW
LayerCount: 2
Fore
SplineSet
216 780 m 1
 82 0 l 1
 51 0 l 1
 186 780 l 1
 216 780 l 1
392 308 m 2
 401 378 384 439 304 440 c 0
 216 441 149 361 130 281 c 1
 118 281 l 1
 138 379 210 470 312 470 c 0
 406 470 433 397 422 311 c 1
 368 0 l 1
 338 0 l 1
 392 308 l 2
92 670 m 1
 97 700 l 1
 400 700 l 1
 396 670 l 1
 92 670 l 1
EndSplineSet
EndChar

StartChar: uni0400
Encoding: 1024 1024 394
Width: 533
VWidth: 0
Flags: HW
LayerCount: 2
Fore
SplineSet
72 0 m 1
 77 31 l 1
 410 31 l 1
 406 0 l 1
 72 0 l 1
186 670 m 1
 191 700 l 1
 524 700 l 1
 520 670 l 1
 186 670 l 1
136 371 m 1
 141 402 l 1
 454 402 l 1
 450 371 l 1
 136 371 l 1
176 700 m 1
 210 700 l 1
 89 0 l 1
 57 0 l 1
 176 700 l 1
250 942 m 1
 279 960 l 1
 414 800 l 1
 395 788 l 1
 250 942 l 1
EndSplineSet
EndChar

StartChar: uni0401
Encoding: 1025 1025 395
Width: 533
VWidth: 0
Flags: HW
LayerCount: 2
Fore
SplineSet
72 0 m 1
 77 31 l 1
 410 31 l 1
 406 0 l 1
 72 0 l 1
186 670 m 1
 191 700 l 1
 524 700 l 1
 520 670 l 1
 186 670 l 1
136 371 m 1
 141 402 l 1
 454 402 l 1
 450 371 l 1
 136 371 l 1
176 700 m 1
 210 700 l 1
 89 0 l 1
 57 0 l 1
 176 700 l 1
450 846 m 0
 451 858 464 870 476 870 c 0
 488 870 498 858 497 845 c 0
 496 833 482 821 470 821 c 0
 458 821 449 833 450 846 c 0
256 846 m 0
 257 858 270 870 282 870 c 0
 294 870 304 858 303 845 c 0
 302 833 288 821 276 821 c 0
 264 821 255 833 256 846 c 0
EndSplineSet
EndChar

StartChar: uni0403
Encoding: 1027 1027 396
Width: 422
VWidth: 0
Flags: HW
LayerCount: 2
Fore
SplineSet
169 700 m 1
 506 700 l 1
 500 669 l 1
 197 669 l 1
 81 0 l 1
 50 0 l 1
 169 700 l 1
518 940 m 1
 321 788 l 1
 306 801 l 1
 492 959 l 1
 518 940 l 1
EndSplineSet
EndChar

StartChar: uni040C
Encoding: 1036 1036 397
Width: 548
VWidth: 0
Flags: HW
LayerCount: 2
Fore
SplineSet
173 700 m 1
 206 700 l 1
 86 0 l 1
 54 0 l 1
 173 700 l 1
497 699 m 1
 541 699 l 1
 180 370 l 1
 434 0 l 1
 393 0 l 1
 141 373 l 1
 497 699 l 1
576 940 m 1
 380 788 l 1
 364 802 l 1
 550 959 l 1
 576 940 l 1
EndSplineSet
EndChar

StartChar: uni040D
Encoding: 1037 1037 398
Width: 718
VWidth: 0
Flags: HW
LayerCount: 2
Fore
SplineSet
719 678 m 1
 50 -36 l 1
 64 22 l 1
 734 736 l 1
 719 678 l 1
210 700 m 1
 91 13 l 1
 50 -36 l 1
 176 700 l 1
 210 700 l 1
734 736 m 1
 606 0 l 1
 574 0 l 1
 692 689 l 1
 734 736 l 1
323 918 m 1
 353 934 l 1
 486 774 l 1
 468 762 l 1
 323 918 l 1
EndSplineSet
EndChar

StartChar: uni040E
Encoding: 1038 1038 399
Width: 490
VWidth: 0
Flags: HW
LayerCount: 2
Fore
SplineSet
585 700 m 1
 144 0 l 1
 108 0 l 1
 245 222 l 1
 93 700 l 1
 128 700 l 1
 274 230 l 1
 256 232 l 1
 548 700 l 1
 585 700 l 1
219 908 m 1
 246 908 l 1
 242 850 274 796 352 796 c 0
 432 796 480 850 498 907 c 1
 526 907 l 1
 507 835 448 769 350 769 c 0
 254 769 213 834 219 908 c 1
EndSplineSet
EndChar

StartChar: uni0410
Encoding: 1040 1040 400
Width: 640
VWidth: 0
Flags: HW
LayerCount: 2
Fore
SplineSet
146 254 m 1
 160 284 l 1
 484 284 l 1
 488 254 l 1
 146 254 l 1
384 644 m 1
 174 273 l 1
 171 265 l 1
 20 0 l 1
 -17 0 l 1
 396 722 l 1
 561 0 l 1
 524 0 l 1
 468 263 l 1
 466 271 l 1
 384 644 l 1
EndSplineSet
EndChar

StartChar: uni0411
Encoding: 1041 1041 401
Width: 504
VWidth: 0
Flags: HW
LayerCount: 2
Fore
SplineSet
134 389 m 1
 140 420 l 1
 276 420 l 1
 403 419 495 334 475 210 c 0
 455 84 342 1 210 0 c 1
 68 0 l 1
 74 31 l 1
 211 31 l 2
 325 31 424 102 443 210 c 0
 461 316 386 387 276 388 c 1
 134 389 l 1
169 700 m 1
 508 700 l 1
 502 669 l 1
 197 669 l 1
 81 0 l 1
 50 0 l 1
 169 700 l 1
EndSplineSet
EndChar

StartChar: uni0412
Encoding: 1042 1042 402
Width: 541
VWidth: 0
Flags: HW
LayerCount: 2
Fore
SplineSet
147 382 m 1
 150 400 l 1
 251 401 l 1
 339 403 423 444 438 534 c 0
 453 619 392 669 300 670 c 1
 204 670 l 1
 94 30 l 1
 198 30 l 1
 312 31 401 91 419 203 c 0
 435 303 355 371 259 372 c 1
 145 372 l 1
 148 392 l 1
 266 392 l 1
 369 392 468 320 452 202 c 0
 433 70 328 0 196 0 c 1
 56 0 l 1
 176 700 l 1
 302 700 l 1
 412 700 489 639 472 535 c 0
 456 432 364 384 258 382 c 2
 147 382 l 1
EndSplineSet
EndChar

StartChar: uni0413
Encoding: 1043 1043 403
Width: 422
VWidth: 0
Flags: HW
LayerCount: 2
Fore
SplineSet
169 700 m 1
 506 700 l 1
 500 669 l 1
 197 669 l 1
 81 0 l 1
 50 0 l 1
 169 700 l 1
EndSplineSet
EndChar

StartChar: uni0414
Encoding: 1044 1044 404
Width: 771
VWidth: 0
Flags: HW
LayerCount: 2
Fore
SplineSet
470 656 m 1
 118 16 l 1
 81 16 l 1
 482 736 l 1
 635 15 l 1
 601 15 l 1
 470 656 l 1
672 0 m 1
 42 0 l 1
 22 -110 l 1
 -8 -110 l 1
 17 31 l 1
 707 31 l 1
 682 -110 l 1
 652 -110 l 1
 672 0 l 1
EndSplineSet
EndChar

StartChar: uni0415
Encoding: 1045 1045 405
Width: 533
VWidth: 0
Flags: HW
LayerCount: 2
Fore
SplineSet
72 0 m 1
 77 31 l 1
 410 31 l 1
 406 0 l 1
 72 0 l 1
186 670 m 1
 191 700 l 1
 524 700 l 1
 520 670 l 1
 186 670 l 1
136 371 m 1
 141 402 l 1
 454 402 l 1
 450 371 l 1
 136 371 l 1
176 700 m 1
 210 700 l 1
 89 0 l 1
 57 0 l 1
 176 700 l 1
EndSplineSet
EndChar

StartChar: uni0416
Encoding: 1046 1046 406
Width: 695
VWidth: 0
Flags: HW
LayerCount: 2
Fore
SplineSet
152 700 m 1
 379 368 l 1
 20 0 l 1
 -24 0 l 1
 342 372 l 1
 113 700 l 1
 152 700 l 1
428 700 m 1
 462 700 l 1
 341 0 l 1
 310 0 l 1
 428 700 l 1
726 699 m 1
 770 699 l 1
 433 369 l 1
 662 0 l 1
 624 0 l 1
 398 372 l 1
 726 699 l 1
EndSplineSet
EndChar

StartChar: uni0417
Encoding: 1047 1047 407
Width: 588
VWidth: 0
Flags: HW
LayerCount: 2
Fore
SplineSet
308 356 m 1
 312 376 l 1
 428 380 536 427 555 523 c 0
 571 612 503 680 399 680 c 0
 287 681 205 617 181 527 c 1
 149 527 l 1
 175 635 271 710 400 710 c 0
 522 710 606 628 588 524 c 0
 567 412 444 360 308 356 c 1
276 -10 m 0
 132 -10 49 69 62 185 c 1
 94 184 l 1
 85 84 154 22 278 22 c 0
 401 22 499 85 517 188 c 0
 539 310 420 345 306 348 c 1
 310 369 l 1
 444 367 573 324 550 184 c 0
 530 62 416 -10 276 -10 c 0
EndSplineSet
EndChar

StartChar: uni0418
Encoding: 1048 1048 408
Width: 718
VWidth: 0
Flags: HW
LayerCount: 2
Fore
SplineSet
719 678 m 1
 50 -36 l 1
 64 22 l 1
 734 736 l 1
 719 678 l 1
210 700 m 1
 91 13 l 1
 50 -36 l 1
 176 700 l 1
 210 700 l 1
734 736 m 1
 606 0 l 1
 574 0 l 1
 692 689 l 1
 734 736 l 1
EndSplineSet
EndChar

StartChar: uni0419
Encoding: 1049 1049 409
Width: 718
VWidth: 0
Flags: HW
LayerCount: 2
Fore
SplineSet
719 678 m 1
 50 -36 l 1
 64 22 l 1
 734 736 l 1
 719 678 l 1
210 700 m 1
 91 13 l 1
 50 -36 l 1
 176 700 l 1
 210 700 l 1
734 736 m 1
 606 0 l 1
 574 0 l 1
 692 689 l 1
 734 736 l 1
324 906 m 1
 352 906 l 1
 348 848 381 793 459 793 c 0
 539 793 587 849 604 906 c 1
 632 906 l 1
 614 834 556 767 458 767 c 0
 362 767 319 832 324 906 c 1
EndSplineSet
EndChar

StartChar: uni041A
Encoding: 1050 1050 410
Width: 548
VWidth: 0
Flags: HW
LayerCount: 2
Fore
SplineSet
173 700 m 1
 206 700 l 1
 86 0 l 1
 54 0 l 1
 173 700 l 1
497 699 m 1
 541 699 l 1
 180 370 l 1
 433 0 l 1
 393 0 l 1
 141 373 l 1
 497 699 l 1
EndSplineSet
EndChar

StartChar: uni041B
Encoding: 1051 1051 411
Width: 607
VWidth: 0
Flags: HW
LayerCount: 2
Fore
SplineSet
623 700 m 1
 503 0 l 1
 470 0 l 1
 586 669 l 1
 218 669 l 1
 145 240 l 2
 127 124 78 15 -18 1 c 1
 -13 30 l 1
 63 46 99 150 114 246 c 2
 192 700 l 1
 623 700 l 1
EndSplineSet
EndChar

StartChar: uni041C
Encoding: 1052 1052 412
Width: 786
VWidth: 0
Flags: HW
LayerCount: 2
Fore
SplineSet
226 614 m 1
 58 0 l 1
 24 0 l 1
 224 722 l 1
 399 161 l 1
 769 724 l 1
 720 0 l 1
 688 0 l 1
 730 611 l 1
 389 92 l 1
 226 614 l 1
EndSplineSet
EndChar

StartChar: uni041D
Encoding: 1053 1053 413
Width: 693
VWidth: 0
Flags: HW
LayerCount: 2
Fore
SplineSet
136 366 m 1
 140 397 l 1
 594 397 l 1
 588 366 l 1
 136 366 l 1
622 700 m 1
 656 700 l 1
 536 0 l 1
 504 0 l 1
 622 700 l 1
176 700 m 1
 210 700 l 1
 89 0 l 1
 57 0 l 1
 176 700 l 1
EndSplineSet
EndChar

StartChar: uni041E
Encoding: 1054 1054 414
Width: 766
VWidth: 0
Flags: HW
LayerCount: 2
Fore
SplineSet
112 350 m 0
 87 183 174 25 354 24 c 0
 536 23 679 174 708 350 c 0
 733 517 648 675 468 676 c 0
 286 677 141 526 112 350 c 0
78 350 m 0
 108 546 270 708 470 708 c 0
 668 708 771 536 744 350 c 0
 714 154 552 -8 352 -8 c 0
 154 -8 51 164 78 350 c 0
EndSplineSet
EndChar

StartChar: uni041F
Encoding: 1055 1055 415
Width: 642
VWidth: 0
Flags: HW
LayerCount: 2
Fore
SplineSet
622 670 m 1
 197 669 l 1
 82 0 l 1
 50 0 l 1
 170 700 l 1
 658 700 l 1
 538 0 l 1
 506 0 l 1
 622 670 l 1
EndSplineSet
EndChar

StartChar: uni0420
Encoding: 1056 1056 416
Width: 531
VWidth: 0
Flags: HW
LayerCount: 2
Fore
SplineSet
176 700 m 1
 210 700 l 1
 89 0 l 1
 57 0 l 1
 176 700 l 1
189 669 m 1
 195 700 l 1
 316 700 l 1
 438 699 516 614 498 494 c 0
 479 370 376 291 250 290 c 1
 124 290 l 1
 130 321 l 1
 251 321 l 2
 360 321 447 388 465 495 c 0
 482 599 420 667 314 668 c 1
 189 669 l 1
EndSplineSet
EndChar

StartChar: uni0421
Encoding: 1057 1057 417
Width: 664
VWidth: 0
Flags: HW
LayerCount: 2
Fore
SplineSet
113 350 m 0
 88 184 173 28 348 26 c 0
 442 25 518 61 583 115 c 1
 576 70 l 1
 510 21 439 -8 345 -8 c 0
 149 -7 51 164 78 350 c 0
 108 546 266 707 464 708 c 0
 553 708 615 683 671 630 c 1
 664 586 l 1
 615 646 548 674 462 674 c 0
 284 673 142 528 113 350 c 0
EndSplineSet
EndChar

StartChar: uni0422
Encoding: 1058 1058 418
Width: 451
VWidth: 0
Flags: HW
LayerCount: 2
Fore
SplineSet
103 668 m 1
 108 700 l 1
 504 700 l 1
 499 668 l 1
 318 668 l 1
 203 0 l 1
 170 0 l 1
 284 668 l 1
 103 668 l 1
EndSplineSet
EndChar

StartChar: uni0423
Encoding: 1059 1059 419
Width: 490
VWidth: 0
Flags: HW
LayerCount: 2
Fore
SplineSet
585 700 m 1
 144 0 l 1
 108 0 l 1
 246 220 l 1
 93 700 l 1
 128 700 l 1
 274 230 l 1
 256 232 l 1
 548 700 l 1
 585 700 l 1
EndSplineSet
EndChar

StartChar: uni0424
Encoding: 1060 1060 420
Width: 723
VWidth: 0
Flags: HW
LayerCount: 2
Fore
SplineSet
438 700 m 1
 471 700 l 1
 350 0 l 1
 318 0 l 1
 438 700 l 1
686 350 m 0
 711 496 601 584 449 586 c 1
 424 587 l 2
 266 585 129 500 103 350 c 0
 78 204 188 114 340 112 c 1
 365 112 l 2
 524 114 660 200 686 350 c 0
718 350 m 0
 690 182 539 82 363 80 c 1
 338 80 l 1
 168 82 45 186 71 350 c 0
 99 518 250 618 426 620 c 1
 451 620 l 1
 621 618 744 514 718 350 c 0
EndSplineSet
EndChar

StartChar: uni0425
Encoding: 1061 1061 421
Width: 538
VWidth: 0
Flags: HW
LayerCount: 2
Fore
SplineSet
523 699 m 1
 564 699 l 1
 305 366 l 1
 458 0 l 1
 419 0 l 1
 284 336 l 1
 28 0 l 1
 -12 0 l 1
 272 368 l 1
 134 700 l 1
 172 700 l 1
 294 397 l 1
 523 699 l 1
EndSplineSet
EndChar

StartChar: uni0426
Encoding: 1062 1062 422
Width: 686
VWidth: 0
Flags: HW
LayerCount: 2
Fore
SplineSet
86 30 m 1
 511 31 l 1
 626 700 l 1
 658 700 l 1
 544 31 l 1
 627 31 l 1
 602 -110 l 1
 572 -110 l 1
 592 0 l 1
 50 0 l 1
 170 700 l 1
 202 700 l 1
 86 30 l 1
EndSplineSet
EndChar

StartChar: uni0427
Encoding: 1063 1063 423
Width: 545
VWidth: 0
Flags: HW
LayerCount: 2
Fore
SplineSet
302 280 m 1
 307 310 l 1
 484 310 l 1
 480 280 l 1
 302 280 l 1
528 700 m 1
 562 700 l 1
 441 0 l 1
 409 0 l 1
 528 700 l 1
202 700 m 1
 169 518 l 2
 151 408 197 310 307 310 c 1
 302 280 l 1
 174 280 119 394 138 518 c 1
 170 700 l 1
 202 700 l 1
EndSplineSet
EndChar

StartChar: uni0428
Encoding: 1064 1064 424
Width: 903
VWidth: 0
Flags: HW
LayerCount: 2
Fore
SplineSet
773 31 m 1
 888 700 l 1
 920 700 l 1
 800 0 l 1
 50 0 l 1
 170 700 l 1
 202 700 l 1
 88 31 l 1
 414 31 l 1
 529 700 l 1
 562 700 l 1
 446 31 l 1
 773 31 l 1
EndSplineSet
EndChar

StartChar: uni0429
Encoding: 1065 1065 425
Width: 948
VWidth: 0
Flags: HW
LayerCount: 2
Fore
SplineSet
773 31 m 1
 888 700 l 1
 920 700 l 1
 806 31 l 1
 889 31 l 1
 864 -110 l 1
 834 -110 l 1
 854 0 l 1
 50 0 l 1
 170 700 l 1
 202 700 l 1
 88 31 l 1
 414 31 l 1
 529 700 l 1
 562 700 l 1
 446 31 l 1
 773 31 l 1
EndSplineSet
EndChar

StartChar: uni042A
Encoding: 1066 1066 426
Width: 609
VWidth: 0
Flags: HW
LayerCount: 2
Fore
SplineSet
240 389 m 1
 246 420 l 1
 383 420 l 2
 510 420 600 333 580 209 c 0
 560 83 446 0 314 0 c 2
 174 0 l 1
 179 31 l 1
 316 31 l 2
 430 31 529 102 548 210 c 0
 566 316 491 388 381 388 c 2
 240 389 l 1
272 670 m 1
 96 669 l 1
 102 700 l 1
 309 700 l 1
 188 0 l 1
 157 0 l 1
 272 670 l 1
EndSplineSet
EndChar

StartChar: uni042B
Encoding: 1067 1067 427
Width: 687
VWidth: 0
Flags: HW
LayerCount: 2
Fore
SplineSet
668 700 m 1
 701 700 l 1
 580 0 l 1
 548 0 l 1
 668 700 l 1
166 700 m 1
 200 700 l 1
 78 0 l 1
 46 0 l 1
 166 700 l 1
130 389 m 1
 136 420 l 1
 273 420 l 2
 400 420 490 333 470 209 c 0
 450 83 336 0 204 0 c 2
 64 0 l 1
 69 31 l 1
 206 31 l 2
 320 31 419 102 438 210 c 0
 456 316 380 388 270 388 c 2
 130 389 l 1
EndSplineSet
EndChar

StartChar: uni042C
Encoding: 1068 1068 428
Width: 499
VWidth: 0
Flags: HW
LayerCount: 2
Fore
SplineSet
166 700 m 1
 200 700 l 1
 78 0 l 1
 46 0 l 1
 166 700 l 1
130 389 m 1
 136 420 l 1
 273 420 l 2
 400 420 490 333 470 209 c 0
 450 83 336 0 204 0 c 2
 64 0 l 1
 69 31 l 1
 206 31 l 2
 320 31 419 102 438 210 c 0
 456 316 380 388 270 388 c 2
 130 389 l 1
EndSplineSet
EndChar

StartChar: uni042D
Encoding: 1069 1069 429
Width: 664
VWidth: 0
Flags: HW
LayerCount: 2
Fore
SplineSet
178 334 m 1
 184 366 l 1
 620 366 l 1
 615 334 l 1
 178 334 l 1
616 350 m 0
 641 517 559 672 383 674 c 0
 290 675 212 640 148 587 c 1
 154 630 l 1
 220 679 291 708 385 708 c 0
 581 707 679 536 652 350 c 0
 622 154 464 -7 266 -8 c 0
 177 -8 116 17 60 70 c 1
 66 115 l 1
 116 55 180 26 268 26 c 0
 445 27 587 174 616 350 c 0
EndSplineSet
EndChar

StartChar: uni042E
Encoding: 1070 1070 430
Width: 994
VWidth: 0
Flags: HW
LayerCount: 2
Fore
SplineSet
131 364 m 1
 136 396 l 1
 350 396 l 1
 346 364 l 1
 131 364 l 1
170 700 m 1
 202 700 l 1
 81 0 l 1
 50 0 l 1
 170 700 l 1
352 352 m 0
 327 185 413 25 593 24 c 0
 775 23 920 175 949 352 c 0
 974 519 888 675 708 676 c 0
 526 677 381 528 352 352 c 0
318 352 m 0
 348 548 510 710 710 710 c 0
 908 710 1011 538 984 352 c 0
 954 156 790 -10 590 -10 c 0
 392 -10 291 166 318 352 c 0
EndSplineSet
EndChar

StartChar: uni042F
Encoding: 1071 1071 431
Width: 480
VWidth: 0
Flags: HW
LayerCount: 2
Fore
SplineSet
316 325 m 1
 40 0 l 1
 -2 0 l 1
 278 325 l 1
 316 325 l 1
490 700 m 1
 369 0 l 1
 336 0 l 1
 457 700 l 1
 490 700 l 1
469 670 m 1
 352 670 l 2
 239 668 143 611 124 502 c 0
 106 394 182 335 292 334 c 1
 412 334 l 1
 406 304 l 1
 290 304 l 1
 165 305 71 378 91 502 c 0
 111 628 224 698 354 700 c 2
 474 700 l 1
 469 670 l 1
EndSplineSet
EndChar

StartChar: uni0430
Encoding: 1072 1072 432
Width: 470
VWidth: 0
Flags: HW
LayerCount: 2
Fore
SplineSet
62 135 m 0
 51 61 101 19 167 19 c 0
 257 19 324 85 344 165 c 1
 349 150 l 1
 329 64 258 -10 158 -10 c 0
 78 -10 19 45 32 134 c 0
 47 228 140 282 236 282 c 0
 300 282 340 258 366 232 c 1
 363 212 l 1
 331 240 291 256 235 256 c 0
 155 256 75 213 62 135 c 0
128 382 m 1
 115 407 l 1
 158 437 213 471 282 470 c 0
 372 469 412 405 400 323 c 2
 344 0 l 1
 313 0 l 1
 370 323 l 2
 379 389 352 440 280 441 c 0
 218 442 168 411 128 382 c 1
EndSplineSet
EndChar

StartChar: uni0431
Encoding: 1073 1073 433
Width: 529
VWidth: 0
Flags: HW
LayerCount: 2
Fore
SplineSet
316 440 m 1
 320 470 l 1
 452 470 532 362 514 230 c 0
 496 98 384 -10 248 -10 c 0
 106 -10 54 108 54 234 c 1
 86 204 l 1
 86 118 134 20 250 20 c 0
 364 20 467 114 484 230 c 0
 502 348 430 440 316 440 c 1
68 213 m 1
 75 351 194 470 320 470 c 1
 316 440 l 1
 208 440 86 334 86 204 c 1
 68 213 l 1
54 234 m 1
 54 418 159 596 319 656 c 0
 399 686 447 725 475 780 c 1
 506 779 l 1
 477 708 416 664 326 630 c 0
 180 575 82 406 82 256 c 2
 82 206 l 1
 54 234 l 1
EndSplineSet
EndChar

StartChar: uni0432
Encoding: 1074 1074 434
Width: 410
VWidth: 0
Flags: HW
LayerCount: 2
Fore
SplineSet
102 234 m 1
 230 234 l 2
 312 233 390 212 377 124 c 0
 365 50 303 0 213 0 c 2
 62 0 l 1
 66 28 l 1
 209 28 l 2
 284 28 336 69 346 128 c 0
 356 202 288 215 230 216 c 2
 99 217 l 1
 102 234 l 1
101 226 m 1
 104 244 l 1
 223 244 l 2
 277 245 351 268 362 334 c 0
 373 398 321 432 257 432 c 2
 136 432 l 1
 140 460 l 1
 260 460 l 2
 339 460 407 418 393 334 c 0
 380 256 302 228 222 226 c 2
 101 226 l 1
124 460 m 1
 156 460 l 1
 76 0 l 1
 46 0 l 1
 124 460 l 1
EndSplineSet
EndChar

StartChar: uni0433
Encoding: 1075 1075 435
Width: 299
VWidth: 0
Flags: HW
LayerCount: 2
Fore
SplineSet
128 460 m 1
 347 460 l 1
 342 430 l 1
 155 430 l 1
 80 0 l 1
 50 0 l 1
 128 460 l 1
EndSplineSet
EndChar

StartChar: uni0434
Encoding: 1076 1076 436
Width: 635
VWidth: 0
Flags: HW
LayerCount: 2
Fore
SplineSet
362 426 m 1
 106 14 l 1
 71 14 l 1
 372 496 l 1
 509 14 l 1
 476 14 l 1
 362 426 l 1
536 0 m 1
 44 0 l 1
 28 -90 l 1
 -5 -90 l 1
 16 30 l 1
 571 30 l 1
 549 -90 l 1
 520 -90 l 1
 536 0 l 1
EndSplineSet
EndChar

StartChar: uni0435
Encoding: 1077 1077 437
Width: 495
VWidth: 0
Flags: HW
LayerCount: 2
Fore
SplineSet
78 222 m 1
 82 250 l 1
 438 250 l 1
 455 344 405 440 302 441 c 0
 196 442 110 351 92 241 c 1
 90 232 l 1
 78 126 122 21 231 20 c 0
 321 20 378 72 420 124 c 1
 443 106 l 1
 395 48 334 -10 226 -10 c 0
 102 -9 44 111 59 232 c 0
 63 256 68 278 77 300 c 0
 113 394 199 470 304 470 c 0
 420 469 486 364 472 248 c 0
 471 240 468 230 466 222 c 1
 78 222 l 1
EndSplineSet
EndChar

StartChar: uni0436
Encoding: 1078 1078 438
Width: 504
VWidth: 0
Flags: HW
LayerCount: 2
Fore
SplineSet
491 459 m 1
 532 459 l 1
 312 265 l 1
 471 0 l 1
 434 0 l 1
 279 272 l 1
 491 459 l 1
319 460 m 1
 240 0 l 1
 210 0 l 1
 290 460 l 1
 319 460 l 1
114 460 m 1
 264 268 l 1
 18 0 l 1
 -22 0 l 1
 229 268 l 1
 78 460 l 1
 114 460 l 1
EndSplineSet
EndChar

StartChar: uni0437
Encoding: 1079 1079 439
Width: 460
VWidth: 0
Flags: HW
LayerCount: 2
Fore
SplineSet
252 240 m 1
 255 260 l 1
 325 262 386 282 398 342 c 0
 409 400 359 441 295 441 c 0
 217 441 163 386 145 330 c 1
 114 330 l 1
 133 404 204 470 296 470 c 0
 376 470 443 416 429 342 c 0
 415 269 341 242 252 240 c 1
216 -10 m 0
 114 -10 58 57 56 145 c 1
 88 145 l 1
 91 75 132 18 218 18 c 0
 290 18 373 59 384 132 c 0
 396 208 319 230 250 232 c 1
 254 252 l 1
 346 250 428 218 414 132 c 0
 401 43 305 -10 216 -10 c 0
EndSplineSet
EndChar

StartChar: uni0438
Encoding: 1080 1080 440
Width: 480
VWidth: 0
Flags: HW
LayerCount: 2
Fore
SplineSet
448 439 m 1
 43 -36 l 1
 58 21 l 1
 463 496 l 1
 448 439 l 1
160 460 m 1
 82 11 l 1
 43 -36 l 1
 129 460 l 1
 160 460 l 1
463 496 m 1
 376 0 l 1
 346 0 l 1
 424 449 l 1
 463 496 l 1
EndSplineSet
EndChar

StartChar: uni0439
Encoding: 1081 1081 441
Width: 480
VWidth: 0
Flags: HW
LayerCount: 2
Fore
SplineSet
448 439 m 1
 43 -36 l 1
 58 21 l 1
 463 496 l 1
 448 439 l 1
160 460 m 1
 82 11 l 1
 43 -36 l 1
 129 460 l 1
 160 460 l 1
463 496 m 1
 376 0 l 1
 346 0 l 1
 424 449 l 1
 463 496 l 1
170 692 m 1
 197 692 l 1
 193 634 226 579 304 579 c 0
 384 579 431 634 448 691 c 1
 477 690 l 1
 459 618 400 552 302 552 c 0
 206 552 165 618 170 692 c 1
EndSplineSet
EndChar

StartChar: uni043A
Encoding: 1082 1082 442
Width: 426
VWidth: 0
Flags: HW
LayerCount: 2
Fore
SplineSet
126 460 m 1
 158 460 l 1
 77 0 l 1
 47 0 l 1
 126 460 l 1
366 459 m 1
 409 459 l 1
 152 269 l 1
 347 0 l 1
 310 0 l 1
 114 272 l 1
 366 459 l 1
EndSplineSet
EndChar

StartChar: uni043B
Encoding: 1083 1083 443
Width: 493
VWidth: 0
Flags: HW
LayerCount: 2
Fore
SplineSet
468 460 m 1
 390 0 l 1
 358 0 l 1
 432 430 l 1
 158 430 l 1
 112 160 l 2
 98 66 54 10 -18 0 c 1
 -13 30 l 1
 38 41 69 86 80 160 c 1
 132 460 l 1
 468 460 l 1
EndSplineSet
EndChar

StartChar: uni043C
Encoding: 1084 1084 444
Width: 589
VWidth: 0
Flags: HW
LayerCount: 2
Fore
SplineSet
522 0 m 1
 500 429 l 1
 526 496 l 1
 557 0 l 1
 522 0 l 1
260 28 m 1
 526 496 l 1
 515 416 l 1
 260 -31 l 1
 260 28 l 1
260 -32 m 1
 165 420 l 1
 180 496 l 1
 278 25 l 1
 260 -32 l 1
-24 0 m 1
 180 496 l 1
 182 426 l 1
 14 0 l 1
 -24 0 l 1
EndSplineSet
EndChar

StartChar: uni043D
Encoding: 1085 1085 445
Width: 500
VWidth: 0
Flags: HW
LayerCount: 2
Fore
SplineSet
104 230 m 1
 108 259 l 1
 432 259 l 1
 428 230 l 1
 104 230 l 1
449 460 m 1
 480 460 l 1
 400 0 l 1
 370 0 l 1
 449 460 l 1
124 460 m 1
 156 460 l 1
 76 0 l 1
 46 0 l 1
 124 460 l 1
EndSplineSet
EndChar

StartChar: uni043E
Encoding: 1086 1086 446
Width: 529
VWidth: 0
Flags: HW
LayerCount: 2
Fore
SplineSet
52 230 m 0
 72 362 185 470 319 470 c 0
 452 470 526 356 508 230 c 0
 488 98 375 -10 241 -10 c 0
 108 -10 34 104 52 230 c 0
84 230 m 0
 67 121 127 21 242 20 c 0
 358 19 459 115 478 230 c 0
 495 339 433 439 318 440 c 0
 202 441 103 345 84 230 c 0
EndSplineSet
EndChar

StartChar: uni043F
Encoding: 1087 1087 447
Width: 461
VWidth: 0
Flags: HW
LayerCount: 2
Fore
SplineSet
442 460 m 1
 362 0 l 1
 331 0 l 1
 405 430 l 1
 150 430 l 1
 76 0 l 1
 44 0 l 1
 124 460 l 1
 442 460 l 1
EndSplineSet
EndChar

StartChar: uni0440
Encoding: 1088 1088 448
Width: 553
VWidth: 0
Flags: HW
LayerCount: 2
Fore
SplineSet
40 -220 m 1
 8 -220 l 1
 126 460 l 1
 156 460 l 1
 40 -220 l 1
506 230 m 0
 487 97 382 -11 254 -10 c 0
 130 -9 87 118 103 230 c 0
 121 350 209 470 333 470 c 0
 461 471 523 356 506 230 c 0
474 230 m 0
 490 340 438 441 326 440 c 0
 222 439 134 335 117 230 c 0
 103 132 149 22 252 20 c 0
 364 18 456 114 474 230 c 0
EndSplineSet
EndChar

StartChar: uni0441
Encoding: 1089 1089 449
Width: 463
VWidth: 0
Flags: HW
LayerCount: 2
Fore
SplineSet
78 230 m 0
 61 121 123 21 238 20 c 0
 307 20 367 54 403 87 c 1
 398 48 l 1
 360 17 301 -10 236 -10 c 0
 103 -10 30 104 48 230 c 0
 68 362 181 470 315 470 c 0
 376 470 429 445 459 412 c 1
 453 373 l 1
 429 410 378 440 314 440 c 0
 198 440 97 345 78 230 c 0
EndSplineSet
EndChar

StartChar: uni0442
Encoding: 1090 1090 450
Width: 271
VWidth: 0
Flags: HW
LayerCount: 2
Fore
SplineSet
56 460 m 1
 319 460 l 1
 314 430 l 1
 50 430 l 1
 56 460 l 1
170 450 m 1
 202 450 l 1
 124 0 l 1
 93 0 l 1
 170 450 l 1
EndSplineSet
EndChar

StartChar: uni0443
Encoding: 1091 1091 451
Width: 426
VWidth: 0
Flags: HW
LayerCount: 2
Fore
SplineSet
463 460 m 1
 54 -220 l 1
 18 -219 l 1
 172 35 l 1
 58 460 l 1
 94 460 l 1
 200 44 l 1
 184 46 l 1
 427 460 l 1
 463 460 l 1
EndSplineSet
EndChar

StartChar: uni0444
Encoding: 1092 1092 452
Width: 568
VWidth: 0
Flags: HW
LayerCount: 2
Fore
SplineSet
338 560 m 1
 369 560 l 1
 254 -100 l 1
 225 -100 l 1
 338 560 l 1
46 230 m 0
 68 366 188 470 336 470 c 0
 482 470 568 362 548 230 c 0
 526 94 406 -10 258 -10 c 0
 112 -10 26 98 46 230 c 0
76 230 m 0
 57 118 127 21 258 20 c 0
 392 19 496 113 516 230 c 0
 535 342 465 439 334 440 c 0
 200 441 96 347 76 230 c 0
EndSplineSet
EndChar

StartChar: uni0445
Encoding: 1093 1093 453
Width: 407
VWidth: 0
Flags: HW
LayerCount: 2
Fore
SplineSet
378 459 m 1
 416 459 l 1
 220 236 l 1
 346 0 l 1
 311 0 l 1
 200 211 l 1
 16 0 l 1
 -22 0 l 1
 187 238 l 1
 68 460 l 1
 103 460 l 1
 206 263 l 1
 378 459 l 1
EndSplineSet
EndChar

StartChar: uni0446
Encoding: 1094 1094 454
Width: 500
VWidth: 0
Flags: HW
LayerCount: 2
Fore
SplineSet
366 30 m 1
 446 30 l 1
 424 -90 l 1
 396 -90 l 1
 412 0 l 1
 44 0 l 1
 124 460 l 1
 155 460 l 1
 81 30 l 1
 336 30 l 1
 411 460 l 1
 441 460 l 1
 366 30 l 1
EndSplineSet
EndChar

StartChar: uni0447
Encoding: 1095 1095 455
Width: 422
VWidth: 0
Flags: HW
LayerCount: 2
Fore
SplineSet
220 140 m 1
 224 170 l 1
 344 170 l 1
 339 140 l 1
 220 140 l 1
371 460 m 1
 402 460 l 1
 322 0 l 1
 293 0 l 1
 371 460 l 1
132 460 m 1
 108 328 l 2
 92 223 118 170 224 170 c 1
 220 140 l 1
 90 140 59 206 77 328 c 2
 100 460 l 1
 132 460 l 1
EndSplineSet
EndChar

StartChar: uni0448
Encoding: 1096 1096 456
Width: 709
VWidth: 0
Flags: HW
LayerCount: 2
Fore
SplineSet
347 30 m 1
 584 30 l 1
 658 460 l 1
 689 460 l 1
 610 0 l 1
 44 0 l 1
 124 460 l 1
 155 460 l 1
 81 30 l 1
 317 30 l 1
 391 460 l 1
 422 460 l 1
 347 30 l 1
EndSplineSet
EndChar

StartChar: uni0449
Encoding: 1097 1097 457
Width: 747
VWidth: 0
Flags: HW
LayerCount: 2
Fore
SplineSet
347 30 m 1
 584 30 l 1
 658 460 l 1
 689 460 l 1
 615 30 l 1
 693 30 l 1
 672 -90 l 1
 644 -90 l 1
 660 0 l 1
 44 0 l 1
 124 460 l 1
 155 460 l 1
 81 30 l 1
 317 30 l 1
 391 460 l 1
 422 460 l 1
 347 30 l 1
EndSplineSet
EndChar

StartChar: uni044A
Encoding: 1098 1098 458
Width: 516
VWidth: 0
Flags: HW
LayerCount: 2
Fore
SplineSet
200 258 m 1
 204 286 l 1
 325 286 l 2
 415 286 480 236 466 142 c 0
 452 48 371 0 279 0 c 2
 156 0 l 1
 160 28 l 1
 281 28 l 2
 359 28 424 67 436 144 c 0
 448 219 395 258 323 258 c 2
 200 258 l 1
212 430 m 1
 50 430 l 1
 56 460 l 1
 248 460 l 1
 168 0 l 1
 138 0 l 1
 212 430 l 1
EndSplineSet
EndChar

StartChar: uni044B
Encoding: 1099 1099 459
Width: 560
VWidth: 0
Flags: HW
LayerCount: 2
Fore
SplineSet
509 460 m 1
 542 460 l 1
 462 0 l 1
 431 0 l 1
 509 460 l 1
124 460 m 1
 156 460 l 1
 76 0 l 1
 46 0 l 1
 124 460 l 1
104 258 m 1
 109 286 l 1
 230 286 l 2
 320 286 384 236 370 142 c 0
 356 48 274 0 182 0 c 2
 60 0 l 1
 64 28 l 1
 186 28 l 2
 258 28 327 67 340 144 c 0
 352 218 300 258 228 258 c 2
 104 258 l 1
EndSplineSet
EndChar

StartChar: uni044C
Encoding: 1100 1100 460
Width: 420
VWidth: 0
Flags: HW
LayerCount: 2
Fore
SplineSet
124 460 m 1
 156 460 l 1
 76 0 l 1
 46 0 l 1
 124 460 l 1
104 258 m 1
 109 286 l 1
 230 286 l 2
 320 286 385 236 371 142 c 0
 357 48 272 0 184 0 c 2
 60 0 l 1
 64 28 l 1
 186 28 l 2
 262 30 327 67 340 144 c 0
 352 218 300 258 228 258 c 2
 104 258 l 1
EndSplineSet
EndChar

StartChar: uni044D
Encoding: 1101 1101 461
Width: 470
VWidth: 0
Flags: HW
LayerCount: 2
Fore
SplineSet
147 244 m 1
 443 244 l 1
 418 216 l 1
 142 216 l 1
 147 244 l 1
416 230 m 0
 433 339 372 439 257 440 c 0
 188 440 128 406 92 373 c 1
 98 412 l 1
 136 442 194 470 259 470 c 0
 392 470 465 356 447 230 c 0
 427 98 314 -10 180 -10 c 0
 118 -10 66 14 36 48 c 1
 42 87 l 1
 66 50 118 20 182 20 c 0
 298 20 397 115 416 230 c 0
EndSplineSet
EndChar

StartChar: uni044E
Encoding: 1102 1102 462
Width: 730
VWidth: 0
Flags: HW
LayerCount: 2
Fore
SplineSet
103 226 m 1
 108 256 l 1
 274 256 l 1
 268 226 l 1
 103 226 l 1
124 460 m 1
 156 460 l 1
 76 0 l 1
 46 0 l 1
 124 460 l 1
246 230 m 0
 266 362 380 470 514 470 c 0
 647 470 720 356 702 230 c 0
 682 98 569 -10 435 -10 c 0
 302 -10 228 104 246 230 c 0
278 230 m 0
 261 121 321 21 436 20 c 0
 552 19 653 115 672 230 c 0
 689 339 627 439 512 440 c 0
 396 441 297 345 278 230 c 0
EndSplineSet
EndChar

StartChar: uni044F
Encoding: 1103 1103 463
Width: 420
VWidth: 0
Flags: HW
LayerCount: 2
Fore
SplineSet
59 0 m 1
 22 0 l 1
 208 206 l 1
 244 206 l 1
 59 0 l 1
346 0 m 1
 314 0 l 1
 394 460 l 1
 424 460 l 1
 346 0 l 1
364 212 m 1
 360 184 l 1
 242 184 l 1
 153 185 86 228 100 322 c 0
 114 416 194 458 286 460 c 2
 406 460 l 1
 402 432 l 1
 284 432 l 2
 208 430 142 398 130 322 c 0
 118 248 172 214 244 212 c 2
 364 212 l 1
EndSplineSet
EndChar

StartChar: uni0450
Encoding: 1104 1104 464
Width: 495
VWidth: 0
Flags: HW
LayerCount: 2
Fore
SplineSet
78 222 m 1
 82 250 l 1
 438 250 l 1
 455 344 405 440 302 441 c 0
 196 442 110 351 92 241 c 1
 90 232 l 1
 78 126 122 21 231 20 c 0
 321 20 378 72 420 124 c 1
 443 106 l 1
 395 48 334 -10 226 -10 c 0
 102 -9 44 111 59 232 c 0
 63 256 68 278 77 300 c 0
 113 394 199 470 304 470 c 0
 420 469 486 364 472 248 c 0
 471 240 468 230 466 222 c 1
 78 222 l 1
189 693 m 1
 218 710 l 1
 354 550 l 1
 338 538 l 1
 189 693 l 1
EndSplineSet
EndChar

StartChar: uni0451
Encoding: 1105 1105 465
Width: 495
VWidth: 0
Flags: HW
LayerCount: 2
Fore
SplineSet
78 222 m 1
 82 250 l 1
 438 250 l 1
 455 344 405 440 302 441 c 0
 196 442 110 351 92 241 c 1
 90 232 l 1
 78 126 122 21 231 20 c 0
 321 20 378 72 420 124 c 1
 443 106 l 1
 395 48 334 -10 226 -10 c 0
 102 -9 44 111 59 232 c 0
 63 256 68 278 77 300 c 0
 113 394 199 470 304 470 c 0
 420 469 486 364 472 248 c 0
 471 240 468 230 466 222 c 1
 78 222 l 1
386 580 m 0
 387 592 400 604 412 604 c 0
 424 604 433 593 432 580 c 0
 431 568 418 555 406 555 c 0
 394 555 385 567 386 580 c 0
192 580 m 0
 193 592 206 604 218 604 c 0
 230 604 239 593 238 580 c 0
 237 568 224 555 212 555 c 0
 200 555 191 567 192 580 c 0
EndSplineSet
EndChar

StartChar: uni0453
Encoding: 1107 1107 466
Width: 299
VWidth: 0
Flags: HW
LayerCount: 2
Fore
SplineSet
128 460 m 1
 347 460 l 1
 342 430 l 1
 155 430 l 1
 80 0 l 1
 50 0 l 1
 128 460 l 1
408 684 m 1
 212 531 l 1
 195 544 l 1
 382 702 l 1
 408 684 l 1
EndSplineSet
EndChar

